<?xml version="1.0" standalone="no"?>
<!DOCTYPE svg PUBLIC "-//W3C//DTD SVG 1.1//EN" "http://www.w3.org/Graphics/SVG/1.1/DTD/svg11.dtd">
<svg width="100%" height="100%" viewBox="0 0 3500 1200" version="1.1" xmlns="http://www.w3.org/2000/svg" xmlns:xlink="http://www.w3.org/1999/xlink" xml:space="preserve" style="fill-rule:evenodd;clip-rule:evenodd;stroke-linejoin:round;stroke-miterlimit:1.41421;">
    <g id="Layer1">
        <g transform="matrix(24.2912,0,0,8.5662,-5.68434e-14,0)">
            <rect x="0" y="0" width="144.773" height="144.773" style="fill:rgb(200,37,40);fill-rule:nonzero;"/>
        </g>
        <g id="Layer2" transform="matrix(1.51265,0,0,1.51265,301.55,131.159)">
            <g transform="matrix(4.16667,0,0,4.16667,0,0)">
                <path d="M40.82,97.673C39.347,97.673 35.93,100.777 35.93,78.283C35.93,60.983 39.347,49.967 39.347,47.097C39.347,44.77 39.733,43.373 37.793,43.373C32.283,43.373 22.59,52.293 21.27,52.293C20.573,52.293 20.187,52.607 20.187,50.433C20.187,48.03 22.28,38.41 23.443,36.237C24.22,34.763 34.69,31.97 45.163,31.97C57.653,31.97 68.747,35.307 68.747,38.953C68.747,42.363 64.947,49.733 64.09,49.733C62.773,49.733 59.59,43.297 54.007,43.297C49.277,43.297 48.5,58.113 48.5,65.25C48.5,85.187 52.767,94.96 52.767,96.357C52.767,98.063 49.973,97.673 48.967,97.673L40.82,97.673Z" style="fill:white;fill-rule:nonzero;"/>
            </g>
            <g transform="matrix(4.16667,0,0,4.16667,0,0)">
                <path d="M111.173,93.173C107.683,97.13 101.013,98.84 96.743,98.84C83.557,98.84 72.62,89.22 72.62,66.49C72.62,51.053 77.817,31.97 96.743,31.97C115.673,31.97 120.87,51.053 120.87,66.49C120.947,71.61 119.55,79.057 116.68,85.263C120.403,88.677 122.267,92.09 122.267,97.21C122.267,98.063 122.343,100.933 120.947,100.933C119.86,100.933 118.387,99.38 117.61,98.683L111.173,93.173ZM85.187,64.627C85.187,79.523 89.763,85.883 96.743,85.883C97.597,85.883 99.227,85.807 100.547,84.953C95.89,81.46 92.867,76.653 92.867,70.68C92.867,70.137 93.177,66.413 94.03,66.413C95.27,66.413 95.27,67.5 95.27,67.733C96.823,72.307 101.63,74.713 106.597,77.353C107.993,72.85 108.3,68.12 108.3,63.467C108.3,55.863 107.217,42.987 96.743,42.987C86.66,42.987 85.187,56.793 85.187,64.627Z" style="fill:white;fill-rule:nonzero;"/>
            </g>
            <g transform="matrix(4.16667,0,0,4.16667,0,0)">
                <path d="M90.3,99.963C90.3,99.963 89.37,99.253 87.947,98.84C87.947,98.84 86.927,98.237 86.173,97.067C86.173,97.067 85.243,96.313 84.877,96.117C84.877,96.117 84.933,94.777 84.853,94.41C84.777,94.047 83.917,93.307 83.797,92.92C83.673,92.53 83.423,86.7 82.183,80.43C81.78,78.403 80.8,73.05 79.763,71.897C78.723,70.747 77.757,65.33 74.933,61.757C74.933,61.757 75.437,60.85 75.437,60.76L74.833,59.853L78.853,60.113C78.853,60.113 78.91,60.803 79.963,60.733C79.963,60.733 81.243,60.443 81.663,59.033C81.663,59.033 81.693,57.863 81.62,57.477C81.62,57.477 82.34,56.44 82.34,54.537C82.34,54.537 82.24,51.167 81.937,48.53C81.937,48.53 82.087,45.827 82.197,45.223C82.197,45.223 82.13,43.083 80.64,42.5C80.64,42.5 77.83,41.507 77.16,40.34C77.16,40.34 76.793,39.237 77.723,37.747C77.723,37.747 78.48,36.493 78.563,35.63C78.563,35.63 77.967,36.487 77.81,36.493C77.65,36.5 77.377,36.017 77.203,35.39C77.203,35.39 77.03,34.913 77.16,34.527C77.16,34.527 77.463,33.423 77.097,32.97C77.097,32.97 77.267,30.897 77.14,30.68C77.14,30.68 76.08,28.54 74.22,28.26C74.22,28.26 71.28,27.673 70.29,30.16C70.29,30.16 69.77,33.533 70.677,36.123C70.677,36.123 70.937,36.493 71.087,36.58C71.087,36.58 71.06,37.02 70.96,37.12C70.857,37.217 69.207,36.99 68.517,37.053C68.517,37.053 68.517,37.443 69.92,38.913C69.92,38.913 70.02,39.553 69.92,39.733C69.82,39.913 69.53,39.93 68.903,40.34C68.903,40.34 67.027,40.64 66.73,40.403C66.433,40.167 66.237,32.08 66.157,28.91C66.073,25.737 65.53,24.487 65.447,23.31C65.363,22.133 65.23,21.387 65.423,19.55C65.423,19.55 65.85,19.447 65.993,19.28C66.13,19.113 66.743,18.317 67.35,18.143C67.35,18.143 68.407,17.887 68.473,17.583C68.473,17.583 68.45,17.343 68.407,17.237C68.407,17.237 70.373,16.74 70.743,16.027C70.743,16.027 70.823,15.773 70.187,15.867C70.187,15.867 70.437,15.347 70.027,15.26L68.427,15.693L67.413,15.97L69.803,14.397C69.803,14.397 70.267,13.29 67.717,14.923C67.3,15.233 67.123,15.177 66.55,15.573C66.55,15.573 64.473,17.063 63.417,18.837C63.417,18.837 63.177,21.213 62.897,22.597C62.897,22.597 62.42,27.05 62.617,28.993C62.617,28.993 62.657,29.77 62.573,30.03C62.573,30.03 60.983,29.697 60.11,30.01C60.11,30.01 56.35,30.897 55.96,34.59C55.96,34.59 55.827,35.26 55.527,35.63C55.223,35.997 54.317,38.2 56.847,39.8C56.847,39.8 57.69,40.143 58.467,40.143C59.22,40.143 59.6,41.02 59.913,41.073L59.957,41.573C59.957,41.573 59.177,41.527 57.777,41.203C57.777,41.203 56.163,41.107 53.74,41.097C52.367,41.09 50.38,40.947 49.153,41.27C49.153,41.27 47.347,41.687 46.22,41.7C44.983,41.717 43.317,41.73 41.48,42.65C41.48,42.65 40.25,42.837 38.82,42.867C37.403,42.9 37.533,43.56 38.117,43.56C38.117,43.56 40.777,43.483 40.053,43.69C40.053,43.69 37.727,43.68 36.963,44.1C36.56,44.273 36.487,44.683 37.483,44.53C37.483,44.53 36.023,45.29 36.85,45.373C36.85,45.373 37.69,45.187 38.59,45.093C37.65,45.44 36.63,46.39 37.793,46.26C37.793,46.26 40.657,45.537 41.663,45.98C41.663,45.98 41.987,45.927 41.703,47.427C41.703,47.427 41.317,48.573 42.213,48.65C42.213,48.65 42.617,47.87 42.873,46.357C42.873,46.357 43.64,44.38 47.273,44.727C47.273,44.727 51.737,45.013 54.073,44.783C54.073,44.783 58.163,44.64 59.373,45.043C59.373,45.043 57.96,48.557 60.757,52.333C60.757,52.333 62.747,57.203 60.123,60.4C60.123,60.4 58.463,62.707 58.25,65.617C58.123,68.067 56.163,68.123 54.647,69.42C54.647,69.42 52.833,70.717 52.343,73.11C52.343,73.11 50.067,74.377 49.607,75.127C49.607,75.127 48.713,75.933 48.827,76.107C48.827,76.107 49.893,78.123 51.103,77.46C51.103,77.46 52.46,76.307 53.033,76.57C53.033,76.57 56.607,78.613 58.567,78.25C58.567,78.25 59.087,79.937 58.077,83.023C58.077,83.023 57.243,85.24 56.867,86.22C56.867,86.22 56.75,86.3 56.687,87.05L56.48,87.43C56.48,87.43 55.86,90.693 55.817,91.627C55.817,91.627 55.47,94.457 54.497,96.66C54.497,96.66 53.19,100.22 53.133,100.427C53.083,100.63 53.827,100.743 53.827,100.743C53.827,100.743 53.68,101.793 53.313,102.4C53.313,102.4 52.28,103.87 54.063,103.92L56.637,103.943C56.633,104.247 56.637,104.8 56.617,105.08L57.297,105.08C57.297,105.08 57.293,103.997 57.34,103.22L57.757,102.637C58.043,102.933 58.61,103.593 59.72,105.023C59.72,105.023 60.137,105.15 63.653,105.023C63.653,105.023 63.897,104.92 63.767,104.413C63.767,104.413 64.633,105.067 65.383,104.993C65.383,104.993 65.973,104.677 65.497,103.84C65.497,103.84 64.927,103.183 65.1,101.413C65.1,101.413 65.383,99.253 65.36,98.367C65.36,98.367 66.03,94.997 66.637,93.893C66.637,93.893 69.747,87.517 69.92,86.113C69.92,86.113 71.497,79.78 71.583,78.333C71.583,78.333 72.817,78.223 73.077,78.093L78.697,99.533C78.697,99.533 79.04,99.533 79.127,99.51C79.127,99.51 78.973,100.937 79.127,101.413C79.127,101.413 81.9,101.607 82.677,101.26C82.677,101.26 82.693,101.11 82.78,100.613C82.78,100.613 84.377,100.127 85.63,101.047C85.63,101.047 86.777,101.24 89.693,101.003C89.693,101.003 90.86,100.873 90.3,99.963ZM66.017,83.283C66.017,83.283 63.993,86.313 63.813,88.64C63.63,90.967 63.45,93.887 63.133,95.123C62.817,96.363 62.443,96.627 61.197,97.74C61.197,97.74 61.26,96.117 61.757,95.017C61.757,95.017 62.19,93.803 62.277,92.08C62.277,92.08 62.417,90.283 63.523,87.863C63.523,87.863 64.287,86.283 64.527,85.1C64.527,85.1 64.783,82.613 65.907,81.423C65.907,81.423 66.36,82.547 66.017,83.283Z" style="fill:black;fill-rule:nonzero;"/>
            </g>
            <g transform="matrix(0.298134,0,0,0.298134,-205.528,20.9791)">
                <path d="M390.602,1638.79L390.602,1798.09L342.129,1798.09L342.129,1638.79L285.436,1638.79L285.436,1597.4L447.294,1597.4L447.294,1638.79L390.602,1638.79Z" style="fill:white;fill-rule:nonzero;"/>
                <path d="M522.979,1736.58L517.027,1736.58C511.924,1736.58 506.775,1736.82 501.578,1737.29C496.381,1737.76 491.751,1738.66 487.688,1739.98C483.625,1741.31 480.271,1743.24 477.625,1745.79C474.979,1748.34 473.657,1751.7 473.657,1755.86C473.657,1758.5 474.271,1760.77 475.499,1762.66C476.727,1764.55 478.287,1766.06 480.176,1767.19C482.066,1768.33 484.239,1769.13 486.696,1769.6C489.153,1770.08 491.515,1770.31 493.783,1770.31C503.231,1770.31 510.46,1767.71 515.468,1762.52C520.476,1757.32 522.979,1750.28 522.979,1741.4L522.979,1736.58ZM437.657,1676.2C445.972,1668.27 455.657,1662.31 466.712,1658.34C477.767,1654.38 489.058,1652.39 500.586,1652.39C512.491,1652.39 522.554,1653.86 530.775,1656.79C538.995,1659.71 545.657,1664.25 550.759,1670.39C555.861,1676.53 559.594,1684.28 561.956,1693.64C564.318,1702.99 565.499,1714.09 565.499,1726.94L565.499,1798.09L522.979,1798.09L522.979,1783.07L522.129,1783.07C518.539,1788.93 513.105,1793.46 505.83,1796.67C498.554,1799.89 490.665,1801.49 482.161,1801.49C476.491,1801.49 470.633,1800.74 464.586,1799.23C458.539,1797.71 453.011,1795.26 448.003,1791.86C442.995,1788.45 438.885,1783.92 435.672,1778.25C432.46,1772.58 430.853,1765.59 430.853,1757.27C430.853,1747.07 433.641,1738.85 439.216,1732.61C444.79,1726.38 451.972,1721.56 460.759,1718.15C469.546,1714.75 479.326,1712.49 490.098,1711.35C500.869,1710.22 511.357,1709.65 521.562,1709.65L521.562,1707.38C521.562,1700.39 519.105,1695.24 514.192,1691.93C509.279,1688.63 503.231,1686.97 496.05,1686.97C489.436,1686.97 483.058,1688.39 476.916,1691.23C470.775,1694.06 465.531,1697.46 461.184,1701.43L437.657,1676.2Z" style="fill:white;fill-rule:nonzero;"/>
                <path d="M692.775,1798.09L692.775,1720.99C692.775,1717.02 692.444,1713.24 691.783,1709.65C691.121,1706.06 690.035,1702.89 688.523,1700.15C687.011,1697.41 684.885,1695.24 682.145,1693.64C679.405,1692.03 675.956,1691.23 671.798,1691.23C667.641,1691.23 664.003,1692.03 660.885,1693.64C657.767,1695.24 655.168,1697.46 653.09,1700.3C651.011,1703.13 649.452,1706.39 648.413,1710.08C647.373,1713.76 646.853,1717.59 646.853,1721.56L646.853,1798.09L600.082,1798.09L600.082,1656.93L645.153,1656.93L645.153,1676.49L645.72,1676.49C647.42,1673.46 649.641,1670.49 652.381,1667.56C655.121,1664.63 658.334,1662.12 662.019,1660.05C665.704,1657.97 669.72,1656.27 674.066,1654.94C678.413,1653.62 683.042,1652.96 687.956,1652.96C697.405,1652.96 705.436,1654.66 712.05,1658.06C718.665,1661.46 724.003,1665.86 728.066,1671.24C732.129,1676.63 735.058,1682.82 736.853,1689.81C738.649,1696.8 739.546,1703.79 739.546,1710.79L739.546,1798.09L692.775,1798.09Z" style="fill:white;fill-rule:nonzero;"/>
                <path d="M766.192,1798.09L766.192,1761.81L832.523,1692.64L768.743,1692.64L768.743,1656.93L889.216,1656.93L889.216,1691.79L820.901,1762.09L892.05,1762.09L892.05,1798.09L766.192,1798.09Z" style="fill:white;fill-rule:nonzero;"/>
                <path d="M1023.29,1866.12L1023.29,1782.5L1022.73,1782.5C1018.19,1788.55 1012.1,1793.32 1004.44,1796.82C996.79,1800.31 988.617,1802.06 979.924,1802.06C969.153,1802.06 959.609,1799.98 951.294,1795.83C942.979,1791.67 935.987,1786.14 930.318,1779.24C924.649,1772.34 920.302,1764.36 917.279,1755.29C914.255,1746.22 912.743,1736.77 912.743,1726.94C912.743,1717.12 914.302,1707.71 917.42,1698.74C920.539,1689.76 924.979,1681.87 930.743,1675.07C936.507,1668.27 943.499,1662.88 951.72,1658.91C959.94,1654.94 969.153,1652.96 979.357,1652.96C989.94,1652.96 999.058,1655.08 1006.71,1659.34C1014.37,1663.59 1020.37,1668.55 1024.71,1674.22L1025.56,1674.22L1025.56,1656.93L1069.5,1656.93L1069.5,1866.12L1023.29,1866.12ZM1025,1727.23C1025,1722.69 1024.19,1718.25 1022.59,1713.9C1020.98,1709.56 1018.71,1705.68 1015.78,1702.28C1012.85,1698.88 1009.31,1696.14 1005.15,1694.06C1001,1691.98 996.271,1690.94 990.979,1690.94C985.499,1690.94 980.68,1691.98 976.523,1694.06C972.365,1696.14 968.869,1698.83 966.035,1702.14C963.2,1705.45 961.074,1709.27 959.657,1713.62C958.239,1717.97 957.531,1722.41 957.531,1726.94C957.531,1731.48 958.239,1735.97 959.657,1740.41C961.074,1744.85 963.2,1748.77 966.035,1752.17C968.869,1755.57 972.365,1758.31 976.523,1760.39C980.68,1762.47 985.499,1763.51 990.979,1763.51C996.271,1763.51 1001,1762.47 1005.15,1760.39C1009.31,1758.31 1012.85,1755.57 1015.78,1752.17C1018.71,1748.77 1020.98,1744.89 1022.59,1740.55C1024.19,1736.2 1025,1731.76 1025,1727.23Z" style="fill:white;fill-rule:nonzero;"/>
                <path d="M1199.04,1798.09L1199.04,1778.53L1198.48,1778.53C1196.78,1781.75 1194.55,1784.77 1191.81,1787.6C1189.07,1790.44 1185.86,1792.89 1182.18,1794.97C1178.49,1797.05 1174.43,1798.75 1169.99,1800.08C1165.55,1801.4 1160.87,1802.06 1155.96,1802.06C1146.51,1802.06 1138.52,1800.36 1132,1796.96C1125.48,1793.56 1120.19,1789.16 1116.13,1783.78C1112.07,1778.39 1109.14,1772.25 1107.34,1765.35C1105.55,1758.45 1104.65,1751.41 1104.65,1744.23L1104.65,1656.93L1151.42,1656.93L1151.42,1733.46C1151.42,1737.43 1151.7,1741.21 1152.27,1744.8C1152.84,1748.39 1153.92,1751.6 1155.53,1754.44C1157.14,1757.27 1159.26,1759.49 1161.91,1761.1C1164.55,1762.71 1168.05,1763.51 1172.4,1763.51C1180.52,1763.51 1186.71,1760.49 1190.96,1754.44C1195.22,1748.39 1197.34,1741.31 1197.34,1733.18L1197.34,1656.93L1243.83,1656.93L1243.83,1798.09L1199.04,1798.09Z" style="fill:white;fill-rule:nonzero;"/>
                <path d="M1429.78,1726.94C1429.78,1738.47 1427.7,1748.91 1423.55,1758.27C1419.39,1767.62 1413.72,1775.56 1406.54,1782.08C1399.36,1788.6 1391.04,1793.65 1381.59,1797.24C1372.14,1800.83 1362.04,1802.63 1351.26,1802.63C1340.68,1802.63 1330.62,1800.83 1321.07,1797.24C1311.53,1793.65 1303.22,1788.6 1296.13,1782.08C1289.04,1775.56 1283.42,1767.62 1279.26,1758.27C1275.11,1748.91 1273.03,1738.47 1273.03,1726.94C1273.03,1715.41 1275.11,1705.02 1279.26,1695.76C1283.42,1686.5 1289.04,1678.66 1296.13,1672.23C1303.22,1665.81 1311.53,1660.89 1321.07,1657.49C1330.62,1654.09 1340.68,1652.39 1351.26,1652.39C1362.04,1652.39 1372.14,1654.09 1381.59,1657.49C1391.04,1660.89 1399.36,1665.81 1406.54,1672.23C1413.72,1678.66 1419.39,1686.5 1423.55,1695.76C1427.7,1705.02 1429.78,1715.41 1429.78,1726.94ZM1385,1726.94C1385,1722.41 1384.24,1717.97 1382.73,1713.62C1381.22,1709.27 1379.04,1705.45 1376.21,1702.14C1373.37,1698.83 1369.88,1696.14 1365.72,1694.06C1361.56,1691.98 1356.74,1690.94 1351.26,1690.94C1345.78,1690.94 1340.96,1691.98 1336.81,1694.06C1332.65,1696.14 1329.2,1698.83 1326.46,1702.14C1323.72,1705.45 1321.64,1709.27 1320.22,1713.62C1318.81,1717.97 1318.1,1722.41 1318.1,1726.94C1318.1,1731.48 1318.81,1735.92 1320.22,1740.27C1321.64,1744.61 1323.77,1748.53 1326.6,1752.03C1329.44,1755.53 1332.93,1758.31 1337.09,1760.39C1341.25,1762.47 1346.07,1763.51 1351.55,1763.51C1357.03,1763.51 1361.85,1762.47 1366,1760.39C1370.16,1758.31 1373.66,1755.53 1376.49,1752.03C1379.33,1748.53 1381.45,1744.61 1382.87,1740.27C1384.29,1735.92 1385,1731.48 1385,1726.94Z" style="fill:white;fill-rule:nonzero;"/>
                <path d="M1509.72,1691.79L1509.72,1745.65C1509.72,1752.27 1511,1757.23 1513.55,1760.53C1516.1,1763.84 1520.68,1765.49 1527.29,1765.49C1529.56,1765.49 1531.97,1765.31 1534.52,1764.93C1537.07,1764.55 1539.2,1763.98 1540.9,1763.23L1541.47,1797.24C1538.26,1798.38 1534.19,1799.37 1529.28,1800.22C1524.37,1801.07 1519.45,1801.49 1514.54,1801.49C1505.09,1801.49 1497.15,1800.31 1490.73,1797.95C1484.3,1795.59 1479.15,1792.19 1475.28,1787.75C1471.4,1783.31 1468.62,1778.01 1466.92,1771.87C1465.22,1765.73 1464.37,1758.88 1464.37,1751.32L1464.37,1691.79L1441.69,1691.79L1441.69,1656.93L1464.08,1656.93L1464.08,1619.79L1509.72,1619.79L1509.72,1656.93L1542.88,1656.93L1542.88,1691.79L1509.72,1691.79Z" style="fill:white;fill-rule:nonzero;"/>
                <path d="M1615.17,1611.86C1615.17,1615.45 1614.46,1618.8 1613.04,1621.92C1611.62,1625.04 1609.74,1627.73 1607.37,1630C1605.01,1632.27 1602.18,1634.06 1598.87,1635.38C1595.56,1636.71 1592.11,1637.37 1588.52,1637.37C1580.96,1637.37 1574.63,1634.86 1569.53,1629.86C1564.43,1624.85 1561.88,1618.85 1561.88,1611.86C1561.88,1608.45 1562.54,1605.19 1563.86,1602.08C1565.18,1598.96 1567.07,1596.27 1569.53,1594C1571.99,1591.73 1574.82,1589.89 1578.04,1588.47C1581.25,1587.05 1584.74,1586.34 1588.52,1586.34C1592.11,1586.34 1595.56,1587.01 1598.87,1588.33C1602.18,1589.65 1605.01,1591.45 1607.37,1593.71C1609.74,1595.98 1611.62,1598.67 1613.04,1601.79C1614.46,1604.91 1615.17,1608.27 1615.17,1611.86ZM1565.28,1798.09L1565.28,1656.93L1611.77,1656.93L1611.77,1798.09L1565.28,1798.09Z" style="fill:white;fill-rule:nonzero;"/>
                <path d="M1745.85,1711.35C1745.85,1703.98 1743.53,1697.65 1738.9,1692.36C1734.27,1687.07 1727.33,1684.42 1718.07,1684.42C1713.53,1684.42 1709.37,1685.13 1705.59,1686.55C1701.81,1687.97 1698.51,1689.9 1695.67,1692.36C1692.84,1694.82 1690.57,1697.7 1688.87,1701.01C1687.17,1704.31 1686.22,1707.76 1686.04,1711.35L1745.85,1711.35ZM1788.65,1729.21C1788.65,1731.1 1788.65,1732.99 1788.65,1734.88C1788.65,1736.77 1788.55,1738.57 1788.37,1740.27L1686.04,1740.27C1686.41,1744.23 1687.59,1747.83 1689.58,1751.04C1691.56,1754.25 1694.11,1757.04 1697.23,1759.4C1700.35,1761.76 1703.85,1763.6 1707.72,1764.93C1711.59,1766.25 1715.61,1766.91 1719.77,1766.91C1727.14,1766.91 1733.37,1765.54 1738.48,1762.8C1743.58,1760.06 1747.74,1756.52 1750.95,1752.17L1783.26,1772.58C1776.65,1782.22 1767.91,1789.64 1757.04,1794.83C1746.18,1800.03 1733.56,1802.63 1719.2,1802.63C1708.62,1802.63 1698.6,1800.97 1689.15,1797.67C1679.7,1794.36 1671.44,1789.54 1664.35,1783.21C1657.26,1776.88 1651.69,1769.08 1647.62,1759.83C1643.56,1750.57 1641.53,1739.98 1641.53,1728.08C1641.53,1716.55 1643.52,1706.11 1647.48,1696.75C1651.45,1687.4 1656.84,1679.46 1663.64,1672.94C1670.44,1666.42 1678.48,1661.37 1687.74,1657.78C1697,1654.19 1707.01,1652.39 1717.78,1652.39C1728.18,1652.39 1737.72,1654.14 1746.41,1657.64C1755.11,1661.13 1762.57,1666.19 1768.81,1672.8C1775.04,1679.41 1779.91,1687.45 1783.4,1696.89C1786.9,1706.34 1788.65,1717.12 1788.65,1729.21Z" style="fill:white;fill-rule:nonzero;"/>
                <path d="M1910.26,1798.09L1910.26,1720.99C1910.26,1717.02 1909.92,1713.24 1909.26,1709.65C1908.6,1706.06 1907.52,1702.89 1906,1700.15C1904.49,1697.41 1902.37,1695.24 1899.62,1693.64C1896.88,1692.03 1893.44,1691.23 1889.28,1691.23C1885.12,1691.23 1881.48,1692.03 1878.37,1693.64C1875.25,1695.24 1872.65,1697.46 1870.57,1700.3C1868.49,1703.13 1866.93,1706.39 1865.89,1710.08C1864.85,1713.76 1864.33,1717.59 1864.33,1721.56L1864.33,1798.09L1817.56,1798.09L1817.56,1656.93L1862.63,1656.93L1862.63,1676.49L1863.2,1676.49C1864.9,1673.46 1867.12,1670.49 1869.86,1667.56C1872.6,1664.63 1875.81,1662.12 1879.5,1660.05C1883.18,1657.97 1887.2,1656.27 1891.55,1654.94C1895.89,1653.62 1900.52,1652.96 1905.44,1652.96C1914.88,1652.96 1922.92,1654.66 1929.53,1658.06C1936.14,1661.46 1941.48,1665.86 1945.55,1671.24C1949.61,1676.63 1952.54,1682.82 1954.33,1689.81C1956.13,1696.8 1957.03,1703.79 1957.03,1710.79L1957.03,1798.09L1910.26,1798.09Z" style="fill:white;fill-rule:nonzero;"/>
                <path d="M2042.63,1691.79L2042.63,1745.65C2042.63,1752.27 2043.91,1757.23 2046.46,1760.53C2049.01,1763.84 2053.59,1765.49 2060.21,1765.49C2062.48,1765.49 2064.89,1765.31 2067.44,1764.93C2069.99,1764.55 2072.11,1763.98 2073.81,1763.23L2074.38,1797.24C2071.17,1798.38 2067.11,1799.37 2062.19,1800.22C2057.28,1801.07 2052.37,1801.49 2047.45,1801.49C2038,1801.49 2030.07,1800.31 2023.64,1797.95C2017.22,1795.59 2012.07,1792.19 2008.19,1787.75C2004.32,1783.31 2001.53,1778.01 1999.83,1771.87C1998.13,1765.73 1997.28,1758.88 1997.28,1751.32L1997.28,1691.79L1974.6,1691.79L1974.6,1656.93L1997,1656.93L1997,1619.79L2042.63,1619.79L2042.63,1656.93L2075.8,1656.93L2075.8,1691.79L2042.63,1691.79Z" style="fill:white;fill-rule:nonzero;"/>
                <path d="M2161.41,1798.09L2161.41,1756.14L2256.93,1638.5L2163.67,1638.5L2163.67,1597.4L2317.59,1597.4L2317.59,1636.23L2219.8,1756.14L2319.58,1756.14L2319.58,1798.09L2161.41,1798.09Z" style="fill:white;fill-rule:nonzero;"/>
                <path d="M2439.77,1798.09L2439.77,1778.53L2439.2,1778.53C2437.5,1781.75 2435.28,1784.77 2432.54,1787.6C2429.8,1790.44 2426.59,1792.89 2422.9,1794.97C2419.22,1797.05 2415.15,1798.75 2410.71,1800.08C2406.27,1801.4 2401.59,1802.06 2396.68,1802.06C2387.23,1802.06 2379.25,1800.36 2372.73,1796.96C2366.21,1793.56 2360.92,1789.16 2356.85,1783.78C2352.79,1778.39 2349.86,1772.25 2348.07,1765.35C2346.27,1758.45 2345.37,1751.41 2345.37,1744.23L2345.37,1656.93L2392.14,1656.93L2392.14,1733.46C2392.14,1737.43 2392.43,1741.21 2392.99,1744.8C2393.56,1748.39 2394.65,1751.6 2396.26,1754.44C2397.86,1757.27 2399.99,1759.49 2402.63,1761.1C2405.28,1762.71 2408.78,1763.51 2413.12,1763.51C2421.25,1763.51 2427.44,1760.49 2431.69,1754.44C2435.94,1748.39 2438.07,1741.31 2438.07,1733.18L2438.07,1656.93L2484.55,1656.93L2484.55,1798.09L2439.77,1798.09ZM2470.1,1611.57C2470.1,1618.19 2467.78,1623.71 2463.15,1628.15C2458.52,1632.6 2452.99,1634.82 2446.57,1634.82C2439.96,1634.82 2434.38,1632.55 2429.85,1628.01C2425.31,1623.48 2423.04,1618 2423.04,1611.57C2423.04,1608.55 2423.66,1605.67 2424.89,1602.93C2426.11,1600.19 2427.77,1597.73 2429.85,1595.56C2431.92,1593.38 2434.38,1591.68 2437.22,1590.45C2440.05,1589.23 2443.17,1588.61 2446.57,1588.61C2452.99,1588.61 2458.52,1590.83 2463.15,1595.27C2467.78,1599.71 2470.1,1605.15 2470.1,1611.57ZM2408.59,1611.57C2408.59,1618.19 2406.27,1623.71 2401.64,1628.15C2397.01,1632.6 2391.39,1634.82 2384.78,1634.82C2378.16,1634.82 2372.59,1632.55 2368.05,1628.01C2363.51,1623.48 2361.25,1618 2361.25,1611.57C2361.25,1608.55 2361.86,1605.67 2363.09,1602.93C2364.32,1600.19 2365.97,1597.73 2368.05,1595.56C2370.13,1593.38 2372.63,1591.68 2375.56,1590.45C2378.49,1589.23 2381.56,1588.61 2384.78,1588.61C2391.39,1588.61 2397.01,1590.83 2401.64,1595.27C2406.27,1599.71 2408.59,1605.15 2408.59,1611.57Z" style="fill:white;fill-rule:nonzero;"/>
                <path d="M2612.4,1694.91C2610.32,1694.34 2608.29,1693.97 2606.3,1693.78C2604.32,1693.59 2602.38,1693.49 2600.49,1693.49C2594.26,1693.49 2589.01,1694.63 2584.76,1696.89C2580.51,1699.16 2577.11,1701.9 2574.55,1705.12C2572,1708.33 2570.16,1711.83 2569.03,1715.6C2567.89,1719.38 2567.33,1722.69 2567.33,1725.53L2567.33,1798.09L2520.84,1798.09L2520.84,1656.93L2565.62,1656.93L2565.62,1677.34L2566.19,1677.34C2569.78,1670.15 2574.89,1664.3 2581.5,1659.76C2588.11,1655.23 2595.77,1652.96 2604.46,1652.96C2606.35,1652.96 2608.19,1653.05 2609.99,1653.24C2611.78,1653.43 2613.25,1653.71 2614.38,1654.09L2612.4,1694.91Z" style="fill:white;fill-rule:nonzero;"/>
                <path d="M2683.55,1611.86C2683.55,1615.45 2682.84,1618.8 2681.42,1621.92C2680,1625.04 2678.11,1627.73 2675.75,1630C2673.39,1632.27 2670.55,1634.06 2667.25,1635.38C2663.94,1636.71 2660.49,1637.37 2656.9,1637.37C2649.34,1637.37 2643.01,1634.86 2637.91,1629.86C2632.81,1624.85 2630.26,1618.85 2630.26,1611.86C2630.26,1608.45 2630.92,1605.19 2632.24,1602.08C2633.56,1598.96 2635.45,1596.27 2637.91,1594C2640.37,1591.73 2643.2,1589.89 2646.41,1588.47C2649.62,1587.05 2653.12,1586.34 2656.9,1586.34C2660.49,1586.34 2663.94,1587.01 2667.25,1588.33C2670.55,1589.65 2673.39,1591.45 2675.75,1593.71C2678.11,1595.98 2680,1598.67 2681.42,1601.79C2682.84,1604.91 2683.55,1608.27 2683.55,1611.86ZM2633.66,1798.09L2633.66,1656.93L2680.14,1656.93L2680.14,1798.09L2633.66,1798.09Z" style="fill:white;fill-rule:nonzero;"/>
                <path d="M2814.22,1702.57C2811.58,1699.16 2807.99,1696.42 2803.45,1694.34C2798.92,1692.27 2794.29,1691.23 2789.56,1691.23C2784.65,1691.23 2780.21,1692.22 2776.24,1694.2C2772.27,1696.19 2768.87,1698.83 2766.03,1702.14C2763.2,1705.45 2760.98,1709.27 2759.37,1713.62C2757.77,1717.97 2756.96,1722.6 2756.96,1727.51C2756.96,1732.42 2757.72,1737.05 2759.23,1741.4C2760.74,1745.75 2762.96,1749.57 2765.89,1752.88C2768.82,1756.19 2772.32,1758.79 2776.38,1760.67C2780.44,1762.57 2785.03,1763.51 2790.13,1763.51C2794.85,1763.51 2799.53,1762.61 2804.16,1760.82C2808.79,1759.02 2812.52,1756.42 2815.36,1753.02L2841.15,1784.49C2835.29,1790.15 2827.74,1794.6 2818.48,1797.81C2809.22,1801.02 2799.39,1802.63 2788.99,1802.63C2777.85,1802.63 2767.45,1800.93 2757.81,1797.53C2748.18,1794.12 2739.81,1789.16 2732.73,1782.64C2725.64,1776.12 2720.07,1768.23 2716,1758.97C2711.94,1749.71 2709.91,1739.23 2709.91,1727.51C2709.91,1715.98 2711.94,1705.59 2716,1696.33C2720.07,1687.07 2725.64,1679.18 2732.73,1672.66C2739.81,1666.14 2748.18,1661.13 2757.81,1657.64C2767.45,1654.14 2777.75,1652.39 2788.71,1652.39C2793.81,1652.39 2798.87,1652.86 2803.88,1653.81C2808.89,1654.75 2813.7,1656.03 2818.33,1657.64C2822.96,1659.24 2827.22,1661.23 2831.09,1663.59C2834.96,1665.95 2838.32,1668.55 2841.15,1671.38L2814.22,1702.57Z" style="fill:white;fill-rule:nonzero;"/>
                <path d="M2952.55,1798.09L2952.55,1721.56C2952.55,1717.59 2952.27,1713.81 2951.7,1710.22C2951.14,1706.63 2950.05,1703.46 2948.44,1700.72C2946.84,1697.98 2944.71,1695.81 2942.07,1694.2C2939.42,1692.6 2936.02,1691.79 2931.86,1691.79C2923.74,1691.79 2917.5,1694.67 2913.15,1700.44C2908.81,1706.2 2906.63,1713.34 2906.63,1721.84L2906.63,1798.09L2860.14,1798.09L2860.14,1583.79L2906.63,1583.79L2906.63,1674.79L2907.2,1674.79C2910.41,1669.12 2915.51,1664.06 2922.51,1659.62C2929.5,1655.18 2937.91,1652.96 2947.74,1652.96C2957.37,1652.96 2965.45,1654.66 2971.97,1658.06C2978.49,1661.46 2983.78,1665.86 2987.85,1671.24C2991.91,1676.63 2994.84,1682.82 2996.63,1689.81C2998.43,1696.8 2999.33,1703.79 2999.33,1710.79L2999.33,1798.09L2952.55,1798.09Z" style="fill:white;fill-rule:nonzero;"/>
            </g>
            <g transform="matrix(0.298134,0,0,0.298134,972.46,-367.005)">
                <path d="M1203.72,1798.09L1155.25,1798.09L1079.28,1597.4L1133.7,1597.4L1180.19,1739.7L1181.33,1739.7L1227.53,1597.4L1281.11,1597.4L1203.72,1798.09Z" style="fill:white;fill-rule:nonzero;"/>
                <path d="M1432.76,1726.94C1432.76,1738.47 1430.68,1748.91 1426.52,1758.27C1422.37,1767.62 1416.7,1775.56 1409.52,1782.08C1402.33,1788.6 1394.02,1793.65 1384.57,1797.24C1375.12,1800.83 1365.01,1802.63 1354.24,1802.63C1343.66,1802.63 1333.59,1800.83 1324.05,1797.24C1314.51,1793.65 1306.19,1788.6 1299.11,1782.08C1292.02,1775.56 1286.4,1767.62 1282.24,1758.27C1278.08,1748.91 1276,1738.47 1276,1726.94C1276,1715.41 1278.08,1705.02 1282.24,1695.76C1286.4,1686.5 1292.02,1678.66 1299.11,1672.23C1306.19,1665.81 1314.51,1660.89 1324.05,1657.49C1333.59,1654.09 1343.66,1652.39 1354.24,1652.39C1365.01,1652.39 1375.12,1654.09 1384.57,1657.49C1394.02,1660.89 1402.33,1665.81 1409.52,1672.23C1416.7,1678.66 1422.37,1686.5 1426.52,1695.76C1430.68,1705.02 1432.76,1715.41 1432.76,1726.94ZM1387.97,1726.94C1387.97,1722.41 1387.22,1717.97 1385.7,1713.62C1384.19,1709.27 1382.02,1705.45 1379.18,1702.14C1376.35,1698.83 1372.85,1696.14 1368.7,1694.06C1364.54,1691.98 1359.72,1690.94 1354.24,1690.94C1348.76,1690.94 1343.94,1691.98 1339.78,1694.06C1335.62,1696.14 1332.18,1698.83 1329.44,1702.14C1326.7,1705.45 1324.62,1709.27 1323.2,1713.62C1321.78,1717.97 1321.07,1722.41 1321.07,1726.94C1321.07,1731.48 1321.78,1735.92 1323.2,1740.27C1324.62,1744.61 1326.74,1748.53 1329.58,1752.03C1332.41,1755.53 1335.91,1758.31 1340.07,1760.39C1344.22,1762.47 1349.04,1763.51 1354.52,1763.51C1360,1763.51 1364.82,1762.47 1368.98,1760.39C1373.14,1758.31 1376.63,1755.53 1379.47,1752.03C1382.3,1748.53 1384.43,1744.61 1385.85,1740.27C1387.26,1735.92 1387.97,1731.48 1387.97,1726.94Z" style="fill:white;fill-rule:nonzero;"/>
                <path d="M1555.22,1798.09L1555.22,1778.53L1554.65,1778.53C1552.95,1781.75 1550.73,1784.77 1547.99,1787.6C1545.25,1790.44 1542.04,1792.89 1538.35,1794.97C1534.66,1797.05 1530.6,1798.75 1526.16,1800.08C1521.72,1801.4 1517.04,1802.06 1512.13,1802.06C1502.68,1802.06 1494.7,1800.36 1488.18,1796.96C1481.66,1793.56 1476.37,1789.16 1472.3,1783.78C1468.24,1778.39 1465.31,1772.25 1463.52,1765.35C1461.72,1758.45 1460.82,1751.41 1460.82,1744.23L1460.82,1656.93L1507.59,1656.93L1507.59,1733.46C1507.59,1737.43 1507.88,1741.21 1508.44,1744.8C1509.01,1748.39 1510.1,1751.6 1511.7,1754.44C1513.31,1757.27 1515.44,1759.49 1518.08,1761.1C1520.73,1762.71 1524.22,1763.51 1528.57,1763.51C1536.7,1763.51 1542.88,1760.49 1547.14,1754.44C1551.39,1748.39 1553.52,1741.31 1553.52,1733.18L1553.52,1656.93L1600,1656.93L1600,1798.09L1555.22,1798.09Z" style="fill:white;fill-rule:nonzero;"/>
                <path d="M1733.52,1702.57C1730.87,1699.16 1727.28,1696.42 1722.74,1694.34C1718.21,1692.27 1713.58,1691.23 1708.85,1691.23C1703.94,1691.23 1699.5,1692.22 1695.53,1694.2C1691.56,1696.19 1688.16,1698.83 1685.33,1702.14C1682.49,1705.45 1680.27,1709.27 1678.66,1713.62C1677.06,1717.97 1676.26,1722.6 1676.26,1727.51C1676.26,1732.42 1677.01,1737.05 1678.52,1741.4C1680.04,1745.75 1682.26,1749.57 1685.18,1752.88C1688.11,1756.19 1691.61,1758.79 1695.67,1760.67C1699.74,1762.57 1704.32,1763.51 1709.42,1763.51C1714.14,1763.51 1718.82,1762.61 1723.45,1760.82C1728.08,1759.02 1731.81,1756.42 1734.65,1753.02L1760.44,1784.49C1754.59,1790.15 1747.03,1794.6 1737.77,1797.81C1728.51,1801.02 1718.68,1802.63 1708.29,1802.63C1697.14,1802.63 1686.74,1800.93 1677.11,1797.53C1667.47,1794.12 1659.11,1789.16 1652.02,1782.64C1644.93,1776.12 1639.36,1768.23 1635.29,1758.97C1631.23,1749.71 1629.2,1739.23 1629.2,1727.51C1629.2,1715.98 1631.23,1705.59 1635.29,1696.33C1639.36,1687.07 1644.93,1679.18 1652.02,1672.66C1659.11,1666.14 1667.47,1661.13 1677.11,1657.64C1686.74,1654.14 1697.04,1652.39 1708,1652.39C1713.11,1652.39 1718.16,1652.86 1723.17,1653.81C1728.18,1654.75 1733,1656.03 1737.62,1657.64C1742.26,1659.24 1746.51,1661.23 1750.38,1663.59C1754.26,1665.95 1757.61,1668.55 1760.44,1671.38L1733.52,1702.57Z" style="fill:white;fill-rule:nonzero;"/>
                <path d="M1871.85,1798.09L1871.85,1721.56C1871.85,1717.59 1871.56,1713.81 1871,1710.22C1870.43,1706.63 1869.34,1703.46 1867.74,1700.72C1866.13,1697.98 1864,1695.81 1861.36,1694.2C1858.71,1692.6 1855.31,1691.79 1851.15,1691.79C1843.03,1691.79 1836.79,1694.67 1832.44,1700.44C1828.1,1706.2 1825.92,1713.34 1825.92,1721.84L1825.92,1798.09L1779.44,1798.09L1779.44,1583.79L1825.92,1583.79L1825.92,1674.79L1826.49,1674.79C1829.7,1669.12 1834.81,1664.06 1841.8,1659.62C1848.79,1655.18 1857.2,1652.96 1867.03,1652.96C1876.66,1652.96 1884.74,1654.66 1891.26,1658.06C1897.78,1661.46 1903.07,1665.86 1907.14,1671.24C1911.2,1676.63 1914.13,1682.82 1915.92,1689.81C1917.72,1696.8 1918.62,1703.79 1918.62,1710.79L1918.62,1798.09L1871.85,1798.09Z" style="fill:white;fill-rule:nonzero;"/>
                <path d="M2050.99,1711.35C2050.99,1703.98 2048.68,1697.65 2044.05,1692.36C2039.42,1687.07 2032.48,1684.42 2023.22,1684.42C2018.68,1684.42 2014.52,1685.13 2010.74,1686.55C2006.96,1687.97 2003.66,1689.9 2000.82,1692.36C1997.99,1694.82 1995.72,1697.7 1994.02,1701.01C1992.32,1704.31 1991.37,1707.76 1991.18,1711.35L2050.99,1711.35ZM2093.8,1729.21C2093.8,1731.1 2093.8,1732.99 2093.8,1734.88C2093.8,1736.77 2093.7,1738.57 2093.51,1740.27L1991.18,1740.27C1991.56,1744.23 1992.74,1747.83 1994.73,1751.04C1996.71,1754.25 1999.26,1757.04 2002.38,1759.4C2005.5,1761.76 2009,1763.6 2012.87,1764.93C2016.74,1766.25 2020.76,1766.91 2024.92,1766.91C2032.29,1766.91 2038.52,1765.54 2043.62,1762.8C2048.73,1760.06 2052.89,1756.52 2056.1,1752.17L2088.41,1772.58C2081.8,1782.22 2073.06,1789.64 2062.19,1794.83C2051.33,1800.03 2038.71,1802.63 2024.35,1802.63C2013.77,1802.63 2003.75,1800.97 1994.3,1797.67C1984.85,1794.36 1976.59,1789.54 1969.5,1783.21C1962.41,1776.88 1956.84,1769.08 1952.78,1759.83C1948.71,1750.57 1946.68,1739.98 1946.68,1728.08C1946.68,1716.55 1948.66,1706.11 1952.63,1696.75C1956.6,1687.4 1961.99,1679.46 1968.79,1672.94C1975.59,1666.42 1983.62,1661.37 1992.88,1657.78C2002.14,1654.19 2012.16,1652.39 2022.93,1652.39C2033.33,1652.39 2042.87,1654.14 2051.56,1657.64C2060.26,1661.13 2067.72,1666.19 2073.96,1672.8C2080.19,1679.41 2085.06,1687.45 2088.55,1696.89C2092.05,1706.34 2093.8,1717.12 2093.8,1729.21Z" style="fill:white;fill-rule:nonzero;"/>
                <path d="M2214.27,1694.91C2212.19,1694.34 2210.16,1693.97 2208.18,1693.78C2206.19,1693.59 2204.26,1693.49 2202.37,1693.49C2196.13,1693.49 2190.89,1694.63 2186.63,1696.89C2182.38,1699.16 2178.98,1701.9 2176.43,1705.12C2173.88,1708.33 2172.03,1711.83 2170.9,1715.6C2169.77,1719.38 2169.2,1722.69 2169.2,1725.53L2169.2,1798.09L2122.71,1798.09L2122.71,1656.93L2167.5,1656.93L2167.5,1677.34L2168.07,1677.34C2171.66,1670.15 2176.76,1664.3 2183.37,1659.76C2189.99,1655.23 2197.64,1652.96 2206.33,1652.96C2208.22,1652.96 2210.07,1653.05 2211.86,1653.24C2213.66,1653.43 2215.12,1653.71 2216.26,1654.09L2214.27,1694.91Z" style="fill:white;fill-rule:nonzero;"/>
            </g>
            <g transform="matrix(0.298134,0,0,0.298134,971.742,-250.352)">
                <path d="M307.263,1681.59L276.082,1681.59L276.082,1798.09L256.806,1798.09L256.806,1681.59L229.027,1681.59L229.027,1665.43L256.806,1665.43L256.806,1629.15C256.806,1614.03 260.491,1602.12 267.861,1593.43C275.231,1584.74 286.57,1580.39 301.877,1580.39C304.334,1580.39 306.979,1580.53 309.814,1580.82C312.649,1581.1 315.294,1581.62 317.751,1582.38L314.35,1599.38C312.271,1598.82 310.192,1598.34 308.113,1597.97C306.035,1597.59 303.672,1597.4 301.027,1597.4C295.924,1597.4 291.72,1598.25 288.413,1599.95C285.105,1601.65 282.554,1604.06 280.759,1607.18C278.964,1610.3 277.735,1613.93 277.074,1618.09C276.413,1622.25 276.082,1626.69 276.082,1631.41L276.082,1665.43L307.263,1665.43L307.263,1681.59Z" style="fill:white;fill-rule:nonzero;"/>
                <path d="M466.57,1731.76C466.57,1741.78 464.822,1751.04 461.326,1759.54C457.83,1768.05 452.964,1775.41 446.727,1781.65C440.491,1787.89 433.027,1792.75 424.334,1796.25C415.641,1799.75 406.098,1801.49 395.704,1801.49C385.499,1801.49 376.05,1799.75 367.357,1796.25C358.665,1792.75 351.2,1787.89 344.964,1781.65C338.727,1775.41 333.861,1768.05 330.365,1759.54C326.869,1751.04 325.121,1741.78 325.121,1731.76C325.121,1721.75 326.869,1712.49 330.365,1703.98C333.861,1695.48 338.727,1688.11 344.964,1681.87C351.2,1675.64 358.665,1670.77 367.357,1667.27C376.05,1663.78 385.499,1662.03 395.704,1662.03C406.098,1662.03 415.641,1663.78 424.334,1667.27C433.027,1670.77 440.491,1675.64 446.727,1681.87C452.964,1688.11 457.83,1695.48 461.326,1703.98C464.822,1712.49 466.57,1721.75 466.57,1731.76ZM446.161,1731.76C446.161,1724.39 444.979,1717.45 442.617,1710.93C440.255,1704.41 436.901,1698.74 432.554,1693.92C428.208,1689.1 422.916,1685.27 416.68,1682.44C410.444,1679.6 403.452,1678.19 395.704,1678.19C387.956,1678.19 381.011,1679.6 374.869,1682.44C368.727,1685.27 363.483,1689.1 359.137,1693.92C354.79,1698.74 351.436,1704.41 349.074,1710.93C346.712,1717.45 345.531,1724.39 345.531,1731.76C345.531,1739.13 346.712,1746.08 349.074,1752.6C351.436,1759.12 354.79,1764.79 359.137,1769.6C363.483,1774.42 368.727,1778.2 374.869,1780.94C381.011,1783.68 387.956,1785.05 395.704,1785.05C403.452,1785.05 410.444,1783.68 416.68,1780.94C422.916,1778.2 428.208,1774.42 432.554,1769.6C436.901,1764.79 440.255,1759.12 442.617,1752.6C444.979,1746.08 446.161,1739.13 446.161,1731.76Z" style="fill:white;fill-rule:nonzero;"/>
                <path d="M507.956,1694.63C507.956,1691.04 507.861,1686.41 507.672,1680.74C507.483,1675.07 507.2,1669.97 506.822,1665.43L525.247,1665.43C525.625,1669.02 525.909,1672.99 526.098,1677.34C526.287,1681.68 526.381,1685.27 526.381,1688.11L526.948,1688.11C530.727,1680.36 536.397,1674.08 543.956,1669.26C551.515,1664.44 560.019,1662.03 569.468,1662.03C571.924,1662.03 574.145,1662.12 576.129,1662.31C578.113,1662.5 580.145,1662.88 582.224,1663.45L579.672,1681.59C578.539,1681.21 576.649,1680.83 574.003,1680.45C571.357,1680.08 568.712,1679.89 566.066,1679.89C560.964,1679.89 556.05,1680.83 551.326,1682.72C546.602,1684.61 542.491,1687.59 538.995,1691.65C535.499,1695.71 532.665,1700.91 530.491,1707.24C528.318,1713.57 527.231,1721.18 527.231,1730.06L527.231,1798.09L507.956,1798.09L507.956,1694.63Z" style="fill:white;fill-rule:nonzero;"/>
                <path d="M764.491,1712.49C764.491,1700.96 761.468,1692.36 755.42,1686.69C749.373,1681.02 740.586,1678.19 729.058,1678.19C721.121,1678.19 713.751,1679.6 706.948,1682.44C700.145,1685.27 694.381,1689.05 689.657,1693.78L678.885,1681.02C684.365,1675.54 691.594,1671.01 700.57,1667.41C709.546,1663.83 719.704,1662.03 731.042,1662.03C738.224,1662.03 744.932,1663.02 751.168,1665.01C757.405,1666.99 762.885,1669.97 767.609,1673.93C772.334,1677.9 776.019,1682.91 778.665,1688.96C781.31,1695.01 782.633,1702.09 782.633,1710.22L782.633,1768.33C782.633,1773.43 782.822,1778.72 783.2,1784.2C783.578,1789.68 784.145,1794.31 784.901,1798.09L767.609,1798.09C767.042,1794.88 766.57,1791.38 766.192,1787.6C765.814,1783.83 765.625,1780.14 765.625,1776.55L765.058,1776.55C759.011,1785.43 752.161,1791.81 744.507,1795.68C736.853,1799.56 727.641,1801.49 716.869,1801.49C711.767,1801.49 706.523,1800.79 701.137,1799.37C695.751,1797.95 690.838,1795.64 686.397,1792.42C681.956,1789.21 678.271,1785.05 675.342,1779.95C672.413,1774.85 670.948,1768.61 670.948,1761.24C670.948,1751.04 673.546,1742.96 678.743,1737.01C683.94,1731.05 690.885,1726.61 699.578,1723.68C708.271,1720.75 718.239,1718.86 729.483,1718.01C740.727,1717.16 752.397,1716.74 764.491,1716.74L764.491,1712.49ZM758.822,1731.76C750.885,1731.76 742.901,1732.09 734.869,1732.75C726.838,1733.41 719.562,1734.74 713.042,1736.72C706.523,1738.71 701.184,1741.59 697.027,1745.37C692.869,1749.15 690.79,1754.15 690.79,1760.39C690.79,1765.12 691.688,1769.08 693.483,1772.3C695.279,1775.51 697.688,1778.11 700.712,1780.09C703.735,1782.08 707.09,1783.49 710.775,1784.34C714.46,1785.19 718.192,1785.62 721.972,1785.62C728.775,1785.62 734.822,1784.44 740.113,1782.08C745.405,1779.71 749.846,1776.5 753.436,1772.44C757.027,1768.38 759.767,1763.7 761.657,1758.41C763.546,1753.12 764.491,1747.54 764.491,1741.68L764.491,1731.76L758.822,1731.76Z" style="fill:white;fill-rule:nonzero;"/>
                <path d="M961.783,1798.09L941.373,1798.09L941.373,1615.54L874.192,1615.54L874.192,1597.4L1028.96,1597.4L1028.96,1615.54L961.783,1615.54L961.783,1798.09Z" style="fill:white;fill-rule:nonzero;"/>
                <path d="M1061.28,1695.19C1061.28,1706.53 1063.12,1717.31 1066.81,1727.51C1070.49,1737.71 1075.74,1746.74 1082.54,1754.58C1089.34,1762.42 1097.7,1768.66 1107.62,1773.29C1117.55,1777.92 1128.74,1780.23 1141.22,1780.23C1153.5,1780.23 1164.6,1777.92 1174.52,1773.29C1184.44,1768.66 1192.85,1762.42 1199.75,1754.58C1206.65,1746.74 1211.99,1737.71 1215.77,1727.51C1219.55,1717.31 1221.44,1706.53 1221.44,1695.19C1221.44,1683.86 1219.55,1673.08 1215.77,1662.88C1211.99,1652.67 1206.65,1643.65 1199.75,1635.81C1192.85,1627.97 1184.44,1621.73 1174.52,1617.1C1164.6,1612.47 1153.5,1610.15 1141.22,1610.15C1128.74,1610.15 1117.55,1612.47 1107.62,1617.1C1097.7,1621.73 1089.34,1627.97 1082.54,1635.81C1075.74,1643.65 1070.49,1652.67 1066.81,1662.88C1063.12,1673.08 1061.28,1683.86 1061.28,1695.19ZM1256.02,1798.09L1141.22,1798.09C1126.66,1798.09 1113.2,1795.54 1100.82,1790.44C1088.44,1785.34 1077.72,1778.2 1068.65,1769.04C1059.58,1759.87 1052.49,1749.01 1047.39,1736.44C1042.29,1723.87 1039.74,1710.12 1039.74,1695.19C1039.74,1680.27 1042.29,1666.52 1047.39,1653.95C1052.49,1641.38 1059.58,1630.52 1068.65,1621.35C1077.72,1612.19 1088.44,1605.05 1100.82,1599.95C1113.2,1594.85 1126.66,1592.3 1141.22,1592.3C1155.58,1592.3 1168.95,1594.85 1181.33,1599.95C1193.7,1605.05 1204.43,1612.19 1213.5,1621.35C1222.57,1630.52 1229.66,1641.38 1234.76,1653.95C1239.86,1666.52 1242.41,1680.27 1242.41,1695.19C1242.41,1712.96 1238.49,1729.16 1230.65,1743.81C1222.81,1758.45 1211.04,1770.31 1195.36,1779.38L1195.36,1779.95L1256.02,1779.95L1256.02,1798.09Z" style="fill:white;fill-rule:nonzero;"/>
                <path d="M1468.33,1775.7C1462.66,1784.2 1455.29,1790.63 1446.22,1794.97C1437.15,1799.32 1427.8,1801.49 1418.16,1801.49C1407.77,1801.49 1398.37,1799.7 1389.96,1796.11C1381.55,1792.52 1374.37,1787.6 1368.41,1781.37C1362.46,1775.13 1357.83,1767.76 1354.52,1759.26C1351.22,1750.75 1349.56,1741.59 1349.56,1731.76C1349.56,1721.93 1351.22,1712.77 1354.52,1704.27C1357.83,1695.76 1362.46,1688.39 1368.41,1682.15C1374.37,1675.92 1381.55,1671.01 1389.96,1667.41C1398.37,1663.83 1407.77,1662.03 1418.16,1662.03C1427.8,1662.03 1437.15,1664.25 1446.22,1668.69C1455.29,1673.13 1462.66,1679.7 1468.33,1688.39L1468.9,1688.39L1468.9,1583.79L1488.18,1583.79L1488.18,1798.09L1468.9,1798.09L1468.9,1775.7L1468.33,1775.7ZM1369.97,1731.76C1369.97,1739.13 1371.11,1746.08 1373.37,1752.6C1375.64,1759.12 1378.9,1764.79 1383.15,1769.6C1387.4,1774.42 1392.65,1778.2 1398.88,1780.94C1405.12,1783.68 1412.21,1785.05 1420.14,1785.05C1427.52,1785.05 1434.32,1783.68 1440.55,1780.94C1446.79,1778.2 1452.18,1774.47 1456.71,1769.75C1461.25,1765.02 1464.79,1759.4 1467.34,1752.88C1469.89,1746.36 1471.17,1739.32 1471.17,1731.76C1471.17,1724.2 1469.89,1717.16 1467.34,1710.64C1464.79,1704.12 1461.25,1698.45 1456.71,1693.64C1452.18,1688.82 1446.79,1685.04 1440.55,1682.3C1434.32,1679.56 1427.52,1678.19 1420.14,1678.19C1412.21,1678.19 1405.12,1679.6 1398.88,1682.44C1392.65,1685.27 1387.4,1689.1 1383.15,1693.92C1378.9,1698.74 1375.64,1704.41 1373.37,1710.93C1371.11,1717.45 1369.97,1724.39 1369.97,1731.76Z" style="fill:white;fill-rule:nonzero;"/>
                <path d="M1623.39,1712.49C1623.39,1700.96 1620.37,1692.36 1614.32,1686.69C1608.27,1681.02 1599.48,1678.19 1587.96,1678.19C1580.02,1678.19 1572.65,1679.6 1565.85,1682.44C1559.04,1685.27 1553.28,1689.05 1548.55,1693.78L1537.78,1681.02C1543.26,1675.54 1550.49,1671.01 1559.47,1667.41C1568.44,1663.83 1578.6,1662.03 1589.94,1662.03C1597.12,1662.03 1603.83,1663.02 1610.07,1665.01C1616.3,1666.99 1621.78,1669.97 1626.51,1673.93C1631.23,1677.9 1634.92,1682.91 1637.56,1688.96C1640.21,1695.01 1641.53,1702.09 1641.53,1710.22L1641.53,1768.33C1641.53,1773.43 1641.72,1778.72 1642.1,1784.2C1642.48,1789.68 1643.04,1794.31 1643.8,1798.09L1626.51,1798.09C1625.94,1794.88 1625.47,1791.38 1625.09,1787.6C1624.71,1783.83 1624.52,1780.14 1624.52,1776.55L1623.96,1776.55C1617.91,1785.43 1611.06,1791.81 1603.4,1795.68C1595.75,1799.56 1586.54,1801.49 1575.77,1801.49C1570.66,1801.49 1565.42,1800.79 1560.04,1799.37C1554.65,1797.95 1549.74,1795.64 1545.29,1792.42C1540.85,1789.21 1537.17,1785.05 1534.24,1779.95C1531.31,1774.85 1529.85,1768.61 1529.85,1761.24C1529.85,1751.04 1532.44,1742.96 1537.64,1737.01C1542.84,1731.05 1549.78,1726.61 1558.48,1723.68C1567.17,1720.75 1577.14,1718.86 1588.38,1718.01C1599.62,1717.16 1611.29,1716.74 1623.39,1716.74L1623.39,1712.49ZM1617.72,1731.76C1609.78,1731.76 1601.8,1732.09 1593.77,1732.75C1585.74,1733.41 1578.46,1734.74 1571.94,1736.72C1565.42,1738.71 1560.08,1741.59 1555.92,1745.37C1551.77,1749.15 1549.69,1754.15 1549.69,1760.39C1549.69,1765.12 1550.59,1769.08 1552.38,1772.3C1554.18,1775.51 1556.59,1778.11 1559.61,1780.09C1562.63,1782.08 1565.99,1783.49 1569.67,1784.34C1573.36,1785.19 1577.09,1785.62 1580.87,1785.62C1587.67,1785.62 1593.72,1784.44 1599.01,1782.08C1604.3,1779.71 1608.74,1776.5 1612.33,1772.44C1615.92,1768.38 1618.66,1763.7 1620.55,1758.41C1622.44,1753.12 1623.39,1747.54 1623.39,1741.68L1623.39,1731.76L1617.72,1731.76Z" style="fill:white;fill-rule:nonzero;"/>
                <path d="M1708.43,1665.43C1708.81,1669.02 1709.09,1672.99 1709.28,1677.34C1709.47,1681.68 1709.56,1685.27 1709.56,1688.11L1710.13,1688.11C1713.91,1680.36 1720.05,1674.08 1728.55,1669.26C1737.06,1664.44 1746.04,1662.03 1755.48,1662.03C1772.3,1662.03 1784.92,1667.04 1793.33,1677.05C1801.74,1687.07 1805.94,1700.3 1805.94,1716.74L1805.94,1798.09L1786.66,1798.09L1786.66,1724.67C1786.66,1717.68 1786.1,1711.35 1784.96,1705.68C1783.83,1700.01 1781.89,1695.15 1779.15,1691.08C1776.41,1687.02 1772.73,1683.86 1768.1,1681.59C1763.47,1679.32 1757.66,1678.19 1750.66,1678.19C1745.56,1678.19 1740.6,1679.23 1735.78,1681.31C1730.96,1683.38 1726.66,1686.55 1722.88,1690.8C1719.11,1695.05 1716.08,1700.44 1713.81,1706.96C1711.55,1713.48 1710.41,1721.18 1710.41,1730.06L1710.41,1798.09L1691.14,1798.09L1691.14,1694.63C1691.14,1691.04 1691.04,1686.41 1690.85,1680.74C1690.66,1675.07 1690.38,1669.97 1690,1665.43L1708.43,1665.43Z" style="fill:white;fill-rule:nonzero;"/>
                <path d="M1951.36,1695.76C1948.14,1690.66 1943.47,1686.45 1937.33,1683.15C1931.18,1679.84 1924.52,1678.19 1917.34,1678.19C1909.59,1678.19 1902.6,1679.56 1896.37,1682.3C1890.13,1685.04 1884.79,1688.82 1880.35,1693.64C1875.91,1698.45 1872.51,1704.12 1870.14,1710.64C1867.78,1717.16 1866.6,1724.2 1866.6,1731.76C1866.6,1739.32 1867.78,1746.31 1870.14,1752.74C1872.51,1759.16 1875.86,1764.79 1880.21,1769.6C1884.55,1774.42 1889.85,1778.2 1896.08,1780.94C1902.32,1783.68 1909.31,1785.05 1917.06,1785.05C1925.56,1785.05 1932.74,1783.45 1938.6,1780.23C1944.46,1777.02 1949.28,1772.86 1953.06,1767.76L1967.52,1778.53C1961.85,1785.53 1954.9,1791.1 1946.68,1795.26C1938.46,1799.41 1928.59,1801.49 1917.06,1801.49C1906.29,1801.49 1896.55,1799.75 1887.86,1796.25C1879.17,1792.75 1871.75,1787.89 1865.61,1781.65C1859.47,1775.41 1854.7,1768.05 1851.29,1759.54C1847.89,1751.04 1846.19,1741.78 1846.19,1731.76C1846.19,1721.75 1847.89,1712.49 1851.29,1703.98C1854.7,1695.48 1859.47,1688.11 1865.61,1681.87C1871.75,1675.64 1879.17,1670.77 1887.86,1667.27C1896.55,1663.78 1906.29,1662.03 1917.06,1662.03C1925.94,1662.03 1934.96,1663.97 1944.13,1667.84C1953.29,1671.71 1960.71,1677.43 1966.38,1684.99L1951.36,1695.76Z" style="fill:white;fill-rule:nonzero;"/>
                <path d="M2098.76,1721.56C2098.19,1709.08 2094.18,1698.74 2086.71,1690.52C2079.25,1682.3 2068.62,1678.19 2054.82,1678.19C2048.4,1678.19 2042.44,1679.37 2036.96,1681.73C2031.48,1684.09 2026.66,1687.31 2022.51,1691.37C2018.35,1695.43 2015.04,1700.06 2012.59,1705.26C2010.13,1710.45 2008.71,1715.89 2008.33,1721.56L2098.76,1721.56ZM2118.32,1727.79C2118.32,1729.12 2118.32,1730.53 2118.32,1732.05C2118.32,1733.56 2118.22,1735.16 2118.03,1736.86L2008.05,1736.86C2008.24,1743.48 2009.56,1749.71 2012.02,1755.57C2014.48,1761.43 2017.88,1766.53 2022.22,1770.88C2026.57,1775.23 2031.67,1778.67 2037.53,1781.23C2043.39,1783.78 2049.72,1785.05 2056.52,1785.05C2066.54,1785.05 2075.18,1782.74 2082.46,1778.11C2089.74,1773.48 2095.26,1768.14 2099.04,1762.09L2113.5,1773.43C2105.56,1783.45 2096.82,1790.63 2087.28,1794.97C2077.74,1799.32 2067.48,1801.49 2056.52,1801.49C2046.7,1801.49 2037.58,1799.75 2029.17,1796.25C2020.76,1792.75 2013.53,1787.89 2007.48,1781.65C2001.44,1775.41 1996.66,1768.05 1993.17,1759.54C1989.67,1751.04 1987.92,1741.78 1987.92,1731.76C1987.92,1721.75 1989.62,1712.49 1993.03,1703.98C1996.43,1695.48 2001.15,1688.11 2007.2,1681.87C2013.25,1675.64 2020.33,1670.77 2028.46,1667.27C2036.59,1663.78 2045.37,1662.03 2054.82,1662.03C2065.22,1662.03 2074.38,1663.78 2082.32,1667.27C2090.26,1670.77 2096.87,1675.49 2102.16,1681.45C2107.45,1687.4 2111.47,1694.34 2114.21,1702.28C2116.95,1710.22 2118.32,1718.72 2118.32,1727.79Z" style="fill:white;fill-rule:nonzero;"/>
                <path d="M2326.1,1695.76C2322.89,1690.66 2318.21,1686.45 2312.07,1683.15C2305.92,1679.84 2299.26,1678.19 2292.08,1678.19C2284.33,1678.19 2277.34,1679.56 2271.11,1682.3C2264.87,1685.04 2259.53,1688.82 2255.09,1693.64C2250.65,1698.45 2247.25,1704.12 2244.89,1710.64C2242.52,1717.16 2241.34,1724.2 2241.34,1731.76C2241.34,1739.32 2242.52,1746.31 2244.89,1752.74C2247.25,1759.16 2250.6,1764.79 2254.95,1769.6C2259.29,1774.42 2264.59,1778.2 2270.82,1780.94C2277.06,1783.68 2284.05,1785.05 2291.8,1785.05C2300.3,1785.05 2307.48,1783.45 2313.34,1780.23C2319.2,1777.02 2324.02,1772.86 2327.8,1767.76L2342.26,1778.53C2336.59,1785.53 2329.64,1791.1 2321.42,1795.26C2313.2,1799.41 2303.33,1801.49 2291.8,1801.49C2281.03,1801.49 2271.29,1799.75 2262.6,1796.25C2253.91,1792.75 2246.49,1787.89 2240.35,1781.65C2234.21,1775.41 2229.44,1768.05 2226.03,1759.54C2222.63,1751.04 2220.93,1741.78 2220.93,1731.76C2220.93,1721.75 2222.63,1712.49 2226.03,1703.98C2229.44,1695.48 2234.21,1688.11 2240.35,1681.87C2246.49,1675.64 2253.91,1670.77 2262.6,1667.27C2271.29,1663.78 2281.03,1662.03 2291.8,1662.03C2300.68,1662.03 2309.7,1663.97 2318.87,1667.84C2328.03,1671.71 2335.45,1677.43 2341.12,1684.99L2326.1,1695.76Z" style="fill:white;fill-rule:nonzero;"/>
                <path d="M2504.11,1731.76C2504.11,1741.78 2502.37,1751.04 2498.87,1759.54C2495.37,1768.05 2490.51,1775.41 2484.27,1781.65C2478.03,1787.89 2470.57,1792.75 2461.88,1796.25C2453.18,1799.75 2443.64,1801.49 2433.25,1801.49C2423.04,1801.49 2413.59,1799.75 2404.9,1796.25C2396.21,1792.75 2388.74,1787.89 2382.51,1781.65C2376.27,1775.41 2371.41,1768.05 2367.91,1759.54C2364.41,1751.04 2362.66,1741.78 2362.66,1731.76C2362.66,1721.75 2364.41,1712.49 2367.91,1703.98C2371.41,1695.48 2376.27,1688.11 2382.51,1681.87C2388.74,1675.64 2396.21,1670.77 2404.9,1667.27C2413.59,1663.78 2423.04,1662.03 2433.25,1662.03C2443.64,1662.03 2453.18,1663.78 2461.88,1667.27C2470.57,1670.77 2478.03,1675.64 2484.27,1681.87C2490.51,1688.11 2495.37,1695.48 2498.87,1703.98C2502.37,1712.49 2504.11,1721.75 2504.11,1731.76ZM2483.7,1731.76C2483.7,1724.39 2482.52,1717.45 2480.16,1710.93C2477.8,1704.41 2474.44,1698.74 2470.1,1693.92C2465.75,1689.1 2460.46,1685.27 2454.22,1682.44C2447.99,1679.6 2440.99,1678.19 2433.25,1678.19C2425.5,1678.19 2418.55,1679.6 2412.41,1682.44C2406.27,1685.27 2401.03,1689.1 2396.68,1693.92C2392.33,1698.74 2388.98,1704.41 2386.62,1710.93C2384.26,1717.45 2383.07,1724.39 2383.07,1731.76C2383.07,1739.13 2384.26,1746.08 2386.62,1752.6C2388.98,1759.12 2392.33,1764.79 2396.68,1769.6C2401.03,1774.42 2406.27,1778.2 2412.41,1780.94C2418.55,1783.68 2425.5,1785.05 2433.25,1785.05C2440.99,1785.05 2447.99,1783.68 2454.22,1780.94C2460.46,1778.2 2465.75,1774.42 2470.1,1769.6C2474.44,1764.79 2477.8,1759.12 2480.16,1752.6C2482.52,1746.08 2483.7,1739.13 2483.7,1731.76Z" style="fill:white;fill-rule:nonzero;"/>
                <path d="M2641.88,1798.09C2641.5,1794.5 2641.22,1790.53 2641.03,1786.19C2640.84,1781.84 2640.74,1778.25 2640.74,1775.41L2640.18,1775.41C2636.4,1783.16 2630.26,1789.45 2621.75,1794.27C2613.25,1799.08 2604.27,1801.49 2594.82,1801.49C2578,1801.49 2565.39,1796.49 2556.98,1786.47C2548.57,1776.45 2544.37,1763.23 2544.37,1746.79L2544.37,1665.43L2563.64,1665.43L2563.64,1738.85C2563.64,1745.84 2564.21,1752.17 2565.34,1757.84C2566.48,1763.51 2568.41,1768.38 2571.15,1772.44C2573.89,1776.5 2577.58,1779.67 2582.21,1781.93C2586.84,1784.2 2592.65,1785.34 2599.64,1785.34C2604.74,1785.34 2609.7,1784.3 2614.52,1782.22C2619.34,1780.14 2623.64,1776.97 2627.42,1772.72C2631.2,1768.47 2634.22,1763.08 2636.49,1756.57C2638.76,1750.05 2639.89,1742.34 2639.89,1733.46L2639.89,1665.43L2659.17,1665.43L2659.17,1768.89C2659.17,1772.49 2659.26,1777.12 2659.45,1782.79C2659.64,1788.45 2659.92,1793.56 2660.3,1798.09L2641.88,1798.09Z" style="fill:white;fill-rule:nonzero;"/>
                <path d="M2710.19,1694.63C2710.19,1691.04 2710.1,1686.41 2709.91,1680.74C2709.72,1675.07 2709.44,1669.97 2709.06,1665.43L2727.48,1665.43C2727.86,1669.02 2728.14,1672.99 2728.33,1677.34C2728.52,1681.68 2728.62,1685.27 2728.62,1688.11L2729.18,1688.11C2732.96,1680.36 2738.63,1674.08 2746.19,1669.26C2753.75,1664.44 2762.26,1662.03 2771.7,1662.03C2774.16,1662.03 2776.38,1662.12 2778.37,1662.31C2780.35,1662.5 2782.38,1662.88 2784.46,1663.45L2781.91,1681.59C2780.78,1681.21 2778.89,1680.83 2776.24,1680.45C2773.59,1680.08 2770.95,1679.89 2768.3,1679.89C2763.2,1679.89 2758.29,1680.83 2753.56,1682.72C2748.84,1684.61 2744.73,1687.59 2741.23,1691.65C2737.74,1695.71 2734.9,1700.91 2732.73,1707.24C2730.55,1713.57 2729.47,1721.18 2729.47,1730.06L2729.47,1798.09L2710.19,1798.09L2710.19,1694.63Z" style="fill:white;fill-rule:nonzero;"/>
                <path d="M2882.82,1696.89C2879.99,1691.41 2875.69,1686.93 2869.92,1683.43C2864.16,1679.93 2857.59,1678.19 2850.22,1678.19C2846.82,1678.19 2843.42,1678.57 2840.02,1679.32C2836.62,1680.08 2833.59,1681.31 2830.95,1683.01C2828.3,1684.71 2826.18,1686.88 2824.57,1689.53C2822.96,1692.17 2822.16,1695.29 2822.16,1698.88C2822.16,1705.12 2824.71,1709.89 2829.81,1713.19C2834.92,1716.5 2842.95,1719.29 2853.91,1721.56C2869.59,1724.77 2881.17,1729.45 2888.63,1735.59C2896.1,1741.73 2899.83,1750 2899.83,1760.39C2899.83,1767.95 2898.37,1774.33 2895.44,1779.53C2892.51,1784.72 2888.68,1788.97 2883.96,1792.28C2879.23,1795.59 2873.89,1797.95 2867.94,1799.37C2861.99,1800.79 2855.99,1801.49 2849.94,1801.49C2839.92,1801.49 2830.19,1799.41 2820.74,1795.26C2811.29,1791.1 2803.55,1784.58 2797.5,1775.7L2812.81,1764.36C2816.21,1770.22 2821.22,1775.13 2827.83,1779.1C2834.44,1783.07 2841.72,1785.05 2849.66,1785.05C2853.81,1785.05 2857.78,1784.67 2861.56,1783.92C2865.34,1783.16 2868.65,1781.84 2871.48,1779.95C2874.32,1778.06 2876.59,1775.65 2878.29,1772.72C2879.99,1769.79 2880.84,1766.15 2880.84,1761.81C2880.84,1754.82 2877.48,1749.57 2870.78,1746.08C2864.07,1742.58 2854.38,1739.32 2841.72,1736.3C2837.75,1735.35 2833.55,1734.17 2829.11,1732.75C2824.66,1731.34 2820.55,1729.26 2816.78,1726.52C2812.99,1723.78 2809.88,1720.33 2807.42,1716.17C2804.96,1712.01 2803.74,1706.82 2803.74,1700.58C2803.74,1693.78 2805.06,1687.97 2807.7,1683.15C2810.35,1678.33 2813.89,1674.36 2818.33,1671.24C2822.78,1668.12 2827.83,1665.81 2833.5,1664.3C2839.17,1662.79 2845.03,1662.03 2851.07,1662.03C2860.33,1662.03 2869.31,1664.11 2878,1668.27C2886.7,1672.42 2893.22,1678.28 2897.56,1685.84L2882.82,1696.89Z" style="fill:white;fill-rule:nonzero;"/>
                <path d="M3039.29,1721.56C3038.73,1709.08 3034.71,1698.74 3027.25,1690.52C3019.78,1682.3 3009.15,1678.19 2995.36,1678.19C2988.93,1678.19 2982.98,1679.37 2977.5,1681.73C2972.02,1684.09 2967.2,1687.31 2963.04,1691.37C2958.89,1695.43 2955.58,1700.06 2953.12,1705.26C2950.66,1710.45 2949.25,1715.89 2948.87,1721.56L3039.29,1721.56ZM3058.85,1727.79C3058.85,1729.12 3058.85,1730.53 3058.85,1732.05C3058.85,1733.56 3058.76,1735.16 3058.57,1736.86L2948.59,1736.86C2948.78,1743.48 2950.1,1749.71 2952.55,1755.57C2955.01,1761.43 2958.41,1766.53 2962.76,1770.88C2967.11,1775.23 2972.21,1778.67 2978.07,1781.23C2983.92,1783.78 2990.26,1785.05 2997.06,1785.05C3007.07,1785.05 3015.72,1782.74 3022.99,1778.11C3030.27,1773.48 3035.8,1768.14 3039.58,1762.09L3054.03,1773.43C3046.1,1783.45 3037.36,1790.63 3027.81,1794.97C3018.27,1799.32 3008.02,1801.49 2997.06,1801.49C2987.23,1801.49 2978.11,1799.75 2969.7,1796.25C2961.29,1792.75 2954.07,1787.89 2948.02,1781.65C2941.97,1775.41 2937.2,1768.05 2933.7,1759.54C2930.21,1751.04 2928.46,1741.78 2928.46,1731.76C2928.46,1721.75 2930.16,1712.49 2933.56,1703.98C2936.96,1695.48 2941.69,1688.11 2947.74,1681.87C2953.78,1675.64 2960.87,1670.77 2968.99,1667.27C2977.12,1663.78 2985.91,1662.03 2995.36,1662.03C3005.75,1662.03 3014.92,1663.78 3022.85,1667.27C3030.79,1670.77 3037.41,1675.49 3042.7,1681.45C3047.99,1687.4 3052,1694.34 3054.74,1702.28C3057.48,1710.22 3058.85,1718.72 3058.85,1727.79Z" style="fill:white;fill-rule:nonzero;"/>
            </g>
            <g transform="matrix(0.298134,0,0,0.298134,969.883,-6.90567)">
                <text x="3800px" y="2330px" dominant-baseline="middle" text-anchor="end" style="font-size:80px;fill:white;">Value: {{ percent }}%{{ valid }}</text>
            </g>
            <g transform="matrix(0.910937,0,0,0.646742,-1108.83,-207.921)">
                <rect x="2418.25" y="865" width="807.559" height="177.879" style="fill:rgb(0,0,0);fill-opacity:0.33"/>
            </g>
            <g transform="matrix(0.661092,0,0,0.661092,-15.6532,-60.415)">
                <text x="2234.47px" y="746.567px" text-anchor="middle" style="font-weight:bold;font-family:monospace;font-size:100px;fill:white;">{{ code }}</text>
            </g>
        </g>
    </g>
</svg>
