<?xml version="1.0" encoding="UTF-8" standalone="no"?>
<!-- Created with Inkscape (http://www.inkscape.org/) -->

<svg
   xmlns:dc="http://purl.org/dc/elements/1.1/"
   xmlns:cc="http://creativecommons.org/ns#"
   xmlns:rdf="http://www.w3.org/1999/02/22-rdf-syntax-ns#"
   xmlns:svg="http://www.w3.org/2000/svg"
   xmlns="http://www.w3.org/2000/svg"
   xmlns:sodipodi="http://sodipodi.sourceforge.net/DTD/sodipodi-0.dtd"
   xmlns:inkscape="http://www.inkscape.org/namespaces/inkscape"
   id="svg3004"
   version="1.1"
   inkscape:version="0.48.4 r9939"
   width="127.6"
   height="113.8125"
   xml:space="preserve"
   sodipodi:docname="tq_logo_transparent_background.svg"><metadata
     id="metadata3010"><rdf:RDF><cc:Work
         rdf:about=""><dc:format>image/svg+xml</dc:format><dc:type
           rdf:resource="http://purl.org/dc/dcmitype/StillImage" /></cc:Work></rdf:RDF></metadata><defs
     id="defs3008" /><sodipodi:namedview
     pagecolor="#b64137"
     bordercolor="#666666"
     borderopacity="1"
     objecttolerance="10"
     gridtolerance="10"
     guidetolerance="10"
     inkscape:pageopacity="0"
     inkscape:pageshadow="2"
     inkscape:window-width="1869"
     inkscape:window-height="1056"
     id="namedview3006"
     showgrid="false"
     inkscape:zoom="5.8649867"
     inkscape:cx="86.613407"
     inkscape:cy="59.285695"
     inkscape:window-x="51"
     inkscape:window-y="24"
     inkscape:window-maximized="1"
     inkscape:current-layer="g3012"
     showborder="true"
     borderlayer="false"
     inkscape:showpageshadow="true" /><g
     id="g3012"
     inkscape:groupmode="layer"
     inkscape:label="ink_ext_XXXXXX"
     transform="matrix(1.25,0,0,-1.25,0,113.8125)"><g
       id="g3014"
       transform="scale(0.1,0.1)"><path
         d="m 206.352,74.0625 c -14.747,0 -48.887,-31.0352 -48.887,193.9255 0,172.985 34.14,283.141 34.14,311.832 0,23.282 3.887,37.246 -15.507,37.246 -55.09,0 -152.0355,-89.218 -165.2386,-89.218 C 3.88672,527.848 0,524.742 0,546.48 c 0,24.024 20.9492,120.235 32.5898,141.954 7.7618,14.746 112.4692,42.656 217.1992,42.656 124.883,0 235.82,-33.36 235.82,-69.805 0,-34.14 -38.007,-107.832 -46.543,-107.832 -13.183,0 -45,64.395 -100.839,64.395 -47.325,0 -55.079,-148.164 -55.079,-219.551 0,-199.352 42.657,-297.086 42.657,-311.0509 0,-17.0703 -27.91,-13.1836 -37.989,-13.1836 l -81.464,0"
         style="fill:#fff;fill-opacity:1;fill-rule:nonzero;stroke:none"
         id="path3016" /><path
         d="M 909.875,119.063 C 874.973,79.4922 808.273,62.4219 765.598,62.4219 c -131.875,0 -241.258,96.1911 -241.258,323.4731 0,154.375 51.98,345.195 241.258,345.195 189.277,0 241.252,-190.82 241.252,-345.195 0.78,-51.192 -13.19,-125.661 -41.901,-187.731 37.251,-34.121 55.861,-68.262 55.861,-119.4726 0,-8.5156 0.78,-37.207 -13.18,-37.207 -10.86,0 -25.607,15.5078 -33.36,22.4804 L 909.875,119.063 z M 650.031,404.527 c 0,-148.941 45.742,-212.554 115.567,-212.554 8.535,0 24.824,0.781 38.007,9.316 -46.542,34.902 -76.796,82.988 -76.796,142.711 0,5.449 3.101,42.676 11.64,42.676 12.403,0 12.403,-10.86 12.403,-13.203 15.527,-45.762 63.613,-69.801 113.261,-96.188 13.961,44.996 17.047,92.32 17.047,138.863 0,76.036 -10.836,204.805 -115.562,204.805 -100.84,0 -115.567,-138.086 -115.567,-216.426"
         style="fill:#fff;fill-opacity:1;fill-rule:nonzero;stroke:none"
         id="path3018" /><path
         d="m 701.16,51.1719 c 0,0 -9.312,7.1094 -23.551,11.2304 0,0 -10.175,6.0547 -17.738,17.7344 0,0 -9.297,7.5391 -12.965,9.4922 0,0 0.567,13.3981 -0.234,17.0701 -0.766,3.653 -9.356,11.035 -10.567,14.903 -1.234,3.906 -3.734,62.207 -16.132,124.902 -4.004,20.273 -13.828,73.789 -24.2,85.309 -10.371,11.523 -20.039,65.683 -48.285,101.425 0,0 5.043,9.082 5.043,9.942 l -6.039,9.082 40.18,-2.598 c 0,0 0.586,-6.914 11.109,-6.211 0,0 12.817,2.91 16.996,17.031 0,0 0.293,11.661 -0.429,15.547 0,0 7.207,10.371 7.207,29.395 0,0 -1.02,33.711 -4.043,60.078 0,0 1.519,27.012 2.597,33.066 0,0 -0.644,21.387 -15.566,27.227 0,0 -28.09,9.941 -34.785,21.621 0,0 -3.672,11.016 5.625,25.918 0,0 7.558,12.539 8.418,21.172 0,0 -5.977,-8.574 -7.563,-8.633 -1.582,-0.078 -4.312,4.746 -6.05,11.035 0,0 -1.739,4.746 -0.43,8.613 0,0 3.023,11.036 -0.645,15.586 0,0 1.715,20.743 0.43,22.891 0,0 -10.605,21.406 -29.18,24.219 0,0 -29.402,5.84 -39.324,-19.024 0,0 -5.195,-33.711 3.867,-59.648 0,0 2.598,-3.672 4.102,-4.531 0,0 -0.274,-4.434 -1.27,-5.411 -1.035,-0.976 -17.519,1.309 -24.433,0.645 0,0 0,-3.887 14.043,-18.574 0,0 0.996,-6.406 0,-8.223 -0.996,-1.797 -3.887,-1.933 -10.157,-6.035 0,0 -18.789,-3.027 -21.757,-0.664 -2.95,2.383 -4.903,83.242 -5.723,114.961 -0.82,31.699 -6.27,44.219 -7.109,55.996 -0.821,11.758 -2.149,19.219 -0.215,37.598 0,0 4.277,1.015 5.683,2.675 1.387,1.7 7.52,9.629 13.575,11.371 0,0 10.585,2.586 11.23,5.606 0,0 -0.215,2.391 -0.645,3.465 0,0 19.649,4.98 23.34,12.109 0,0 0.801,2.52 -5.547,1.582 0,0 2.5,5.219 -1.621,6.098 l -15.976,-4.336 -10.137,-2.777 23.906,15.714 c 0,0 4.61,11.094 -20.879,-5.265 -4.179,-3.094 -5.918,-2.52 -11.679,-6.473 0,0 -20.742,-14.922 -31.328,-32.64 0,0 -2.383,-23.77 -5.196,-37.598 0,0 -4.746,-44.531 -2.812,-63.965 0,0 0.429,-7.793 -0.43,-10.371 0,0 -15.898,3.34 -24.629,0.195 0,0 -37.597,-8.847 -41.504,-45.801 0,0 -1.308,-6.718 -4.316,-10.39 -3.027,-3.672 -12.109,-25.703 13.183,-41.699 0,0 8.438,-3.457 16.211,-3.457 7.539,0 11.348,-8.75 14.473,-9.297 l 0.43,-4.981 c 0,0 -7.793,0.449 -21.817,3.692 0,0 -16.113,0.976 -40.351,1.074 -13.731,0.078 -33.613,1.484 -45.879,-1.738 0,0 -18.067,-4.161 -29.317,-4.297 -12.382,-0.176 -29.042,-0.293 -47.402,-9.512 0,0 -12.305,-1.855 -26.601,-2.168 -14.161,-0.332 -12.872,-6.914 -7.032,-6.914 0,0 26.582,0.762 19.375,-1.309 0,0 -23.281,0.118 -30.918,-4.101 -4.023,-1.719 -4.746,-5.84 5.196,-4.317 0,0 -14.59,-7.578 -6.328,-8.437 0,0 8.418,1.894 17.402,2.812 -9.395,-3.457 -19.609,-12.968 -7.949,-11.679 0,0 28.613,7.246 38.672,2.832 0,0 3.242,0.527 0.429,-14.492 0,0 -3.867,-11.446 5.098,-12.207 0,0 4.004,7.773 6.601,22.91 0,0 7.657,19.785 43.985,16.308 0,0 44.648,-2.871 67.988,-0.566 0,0 40.899,1.426 53.008,-2.598 0,0 -14.121,-35.156 13.848,-72.89 0,0 19.882,-48.711 -6.348,-80.684 0,0 -16.582,-23.047 -18.731,-52.168 -1.269,-24.492 -20.878,-25.059 -36.015,-38.047 0,0 -18.164,-12.949 -23.047,-36.871 0,0 -22.773,-12.676 -27.383,-20.176 0,0 -8.926,-8.047 -7.773,-9.804 0,0 10.664,-20.157 22.754,-13.516 0,0 13.554,11.523 19.316,8.906 0,0 35.723,-20.449 55.332,-16.816 0,0 5.176,-16.875 -4.902,-47.715 0,0 -8.36,-22.188 -12.11,-31.973 0,0 -1.172,-0.82 -1.797,-8.3 l -2.089,-3.809 c 0,0 -6.192,-32.637 -6.621,-41.953 0,0 -3.477,-28.301 -13.204,-50.3322 0,0 -13.066,-35.6055 -13.613,-37.6758 -0.527,-2.0313 6.914,-3.1641 6.914,-3.1641 0,0 -1.445,-10.5078 -5.117,-16.5625 0,0 -10.352,-14.707 7.5,-15.2148 l 25.723,-0.2149 c -0.02,-3.04686 0,-8.59373 -0.215,-11.3671687 l 6.816,0 c 0,0 -0.019,10.8202687 0.43,18.5742687 l 4.18,5.8593 c 2.871,-2.9687 8.535,-9.5703 19.628,-23.867162 0,0 4.161,-1.289063 39.336,0 0,0 2.442,1.015622 1.133,6.074222 0,0 8.653,-6.50391 16.153,-5.800785 0,0 5.898,3.183595 1.152,11.542925 0,0 -5.703,6.5625 -3.965,24.2774 0,0 2.813,21.6016 2.598,30.4687 0,0 6.699,33.6916 12.754,44.7266 0,0 31.113,63.75 32.832,77.813 0,0 15.781,63.32 16.64,77.792 0,0 12.325,1.094 14.93,2.383 L 585.109,55.4688 c 0,0 3.457,0 4.317,0.2539 0,0 -1.524,-14.2969 0,-19.043 0,0 27.715,-1.9531 35.484,1.5234 0,0 0.16,1.5039 1.039,6.4844 0,0 15.957,4.8438 28.496,-4.3359 0,0 11.485,-1.9532 40.645,0.4297 0,0 11.68,1.289 6.07,10.3906 z M 458.305,217.988 c 0,0 -20.235,-30.312 -22.032,-53.593 -1.835,-23.262 -3.613,-52.461 -6.796,-64.8247 -3.164,-12.4023 -6.895,-15.039 -19.356,-26.1523 0,0 0.645,16.2109 5.606,27.227 0,0 4.336,12.128 5.195,29.375 0,0 1.387,17.949 12.461,42.148 0,0 7.637,15.801 10.019,27.656 0,0 2.578,24.864 13.809,36.758 0,0 4.551,-11.23 1.094,-18.594"
         style="fill:#000;fill-opacity:1;fill-rule:nonzero;stroke:none"
         id="path3020" /></g></g></svg>