<?xml version="1.0" encoding="UTF-8" standalone="no"?><!DOCTYPE svg PUBLIC "-//W3C//DTD SVG 1.1//EN" "http://www.w3.org/Graphics/SVG/1.1/DTD/svg11.dtd"><svg width="100%" height="100%" viewBox="0 0 4053 916" version="1.1" xmlns="http://www.w3.org/2000/svg" xmlns:xlink="http://www.w3.org/1999/xlink" xml:space="preserve" xmlns:serif="http://www.serif.com/" style="fill-rule:evenodd;clip-rule:evenodd;stroke-linejoin:round;stroke-miterlimit:2;"><g id="tanzquotient"><path id="tanz" d="M97.216,0c-8.183,0 -15.594,2.103 -22.227,5.981c-6.636,3.762 -11.722,8.739 -15.262,14.93c-3.54,5.982 -5.75,13.154 -6.635,21.566c-0.655,8.177 -1.005,19.579 -1.005,34.171l0,54.406l-9.953,0c-13.713,0 -24.219,3.108 -31.517,9.299c-7.077,5.982 -10.617,13.716 -10.617,23.225c0,9.509 3.428,17.36 10.285,23.556c6.855,6.192 16.809,9.276 29.858,9.276l11.944,0l0,173.84c0,28.088 2.219,50.537 6.635,67.346c4.645,16.799 14.265,29.969 28.863,39.479c14.598,9.509 36.051,14.276 64.36,14.276c29.858,0 52.749,-3.879 68.674,-11.613c15.925,-7.733 23.886,-18.902 23.886,-33.507c0,-8.621 -2.986,-15.818 -8.958,-21.565c-5.75,-5.982 -12.276,-8.949 -19.572,-8.949c-5.087,0 -12.164,0.934 -21.232,2.991c-9.068,1.868 -16.257,2.663 -21.563,2.663c-9.731,0 -16.808,-2.337 -21.231,-6.963c-4.201,-4.859 -6.856,-11.051 -7.963,-18.574c-0.888,-7.734 -1.332,-18.692 -1.332,-32.844l0,-166.54l16.921,0c17.913,0 31.627,-2.43 41.138,-7.29c9.731,-4.86 14.595,-13.388 14.595,-25.545c0,-9.509 -3.427,-17.243 -10.285,-23.224c-6.635,-6.192 -16.367,-9.299 -29.194,-9.299l-33.176,0l0,-61.706c0,-15.257 -0.888,-26.984 -2.654,-35.166c-1.542,-8.412 -5.418,-15.491 -11.612,-21.239c-9.29,-8.621 -19.685,-12.944 -31.185,-12.944l0.014,-0.037Zm335.736,122.416c-35.609,0 -65.356,4.86 -89.242,14.603c-23.887,9.743 -41.47,22.127 -52.749,37.157c-11.281,15.047 -16.921,30.521 -16.921,46.447c0,10.163 3.65,18.574 10.949,25.212c7.518,6.426 16.367,9.626 26.54,9.626c11.28,0 18.577,-2.102 21.895,-5.981c3.537,-4.205 9.399,-12.71 17.582,-25.544c8.404,-12.827 18.357,-22.454 29.858,-28.865c11.722,-6.402 29.084,-9.626 52.085,-9.626c26.762,0 44.345,5.631 52.749,16.916c8.626,11.051 13.491,28.53 14.598,52.418c-19.021,5.538 -36.714,10.281 -53.08,14.253c-16.145,3.761 -35.609,7.967 -58.389,12.617c-22.781,4.649 -37.046,7.64 -42.796,8.948c-27.426,5.982 -48.99,17.687 -64.693,35.164c-15.703,17.477 -23.554,38.596 -23.554,63.367c0,18.365 4.754,35.386 14.266,51.089c9.51,15.701 23.003,28.199 40.474,37.489c17.694,9.065 38.152,13.598 61.375,13.598c25.434,0 48.325,-4.206 68.673,-12.617c20.568,-8.622 41.801,-21.449 63.697,-38.484c10.173,16.589 19.794,29.306 28.863,38.152c9.067,8.622 18.245,12.944 27.535,12.944c11.059,0 20.9,-3.762 29.526,-11.285c8.846,-7.734 13.271,-16.262 13.271,-25.545c0,-5.303 -2.876,-17.149 -8.626,-35.497c-5.53,-18.575 -8.294,-36.384 -8.294,-53.414c0.22,-18.131 0.327,-34.612 0.327,-49.43c0.22,-14.813 0.327,-32.844 0.327,-54.078c0,-33.617 -4.755,-60.6 -14.266,-80.946c-9.29,-20.351 -25.324,-35.166 -48.105,-44.456c-22.78,-9.509 -54.076,-14.276 -93.886,-14.276l0.011,0.044Zm287.299,0.701c-13.049,0 -23.334,4.322 -30.853,12.944c-7.519,8.411 -11.28,21.238 -11.28,38.483l0,261.756c0,17.687 4.201,31.295 12.607,40.807c8.404,9.509 19.131,14.252 32.18,14.252c13.491,0 24.44,-4.533 32.844,-13.598c8.627,-9.299 12.94,-23.108 12.94,-41.47l0,-113.461c0,-36.934 2.219,-62.147 6.635,-75.64c6.194,-16.8 15.923,-29.968 29.194,-39.48c13.272,-9.742 27.978,-14.602 44.124,-14.602c24.771,0 41.248,7.967 49.431,23.885c8.405,15.701 12.608,38.484 12.608,68.342l0,150.949c0,17.687 4.203,31.295 12.607,40.806c8.405,9.51 19.353,14.253 32.844,14.253c13.271,0 23.997,-4.65 32.18,-13.926c8.405,-9.299 12.608,-23.014 12.608,-41.138l0,-168.531c0,-19.906 -0.888,-36.273 -2.654,-49.101c-1.776,-12.827 -5.641,-24.771 -11.613,-35.829c-9.289,-19.019 -23.334,-33.729 -42.132,-44.124c-18.799,-10.397 -40.142,-15.584 -64.029,-15.584c-24.55,0 -46.335,4.976 -65.355,14.93c-18.8,9.743 -36.162,25.103 -52.086,46.114l0,-10.958c0,-10.841 -1.986,-20.023 -5.972,-27.537c-3.759,-7.524 -8.846,-13.154 -15.259,-16.916c-6.414,-3.762 -13.603,-5.631 -21.564,-5.631l-0.005,0.005Zm384.172,7.967c-13.271,0 -23.554,3.084 -30.853,9.276c-7.077,6.191 -10.617,14.486 -10.617,24.883c0,14.159 4.755,22.897 14.267,26.208c9.509,3.318 23.554,4.977 42.133,4.977l134.692,0c-5.531,7.733 -12.94,17.033 -22.227,27.867c-9.068,10.841 -20.568,24.107 -34.503,39.811c-13.934,15.49 -29.084,32.18 -45.45,50.093c-16.145,17.921 -34.171,37.933 -54.076,60.05c-18.799,21.005 -31.185,35.495 -37.156,43.458c-5.972,7.734 -8.958,15.491 -8.958,23.224c0,13.038 4.203,23.341 12.607,30.853c8.626,7.524 21.563,11.285 38.815,11.285l143.588,0l37.447,-70.664l-113.025,0l165.877,-185.449c6.194,-6.636 11.391,-12.267 15.594,-16.916c4.201,-4.86 7.519,-8.949 9.953,-12.266c2.433,-3.318 4.645,-7.524 6.636,-12.617c1.986,-5.304 2.986,-10.398 2.986,-15.257c0,-14.603 -5.199,-24.659 -15.594,-30.19c-10.173,-5.747 -24.881,-8.621 -44.123,-8.621l-208.013,-0.005Zm-604.125,178.15l0,12.944c0,31.407 -4.091,53.966 -12.276,67.678c-7.077,12.384 -18.245,22.57 -33.507,30.521c-15.04,7.734 -31.517,11.613 -49.432,11.613c-16.808,0 -30.411,-4.767 -40.805,-14.276c-10.395,-9.743 -15.594,-21.449 -15.594,-35.166c0,-13.271 4.423,-23.554 13.271,-30.853c8.846,-7.524 18.136,-12.5 27.868,-14.93c9.731,-2.664 27.203,-6.636 52.417,-11.939c25.434,-5.538 44.787,-10.725 58.057,-15.585l0.001,-0.007Z" style="fill:#fff;fill-rule:nonzero;"/><path id="quotient" d="M2893.52,282.198c-12.163,0 -22.89,4.205 -32.18,12.617c-9.067,8.177 -13.602,18.691 -13.602,31.516c0,14.159 4.422,25.103 13.271,32.844c9.067,7.733 19.904,11.612 32.511,11.612c12.164,0 22.671,-3.879 31.517,-11.612c8.846,-7.968 13.271,-18.902 13.271,-32.844c0,-14.369 -4.532,-25.323 -13.603,-32.844c-9.067,-7.523 -19.462,-11.285 -31.185,-11.285l0,-0.004Zm-225.924,7.64c-8.183,0 -15.594,2.103 -22.227,5.981c-6.636,3.762 -11.722,8.739 -15.26,14.93c-3.539,5.981 -5.75,13.154 -6.635,21.566c-0.654,8.177 -1.004,19.579 -1.004,34.17l0,54.407l-9.954,0c-13.712,0 -24.218,3.108 -31.516,9.299c-7.078,5.982 -10.617,13.715 -10.617,23.225c0,9.509 3.427,17.36 10.285,23.554c6.855,6.191 16.808,9.299 29.858,9.299l11.944,0l0,173.839c0,28.087 2.218,50.536 6.635,67.347c4.645,16.799 14.267,29.967 28.863,39.476c14.598,9.51 36.051,14.276 64.36,14.276c29.858,0 52.749,-3.879 68.674,-11.612c15.925,-7.734 23.886,-18.902 23.886,-33.507c0,-8.622 -2.986,-15.818 -8.958,-21.566c-5.75,-5.981 -12.276,-8.948 -19.573,-8.948c-5.086,0 -12.163,0.934 -21.231,2.99c-9.068,1.869 -16.257,2.64 -21.563,2.64c-9.731,0 -16.809,-2.337 -21.232,-6.962c-4.203,-4.86 -6.855,-11.052 -7.962,-18.575c-0.889,-7.734 -1.333,-18.692 -1.333,-32.844l0,-166.543l16.918,0c17.914,0 31.627,-2.429 41.138,-7.289c9.731,-4.86 14.598,-13.388 14.598,-25.545c0,-9.509 -3.427,-17.243 -10.285,-23.224c-6.635,-6.192 -16.367,-9.299 -29.195,-9.299l-33.175,0l0,-61.706c0,-15.257 -0.888,-26.982 -2.654,-35.166c-1.543,-8.412 -5.418,-15.491 -11.612,-21.239c-9.29,-8.621 -19.685,-12.944 -31.185,-12.944l0.012,-0.03Zm1238.11,0c-8.183,0 -15.594,2.103 -22.227,5.981c-6.636,3.762 -11.722,8.739 -15.262,14.93c-3.54,5.981 -5.75,13.154 -6.636,21.566c-0.654,8.177 -1.004,19.579 -1.004,34.17l0,54.407l-9.953,0c-13.713,0 -24.219,3.108 -31.517,9.299c-7.077,5.982 -10.617,13.715 -10.617,23.225c0,9.509 3.428,17.36 10.285,23.554c6.855,6.191 16.808,9.299 29.858,9.299l11.941,0l0,173.839c0,28.087 2.219,50.536 6.636,67.347c4.645,16.799 14.264,29.967 28.863,39.476c14.595,9.51 36.051,14.276 64.36,14.276c29.858,0 52.749,-3.879 68.673,-11.612c15.925,-7.734 23.886,-18.902 23.886,-33.507c0,-8.622 -2.986,-15.818 -8.957,-21.566c-5.751,-5.981 -12.276,-8.948 -19.573,-8.948c-5.087,0 -12.164,0.934 -21.231,2.99c-9.068,1.869 -16.257,2.64 -21.564,2.64c-9.731,0 -16.808,-2.337 -21.231,-6.962c-4.203,-4.86 -6.858,-11.052 -7.963,-18.575c-0.888,-7.734 -1.332,-18.692 -1.332,-32.844l0,-166.543l16.918,0c17.913,0 31.627,-2.429 41.138,-7.289c9.731,-4.86 14.598,-13.388 14.598,-25.545c0,-9.509 -3.428,-17.243 -10.285,-23.224c-6.636,-6.192 -16.367,-9.299 -29.195,-9.299l-33.176,0l0,-61.706c0,-15.257 -0.888,-26.982 -2.656,-35.166c-1.543,-8.412 -5.418,-15.491 -11.612,-21.239c-9.29,-8.621 -19.685,-12.944 -31.185,-12.944l0.02,-0.03Zm-712.942,122.419c-27.203,0 -51.974,4.416 -74.312,13.271c-22.338,8.621 -41.137,21.121 -56.398,37.488c-15.262,16.355 -26.872,36.052 -34.834,59.052c-7.963,22.781 -11.944,47.554 -11.944,74.313c0,56.842 16.145,101.849 48.436,135.024c32.291,33.178 77.519,49.765 135.687,49.765c25.435,0 47.883,-3.318 67.346,-9.954c19.685,-6.635 35.94,-14.93 48.768,-24.881c13.049,-10.163 22.78,-20.677 29.194,-31.516c6.414,-11.052 9.622,-20.678 9.622,-28.862c0,-9.3 -2.876,-16.472 -8.626,-21.566c-5.75,-5.093 -13.272,-7.617 -22.559,-7.617c-8.626,0 -15.262,2.103 -19.907,5.958c-11.28,10.608 -20.458,19.019 -27.535,25.215c-7.077,6.192 -14.818,12.056 -23.222,17.594c-8.405,5.304 -17.141,9.299 -26.209,11.939c-8.846,2.43 -18.689,3.645 -29.526,3.645c-16.145,0 -30.964,-3.972 -44.455,-11.939c-13.271,-7.968 -23.996,-19.79 -32.18,-35.498c-7.962,-15.701 -12.053,-33.839 -12.275,-54.407l177.156,0c23.665,0 42.022,-3.318 55.071,-9.953c13.05,-6.846 19.573,-21.683 19.573,-44.456c0,-24.549 -6.304,-48.657 -18.912,-72.32c-12.607,-23.667 -31.626,-42.91 -57.061,-57.728c-25.214,-15.046 -55.514,-22.57 -90.901,-22.57l0.003,0.003Zm-1539.01,0.7c-12.608,0 -22.89,4.322 -30.853,12.944c-7.963,8.621 -11.944,21.238 -11.944,37.82l0,10.958c-13.713,-20.561 -30.19,-35.829 -49.432,-45.78c-19.24,-10.187 -41.027,-15.258 -65.355,-15.258c-8.587,0 -16.914,0.701 -25.048,2.103l-123.827,233.263c3.262,16.729 8.198,32.189 14.846,46.384c13.271,27.647 31.406,48.878 54.408,63.698c23.222,14.814 48.878,22.22 76.967,22.22c23.002,0 43.902,-4.533 62.701,-13.598c19.021,-9.276 37.267,-22.664 54.74,-40.14l0,127.725c0,18.574 2.654,33.285 7.962,44.124c5.531,10.841 17.141,16.261 34.835,16.261c28.531,0 42.796,-20.117 42.796,-60.378l0,-391.472c0,-16.799 -3.981,-29.416 -11.944,-37.82c-7.963,-8.622 -18.245,-12.944 -30.853,-12.944l0.001,-0.11Zm175.83,0c-13.491,0 -24.329,4.533 -32.512,13.598c-8.184,8.855 -12.276,22.337 -12.276,40.475l0,179.477c0,36.052 5.641,63.699 16.921,82.94c9.51,15.934 22.89,28.42 40.143,37.488c17.472,9.066 37.156,13.598 59.052,13.598c18.136,0 34.281,-2.336 48.436,-6.962c14.154,-4.416 27.204,-11.285 39.147,-20.561c11.944,-9.276 23.334,-20.795 34.171,-34.502l0,11.612c0,16.145 3.981,28.752 11.944,37.82c8.182,8.855 18.467,13.271 30.853,13.271c12.386,0 22.449,-4.322 30.19,-12.944c7.963,-8.622 11.944,-21.565 11.944,-38.816l0,-262.416c0,-18.131 -4.091,-31.629 -12.276,-40.475c-8.182,-9.065 -19.021,-13.598 -32.512,-13.598c-13.491,0 -24.439,4.533 -32.843,13.598c-8.405,9.066 -12.608,22.571 -12.608,40.475l0,110.141c0,43.35 -2.545,71.439 -7.631,84.266c-6.194,14.603 -16.035,26.431 -29.526,35.498c-13.491,9.066 -27.868,13.598 -43.128,13.598c-15.704,0 -28.2,-3.971 -37.489,-11.939c-9.067,-8.177 -15.371,-19.346 -18.909,-33.507c-3.539,-14.369 -5.308,-32.07 -5.308,-53.082l0,-144.975c0,-17.921 -4.201,-31.407 -12.607,-40.475c-8.405,-9.065 -19.463,-13.598 -33.176,-13.598l0,-0.005Zm526.163,0c-26.982,0 -51.643,4.416 -73.981,13.271c-22.339,8.622 -41.359,21.005 -57.062,37.157c-15.703,16.145 -27.757,35.607 -36.161,58.388c-8.404,22.78 -12.608,47.883 -12.608,75.309c0,27.203 4.091,52.084 12.276,74.645c8.404,22.336 20.568,41.799 36.493,58.388c16.145,16.379 35.166,28.972 57.062,37.82c21.895,8.855 46.556,13.271 73.981,13.271c27.646,0 52.528,-4.322 74.645,-12.944c22.117,-8.855 41.138,-21.448 57.062,-37.82c15.925,-16.355 28.088,-35.939 36.493,-58.72c8.404,-22.78 12.608,-47.664 12.608,-74.645c0,-27.203 -4.202,-52.087 -12.608,-74.645c-8.182,-22.57 -20.236,-42.022 -36.161,-58.388c-15.924,-16.379 -35.056,-28.975 -57.394,-37.821c-22.339,-8.855 -47.22,-13.271 -74.645,-13.271l0,0.005Zm536.779,0c-13.271,0 -24.107,4.533 -32.512,13.598c-8.182,9.065 -12.275,22.57 -12.275,40.475l0,259.099c0,17.687 4.091,31.294 12.275,40.806c8.405,9.51 19.241,14.253 32.512,14.253c13.271,0 24.218,-4.65 32.844,-13.926c8.626,-9.299 12.939,-22.99 12.939,-41.138l0,-261.753c0,-16.145 -4.313,-28.753 -12.939,-37.821c-8.626,-9.065 -19.572,-13.598 -32.844,-13.598l0,0.005Zm582.561,0c-13.049,0 -23.334,4.322 -30.853,12.944c-7.519,8.411 -11.281,21.238 -11.281,38.484l0,261.753c0,17.687 4.203,31.295 12.608,40.807c8.404,9.509 19.131,14.252 32.18,14.252c13.491,0 24.44,-4.533 32.844,-13.598c8.626,-9.299 12.939,-23.108 12.939,-41.47l0,-113.461c0,-36.935 2.219,-62.147 6.636,-75.638c6.194,-16.799 15.925,-29.97 29.194,-39.479c13.272,-9.72 27.979,-14.603 44.124,-14.603c24.771,0 41.248,7.967 49.431,23.886c8.405,15.701 12.608,38.483 12.608,68.341l0,150.949c0,17.687 4.203,31.295 12.607,40.807c8.405,9.509 19.353,14.252 32.844,14.252c13.271,0 23.998,-4.65 32.181,-13.925c8.404,-9.3 12.607,-22.991 12.607,-41.138l0,-168.532c0,-19.906 -0.888,-36.271 -2.652,-49.1c-1.776,-12.828 -5.64,-24.771 -11.612,-35.828c-9.29,-19.018 -23.334,-33.729 -42.133,-44.124c-18.799,-10.397 -40.142,-15.584 -64.028,-15.584c-24.55,0 -46.335,4.977 -65.356,14.93c-18.799,9.743 -36.162,25.103 -52.085,46.113l0,-10.935c0,-10.841 -1.987,-20.024 -5.972,-27.538c-3.76,-7.523 -8.849,-13.154 -15.262,-16.916c-6.414,-3.761 -13.603,-5.63 -21.563,-5.63l-0.006,-0.019Zm-285.309,62.369c23.665,0 42.686,7.734 57.062,23.225c14.596,15.257 23.002,38.371 25.213,69.337l-164.218,0c3.096,-30.522 11.832,-53.524 26.208,-69.005c14.598,-15.701 33.175,-23.557 55.735,-23.557Zm-834.031,4.65c27.425,0 49.211,10.28 65.356,30.853c16.367,20.561 24.55,49.322 24.55,86.257c0,36.494 -8.182,65.134 -24.55,85.923c-16.145,20.561 -37.931,30.854 -65.356,30.854c-18.135,0 -33.949,-4.65 -47.441,-13.926c-13.271,-9.509 -23.554,-23.107 -30.853,-40.806c-7.077,-17.687 -10.617,-38.374 -10.617,-62.038c0,-23.885 3.65,-44.787 10.949,-62.701c7.299,-17.921 17.694,-31.407 31.185,-40.475c13.49,-9.298 29.084,-13.925 46.777,-13.925l0,-0.016Zm-837.349,0.7c11.944,0 23.222,2.43 33.839,7.29c10.617,4.649 20.017,11.846 28.199,21.565c8.183,9.51 14.599,21.566 19.241,36.162c4.867,14.602 7.299,30.962 7.299,49.098c0,25.657 -4.091,47.22 -12.276,64.694c-8.182,17.477 -19.021,30.521 -32.512,39.145c-13.49,8.411 -28.309,12.617 -44.455,12.617c-14.818,0 -28.641,-4.206 -41.469,-12.617c-12.827,-8.621 -23.222,-21.682 -31.185,-39.145c-7.741,-17.687 -11.612,-38.706 -11.612,-63.035c0,-36.935 8.072,-65.466 24.218,-85.592c16.145,-20.117 36.382,-30.189 60.711,-30.189l0.002,0.007Z" style="fill:#fff;fill-rule:nonzero;"/><g id="_-" serif:id="/"><path d="M1526.11,214.989l-268.157,505.254c-8.877,16.645 -16.182,29.73 -21.917,39.255c-5.734,9.526 -12.148,16.598 -19.241,21.216c-7.093,4.618 -15.732,5.979 -25.917,4.083c-25.338,-4.717 -33.839,-20.424 -25.503,-47.121c2.178,-6.977 10.109,-23.958 23.792,-50.944l267.784,-505.323c14.179,-26.893 25.363,-45.034 33.552,-54.424c8.189,-9.389 19.487,-12.743 33.895,-10.061c12.421,2.313 20.786,7.722 25.095,16.228c4.31,8.507 4.476,19.131 0.497,31.872c-2.936,9.405 -10.896,26.059 -23.88,49.965Z" style="fill:#fff;fill-rule:nonzero;"/></g></g></svg>