<?xml version="1.0" standalone="no"?>
<!DOCTYPE svg PUBLIC "-//W3C//DTD SVG 1.1//EN" "http://www.w3.org/Graphics/SVG/1.1/DTD/svg11.dtd">
<svg width="100%" height="100%" viewBox="0 0 429 383" version="1.1" xmlns="http://www.w3.org/2000/svg" xmlns:xlink="http://www.w3.org/1999/xlink" xml:space="preserve" style="fill-rule:evenodd;clip-rule:evenodd;stroke-linejoin:round;stroke-miterlimit:1.41421;">
    <g>
        <path d="M86.75,348.653C80.6111,348.653 66.3889,361.583 66.3889,267.833C66.3889,195.764 80.6111,149.861 80.6111,137.903C80.6111,128.208 82.2222,122.389 74.1528,122.389C51.1944,122.389 10.7917,159.569 5.29167,159.569C2.38889,159.569 0.763889,160.861 0.763889,151.806C0.763889,141.792 9.5,101.708 14.3472,92.6528C17.5833,86.5139 61.2083,74.875 104.847,74.875C156.875,74.875 203.111,88.7778 203.111,103.972C203.111,118.194 187.264,148.889 183.708,148.889C178.222,148.889 164.972,122.069 141.694,122.069C121.972,122.069 118.75,183.806 118.75,213.542C118.75,296.611 136.528,337.333 136.528,343.153C136.528,350.264 124.889,348.653 120.694,348.653L86.75,348.653Z" style="fill:rgb(198,34,39);fill-rule:nonzero;"/>
        <path d="M379.889,329.903C365.333,346.389 337.542,353.486 319.764,353.486C264.819,353.486 219.25,313.417 219.25,218.708C219.25,154.389 240.903,74.875 319.764,74.875C398.625,74.875 420.292,154.389 420.292,218.708C420.611,240.042 414.792,271.069 402.833,296.931C418.347,311.153 426.097,325.375 426.097,346.708C426.097,350.264 426.431,362.222 420.611,362.222C416.083,362.222 409.944,355.764 406.708,352.861L379.889,329.903ZM271.611,210.944C271.611,273.014 290.681,299.514 319.764,299.514C323.319,299.514 330.111,299.194 335.611,295.639C316.208,281.097 303.597,261.056 303.597,236.167C303.597,233.903 304.903,218.389 308.458,218.389C313.625,218.389 313.625,222.917 313.625,223.889C320.083,242.958 340.125,252.972 360.819,263.958C366.625,245.222 367.917,225.5 367.917,206.111C367.917,174.431 363.403,120.778 319.764,120.778C277.75,120.778 271.611,178.306 271.611,210.944Z" style="fill:rgb(198,34,39);fill-rule:nonzero;"/>
        <path d="M292.917,358.181C292.917,358.181 289.042,355.208 283.097,353.5C283.097,353.5 278.861,350.986 275.708,346.111C275.708,346.111 271.847,342.972 270.319,342.167C270.319,342.167 270.556,336.569 270.222,335.042C269.903,333.514 266.319,330.444 265.819,328.833C265.306,327.208 264.25,302.917 259.097,276.792C257.417,268.347 253.333,246.042 249.014,241.25C244.681,236.444 240.653,213.875 228.889,198.986C228.889,198.986 230.986,195.208 230.986,194.847L228.472,191.056L245.222,192.139C245.222,192.139 245.458,195.014 249.847,194.722C249.847,194.722 255.181,193.514 256.931,187.639C256.931,187.639 257.056,182.778 256.75,181.153C256.75,181.153 259.75,176.833 259.75,168.903C259.75,168.903 259.319,154.861 258.069,143.875C258.069,143.875 258.694,132.625 259.153,130.097C259.153,130.097 258.875,121.181 252.653,118.75C252.653,118.75 240.958,114.611 238.167,109.75C238.167,109.75 236.639,105.153 240.514,98.9444C240.514,98.9444 243.653,93.7222 244.014,90.125C244.014,90.125 241.528,93.6944 240.861,93.7222C240.208,93.75 239.069,91.7361 238.347,89.125C238.347,89.125 237.625,87.1528 238.167,85.5278C238.167,85.5278 239.431,80.9306 237.903,79.0417C237.903,79.0417 238.611,70.4028 238.069,69.5C238.069,69.5 233.667,60.5833 225.917,59.4166C225.917,59.4166 213.667,56.9722 209.542,67.3333C209.542,67.3333 207.375,81.3889 211.153,92.1944C211.153,92.1944 212.222,93.7222 212.861,94.0833C212.861,94.0833 212.736,95.9167 212.333,96.3333C211.903,96.7361 205.028,95.7917 202.153,96.0555C202.153,96.0555 202.153,97.6805 208,103.806C208,103.806 208.417,106.472 208,107.222C207.583,107.986 206.375,108.042 203.764,109.75C203.764,109.75 195.931,111.014 194.708,110.014C193.472,109.028 192.653,75.3333 192.319,62.125C191.972,48.9167 189.708,43.6944 189.361,38.7917C189.014,33.8889 188.458,30.7778 189.264,23.125C189.264,23.125 191.042,22.7083 191.625,22C192.208,21.3056 194.764,18 197.292,17.2639C197.292,17.2639 201.694,16.1944 201.972,14.9305C201.972,14.9305 201.875,13.9305 201.694,13.4861C201.694,13.4861 209.889,11.4167 211.417,8.44444C211.417,8.44444 211.75,7.38888 209.111,7.79165C209.111,7.79165 210.153,5.6111 208.444,5.24998L201.778,7.05554L197.556,8.20834L207.514,1.66667C207.514,1.66667 209.431,-2.95833 198.819,3.84722C197.069,5.13887 196.361,4.90278 193.944,6.55556C193.944,6.55556 185.306,12.7639 180.903,20.1528C180.903,20.1528 179.903,30.0556 178.736,35.8194C178.736,35.8194 176.75,54.375 177.569,62.4722C177.569,62.4722 177.75,65.7083 177.389,66.7917C177.389,66.7917 170.764,65.4028 167.125,66.7083C167.125,66.7083 151.458,70.4028 149.833,85.7917C149.833,85.7917 149.292,88.5972 148.028,90.125C146.764,91.6528 142.986,100.833 153.528,107.5C153.528,107.5 157.042,108.931 160.278,108.931C163.417,108.931 165,112.583 166.306,112.806L166.486,114.889C166.486,114.889 163.236,114.708 157.389,113.347C157.389,113.347 150.681,112.944 140.583,112.903C134.861,112.875 126.583,112.292 121.458,113.625C121.458,113.625 113.944,115.361 109.25,115.417C104.097,115.486 97.1528,115.542 89.5,119.375C89.5,119.375 84.375,120.153 78.4167,120.292C72.5139,120.417 73.0556,123.167 75.4861,123.167C75.4861,123.167 86.5556,122.847 83.5556,123.708C83.5556,123.708 73.8611,123.667 70.6806,125.417C69,126.139 68.6944,127.847 72.8472,127.208C72.8472,127.208 66.7639,130.375 70.2083,130.736C70.2083,130.736 73.7222,129.944 77.4583,129.556C73.5417,131 69.2778,134.958 74.1528,134.431C74.1528,134.431 86.0694,131.403 90.2639,133.25C90.2639,133.25 91.6111,133.028 90.4444,139.278C90.4444,139.278 88.8194,144.056 92.5556,144.375C92.5556,144.375 94.2222,141.125 95.3056,134.833C95.3056,134.833 98.5,126.583 113.639,128.028C113.639,128.028 132.236,129.222 141.958,128.264C141.958,128.264 159.014,127.667 164.056,129.347C164.056,129.347 158.167,144 169.819,159.722C169.819,159.722 178.111,180.014 167.181,193.333C167.181,193.333 160.278,202.944 159.375,215.069C158.847,225.278 150.667,225.514 144.361,230.931C144.361,230.931 136.806,236.319 134.764,246.292C134.764,246.292 125.278,251.569 123.361,254.694C123.361,254.694 119.639,258.056 120.111,258.778C120.111,258.778 124.556,267.181 129.597,264.417C129.597,264.417 135.25,259.611 137.653,260.694C137.653,260.694 152.528,269.222 160.694,267.708C160.694,267.708 162.861,274.736 158.653,287.597C158.653,287.597 155.167,296.833 153.611,300.917C153.611,300.917 153.125,301.264 152.861,304.375L151.986,305.958C151.986,305.958 149.417,319.569 149.236,323.431C149.236,323.431 147.792,335.222 143.736,344.403C143.736,344.403 138.292,359.25 138.069,360.111C137.833,360.958 140.944,361.431 140.944,361.431C140.944,361.431 140.333,365.806 138.806,368.333C138.806,368.333 134.5,374.458 141.931,374.667L152.653,374.75C152.639,376.028 152.653,378.333 152.569,379.5L155.403,379.5C155.403,379.5 155.403,374.986 155.583,371.75L157.319,369.319C158.528,370.556 160.875,373.292 165.5,379.264C165.5,379.264 167.236,379.806 181.889,379.264C181.889,379.264 182.917,378.833 182.361,376.736C182.361,376.736 185.972,379.431 189.097,379.139C189.097,379.139 191.556,377.819 189.569,374.333C189.569,374.333 187.194,371.611 187.917,364.222C187.917,364.222 189.097,355.208 189,351.528C189,351.528 191.792,337.486 194.319,332.889C194.319,332.889 207.278,306.319 208,300.472C208,300.472 214.569,274.083 214.931,268.056C214.931,268.056 220.069,267.597 221.153,267.056L244.556,356.389C244.556,356.389 246,356.389 246.361,356.292C246.361,356.292 245.722,362.25 246.361,364.222C246.361,364.222 257.903,365.028 261.153,363.583C261.153,363.583 261.222,362.958 261.583,360.889C261.583,360.889 268.222,358.861 273.458,362.681C273.458,362.681 278.236,363.514 290.389,362.514C290.389,362.514 295.25,361.972 292.917,358.181ZM191.722,288.667C191.722,288.667 183.292,301.306 182.556,311C181.792,320.708 181.042,332.861 179.722,338.014C178.403,343.181 176.847,344.292 171.653,348.917C171.653,348.917 171.917,342.167 173.986,337.569C173.986,337.569 175.792,332.514 176.153,325.319C176.153,325.319 176.736,317.847 181.347,307.764C181.347,307.764 184.528,301.181 185.514,296.236C185.514,296.236 186.597,285.875 191.278,280.931C191.278,280.931 193.167,285.611 191.722,288.667Z" style="fill:black;fill-rule:nonzero;"/>
    </g>
</svg>
