<?xml version="1.0" encoding="UTF-8" standalone="no"?>
<!DOCTYPE svg PUBLIC "-//W3C//DTD SVG 1.1//EN" "http://www.w3.org/Graphics/SVG/1.1/DTD/svg11.dtd">
<svg width="100%" height="100%" viewBox="0 0 440 84" version="1.1" xmlns="http://www.w3.org/2000/svg" xmlns:xlink="http://www.w3.org/1999/xlink" xml:space="preserve" xmlns:serif="http://www.serif.com/" style="fill-rule:evenodd;clip-rule:evenodd;stroke-linejoin:round;stroke-miterlimit:2;">
    <g transform="matrix(1.27719,0,0,1.27719,-59.5759,-50.7509)">
        <path d="M175.77,70.484C174.551,67.787 172.029,65.787 168.199,65.787C164.371,65.787 161.85,67.787 160.631,70.484C159.936,72.138 159.674,73.355 159.586,75.357L176.814,75.357C176.727,73.355 176.465,72.138 175.77,70.484ZM159.586,83.099C159.586,88.929 163.154,93.193 169.506,93.193C174.465,93.193 176.9,91.8 179.771,88.929L186.645,95.629C182.033,100.24 177.598,102.763 169.418,102.763C158.717,102.763 148.449,97.89 148.449,79.533C148.449,64.742 156.455,56.39 168.199,56.39C180.816,56.39 187.949,65.613 187.949,78.054L187.949,83.099L159.586,83.099Z" style="fill:white;fill-rule:nonzero;"/>
        <path d="M212.568,102.242C203.346,102.242 199.43,95.717 199.43,89.277L199.43,66.83L194.645,66.83L194.645,58.217L199.43,58.217L199.43,44.818L210.74,44.818L210.74,58.217L218.746,58.217L218.746,66.83L210.74,66.83L210.74,88.582C210.74,91.191 211.959,92.672 214.656,92.672L218.746,92.672L218.746,102.242L212.568,102.242Z" style="fill:white;fill-rule:nonzero;"/>
        <path d="M255.023,102.242L255.023,74.574C255.023,68.57 251.195,66.57 247.629,66.57C244.06,66.57 240.32,68.658 240.32,74.574L240.32,102.242L229.01,102.242L229.01,40.293L240.32,40.293L240.32,61.088C243.365,57.955 247.193,56.39 251.195,56.39C261.113,56.39 266.334,63.349 266.334,72.92L266.334,102.242L255.023,102.242Z" style="fill:white;fill-rule:nonzero;"/>
        <path d="M71.929,100.839L63.156,100.839L46.646,56.035L58.427,56.035L67.542,83.726L76.572,56.035L88.354,56.035L71.929,100.839Z" style="fill:white;fill-rule:nonzero;"/>
        <path d="M115.763,51.367C100.989,51.367 88.969,63.477 88.969,78.363C88.969,90.822 97.391,101.331 108.8,104.429L108.8,104.382C110.411,104.773 112.147,104.949 113.868,104.949C117.518,104.949 121.102,104.158 123.268,102.95C126.673,101.05 128.972,98.482 130.1,95.315C131.308,91.922 131.183,88.578 129.724,85.378C128.96,83.71 127.753,82.002 126.13,80.299L122.731,76.742C119.329,73.189 118.116,71.519 117.683,70.72C117.186,69.84 116.692,68.514 117.157,67.207C117.417,66.475 118.202,65.096 120.538,64.068C121.903,63.468 122.651,63.345 122.952,63.323L123.706,60.379C119.587,59.152 111.059,59.275 107.2,68.307C106.061,70.966 106.009,73.863 107.044,76.684C107.956,79.174 109.895,81.956 112.974,85.187L115.905,88.271C118.036,90.498 118.821,91.634 119.1,92.188C119.638,93.269 119.675,94.422 119.216,95.715C118.79,96.908 118.171,97.652 117.007,98.367C116.36,98.763 112.901,100.671 108.159,99.302L108.159,99.303C99.385,96.175 93.098,87.815 93.098,77.968C93.098,65.451 103.245,55.304 115.763,55.304C128.28,55.304 138.427,65.451 138.427,77.968C138.427,82.31 137.204,86.365 135.087,89.812L138.194,93.103C140.949,88.861 142.558,83.8 142.558,78.363C142.558,63.477 130.537,51.367 115.763,51.367Z" style="fill:white;fill-rule:nonzero;"/>
        <path d="M297.293,53.042L293.152,46.046L297.161,41.294L293.63,41.294L290.231,45.452L290.231,41.294L287.377,41.294L287.377,53.042L290.231,53.042L290.231,49.362L291.221,48.224L293.927,53.042L297.293,53.042Z" style="fill:white;fill-rule:nonzero;"/>
        <path d="M306.351,48.603C306.351,46.871 306.12,46.013 305.378,45.204C304.85,44.643 303.959,44.066 302.523,44.066C301.088,44.066 300.197,44.643 299.669,45.204C298.926,46.013 298.695,46.871 298.695,48.603C298.695,50.352 298.926,51.194 299.669,52.002C300.197,52.563 301.088,53.141 302.523,53.141C303.959,53.141 304.85,52.563 305.378,52.002C306.12,51.194 306.351,50.352 306.351,48.603ZM303.645,48.603C303.645,49.478 303.596,50.105 303.249,50.451C303.084,50.616 302.853,50.699 302.523,50.699C302.193,50.699 301.962,50.616 301.797,50.451C301.451,50.105 301.401,49.478 301.401,48.603C301.401,47.729 301.451,47.102 301.797,46.755C301.962,46.59 302.193,46.508 302.523,46.508C302.853,46.508 303.084,46.59 303.249,46.755C303.596,47.102 303.645,47.729 303.645,48.603Z" style="fill:white;fill-rule:nonzero;"/>
        <path d="M321.502,53.042L321.502,47.366C321.502,46.425 321.287,45.584 320.528,44.825C320.05,44.346 319.241,44.066 318.4,44.066C317.377,44.066 316.667,44.33 315.892,45.006C315.314,44.346 314.605,44.066 313.73,44.066C313.021,44.066 312.212,44.346 311.668,44.891L311.668,44.165L309.028,44.165L309.028,53.042L311.734,53.042L311.734,47.729C311.734,46.706 312.46,46.508 312.823,46.508C313.186,46.508 313.912,46.706 313.912,47.729L313.912,53.042L316.618,53.042L316.618,47.729C316.618,46.706 317.344,46.508 317.707,46.508C318.07,46.508 318.796,46.706 318.796,47.729L318.796,53.042L321.502,53.042Z" style="fill:white;fill-rule:nonzero;"/>
        <path d="M336.929,53.042L336.929,47.366C336.929,46.425 336.715,45.584 335.956,44.825C335.477,44.346 334.669,44.066 333.827,44.066C332.804,44.066 332.095,44.33 331.319,45.006C330.742,44.346 330.032,44.066 329.158,44.066C328.448,44.066 327.64,44.346 327.095,44.891L327.095,44.165L324.455,44.165L324.455,53.042L327.161,53.042L327.161,47.729C327.161,46.706 327.887,46.508 328.25,46.508C328.613,46.508 329.339,46.706 329.339,47.729L329.339,53.042L332.045,53.042L332.045,47.729C332.045,46.706 332.771,46.508 333.134,46.508C333.497,46.508 334.223,46.706 334.223,47.729L334.223,53.042L336.929,53.042Z" style="fill:white;fill-rule:nonzero;"/>
        <path d="M342.588,53.042L342.588,44.511L339.882,44.511L339.882,53.042L342.588,53.042ZM342.588,43.257L342.588,41.195L339.882,41.195L339.882,43.257L342.588,43.257Z" style="fill:white;fill-rule:nonzero;"/>
        <path d="M352.546,50.138C352.546,48.719 351.738,47.613 349.873,47.432L348.504,47.3C347.893,47.234 347.926,46.904 347.926,46.805C347.926,46.607 348.141,46.293 348.801,46.293C349.494,46.293 350.236,46.376 350.682,46.821L352.348,45.155C351.474,44.28 350.302,44.066 348.85,44.066C347.085,44.066 345.319,45.039 345.319,47.003C345.319,48.735 346.359,49.428 347.893,49.577L349.263,49.709C349.791,49.758 349.906,50.022 349.906,50.27C349.906,50.732 349.147,50.847 348.751,50.847C348.289,50.847 347.332,50.847 346.59,50.105L344.841,51.854C346.062,53.075 347.365,53.141 348.702,53.141C350.764,53.141 352.546,52.233 352.546,50.138Z" style="fill:white;fill-rule:nonzero;"/>
        <path d="M362.05,50.138C362.05,48.719 361.242,47.613 359.377,47.432L358.008,47.3C357.397,47.234 357.43,46.904 357.43,46.805C357.43,46.607 357.645,46.293 358.305,46.293C358.998,46.293 359.74,46.376 360.186,46.821L361.852,45.155C360.978,44.28 359.806,44.066 358.354,44.066C356.589,44.066 354.823,45.039 354.823,47.003C354.823,48.735 355.863,49.428 357.397,49.577L358.767,49.709C359.295,49.758 359.41,50.022 359.41,50.27C359.41,50.732 358.651,50.847 358.255,50.847C357.793,50.847 356.836,50.847 356.094,50.105L354.345,51.854C355.566,53.075 356.869,53.141 358.206,53.141C360.268,53.141 362.05,52.233 362.05,50.138Z" style="fill:white;fill-rule:nonzero;"/>
        <path d="M367.215,53.042L367.215,44.511L364.509,44.511L364.509,53.042L367.215,53.042ZM367.215,43.257L367.215,41.195L364.509,41.195L364.509,43.257L367.215,43.257Z" style="fill:white;fill-rule:nonzero;"/>
        <path d="M377.545,48.603C377.545,46.871 377.314,46.013 376.572,45.204C376.044,44.643 375.153,44.066 373.717,44.066C372.282,44.066 371.391,44.643 370.863,45.204C370.12,46.013 369.889,46.871 369.889,48.603C369.889,50.352 370.12,51.194 370.863,52.002C371.391,52.563 372.282,53.141 373.717,53.141C375.153,53.141 376.044,52.563 376.572,52.002C377.314,51.194 377.545,50.352 377.545,48.603ZM374.839,48.603C374.839,49.478 374.79,50.105 374.443,50.451C374.278,50.616 374.047,50.699 373.717,50.699C373.387,50.699 373.156,50.616 372.991,50.451C372.645,50.105 372.595,49.478 372.595,48.603C372.595,47.729 372.645,47.102 372.991,46.755C373.156,46.59 373.387,46.508 373.717,46.508C374.047,46.508 374.278,46.59 374.443,46.755C374.79,47.102 374.839,47.729 374.839,48.603Z" style="fill:white;fill-rule:nonzero;"/>
        <path d="M387.81,53.042L387.81,47.366C387.81,46.425 387.678,45.584 386.919,44.825C386.44,44.346 385.764,44.066 384.922,44.066C384.213,44.066 383.404,44.346 382.86,44.891L382.86,44.165L380.22,44.165L380.22,53.042L382.926,53.042L382.926,47.729C382.926,46.706 383.652,46.508 384.015,46.508C384.378,46.508 385.104,46.706 385.104,47.729L385.104,53.042L387.81,53.042Z" style="fill:white;fill-rule:nonzero;"/>
        <path d="M295.412,57.294L293.531,57.294L290.825,65.841L288.119,57.294L286.271,57.294L290.132,69.042L291.518,69.042L295.412,57.294Z" style="fill:white;fill-rule:nonzero;"/>
        <path d="M303.609,65.346L303.609,64.603C303.609,62.227 302.306,60.577 300.062,60.577C297.917,60.577 296.514,62.145 296.514,64.851C296.514,68.035 298.181,69.141 300.276,69.141C301.745,69.141 302.553,68.695 303.411,67.837L302.339,66.831C301.745,67.425 301.25,67.689 300.309,67.689C298.94,67.689 298.181,66.781 298.181,65.346L303.609,65.346ZM301.943,64.174L298.181,64.174C298.197,63.663 298.23,63.415 298.395,63.036C298.659,62.409 299.27,61.98 300.062,61.98C300.854,61.98 301.448,62.409 301.712,63.036C301.877,63.415 301.926,63.663 301.943,64.174Z" style="fill:white;fill-rule:nonzero;"/>
        <path d="M312.28,61.369C311.702,60.792 311.092,60.577 310.283,60.577C309.343,60.577 308.485,60.99 308.056,61.584L308.056,60.676L306.406,60.676L306.406,69.042L308.089,69.042L308.089,63.96C308.089,62.805 308.848,62.079 309.755,62.079C310.333,62.079 310.63,62.26 311.009,62.64L312.28,61.369Z" style="fill:white;fill-rule:nonzero;"/>
        <path d="M321.385,64.851C321.385,63.58 321.286,62.161 320.444,61.32C319.982,60.858 319.256,60.577 318.415,60.577C317.524,60.577 316.831,60.792 316.22,61.518L316.22,57.294L314.537,57.294L314.537,69.042L316.187,69.042L316.187,68.151C316.814,68.91 317.491,69.141 318.398,69.141C319.24,69.141 319.982,68.86 320.444,68.398C321.286,67.557 321.385,66.121 321.385,64.851ZM319.702,64.851C319.702,66.336 319.487,67.639 317.969,67.639C316.451,67.639 316.22,66.336 316.22,64.851C316.22,63.366 316.451,62.079 317.969,62.079C319.487,62.079 319.702,63.366 319.702,64.851Z" style="fill:white;fill-rule:nonzero;"/>
        <path d="M330.537,69.042L330.537,63.448C330.537,61.551 329.382,60.577 327.088,60.577C325.702,60.577 324.877,60.858 324.085,61.782L325.191,62.821C325.653,62.227 326.098,62.013 327.022,62.013C328.326,62.013 328.854,62.524 328.854,63.58L328.854,64.174L326.643,64.174C324.729,64.174 323.755,65.181 323.755,66.583C323.755,67.293 323.986,67.936 324.415,68.382C324.927,68.893 325.62,69.141 326.659,69.141C327.699,69.141 328.276,68.893 328.887,68.283L328.887,69.042L330.537,69.042ZM328.854,66.022C328.854,66.616 328.738,67.012 328.491,67.26C328.045,67.689 327.567,67.738 326.923,67.738C325.867,67.738 325.389,67.309 325.389,66.55C325.389,65.791 325.9,65.346 326.89,65.346L328.854,65.346L328.854,66.022Z" style="fill:white;fill-rule:nonzero;"/>
        <path d="M340.469,69.042L340.469,63.696C340.469,62.755 340.271,61.963 339.627,61.336C339.132,60.858 338.423,60.577 337.565,60.577C336.723,60.577 335.915,60.891 335.337,61.518L335.337,60.676L333.687,60.676L333.687,69.042L335.37,69.042L335.37,63.943C335.37,62.656 336.162,62.079 337.103,62.079C338.043,62.079 338.786,62.64 338.786,63.943L338.786,69.042L340.469,69.042Z" style="fill:white;fill-rule:nonzero;"/>
        <path d="M350.143,69.042L350.143,57.294L348.46,57.294L348.46,61.518C347.849,60.792 347.156,60.577 346.265,60.577C345.424,60.577 344.698,60.858 344.236,61.32C343.394,62.161 343.295,63.58 343.295,64.851C343.295,66.121 343.394,67.557 344.236,68.398C344.698,68.86 345.44,69.141 346.282,69.141C347.189,69.141 347.866,68.91 348.493,68.151L348.493,69.042L350.143,69.042ZM348.46,64.851C348.46,66.336 348.245,67.639 346.727,67.639C345.209,67.639 344.978,66.336 344.978,64.851C344.978,63.366 345.209,62.079 346.727,62.079C348.245,62.079 348.46,63.366 348.46,64.851Z" style="fill:white;fill-rule:nonzero;"/>
        <path d="M364.547,69.042L364.547,57.294L362.864,57.294L362.864,61.518C362.253,60.792 361.56,60.577 360.669,60.577C359.828,60.577 359.102,60.858 358.64,61.32C357.798,62.161 357.699,63.58 357.699,64.851C357.699,66.121 357.798,67.557 358.64,68.398C359.102,68.86 359.844,69.141 360.686,69.141C361.593,69.141 362.27,68.91 362.897,68.151L362.897,69.042L364.547,69.042ZM362.864,64.851C362.864,66.336 362.649,67.639 361.131,67.639C359.613,67.639 359.382,66.336 359.382,64.851C359.382,63.366 359.613,62.079 361.131,62.079C362.649,62.079 362.864,63.366 362.864,64.851Z" style="fill:white;fill-rule:nonzero;"/>
        <path d="M374.47,65.346L374.47,64.603C374.47,62.227 373.167,60.577 370.923,60.577C368.778,60.577 367.375,62.145 367.375,64.851C367.375,68.035 369.042,69.141 371.137,69.141C372.606,69.141 373.414,68.695 374.272,67.837L373.2,66.831C372.606,67.425 372.111,67.689 371.17,67.689C369.801,67.689 369.042,66.781 369.042,65.346L374.47,65.346ZM372.804,64.174L369.042,64.174C369.058,63.663 369.091,63.415 369.256,63.036C369.52,62.409 370.131,61.98 370.923,61.98C371.715,61.98 372.309,62.409 372.573,63.036C372.738,63.415 372.787,63.663 372.804,64.174Z" style="fill:white;fill-rule:nonzero;"/>
        <path d="M383.141,61.369C382.563,60.792 381.953,60.577 381.144,60.577C380.204,60.577 379.346,60.99 378.917,61.584L378.917,60.676L377.267,60.676L377.267,69.042L378.95,69.042L378.95,63.96C378.95,62.805 379.709,62.079 380.616,62.079C381.194,62.079 381.491,62.26 381.87,62.64L383.141,61.369Z" style="fill:white;fill-rule:nonzero;"/>
        <path d="M295.066,82.692C295.066,81.686 294.752,80.844 294.109,80.283C293.614,79.838 293.003,79.574 291.914,79.409L290.578,79.211C290.033,79.128 289.555,78.93 289.258,78.666C288.944,78.386 288.812,78.006 288.812,77.577C288.812,76.538 289.571,75.746 290.957,75.746C291.947,75.746 292.789,75.96 293.515,76.653L294.653,75.531C293.647,74.591 292.558,74.195 291.007,74.195C288.565,74.195 287.08,75.597 287.08,77.643C287.08,78.6 287.36,79.343 287.938,79.887C288.449,80.366 289.208,80.696 290.165,80.828L291.551,81.026C292.244,81.125 292.541,81.24 292.838,81.521C293.152,81.801 293.3,82.23 293.3,82.742C293.3,83.88 292.409,84.54 290.875,84.54C289.67,84.54 288.73,84.276 287.872,83.418L286.684,84.59C287.806,85.728 289.076,86.141 290.842,86.141C293.3,86.141 295.066,84.854 295.066,82.692Z" style="fill:white;fill-rule:nonzero;"/>
        <path d="M301.195,86.042L301.195,84.606L300.502,84.606C299.875,84.606 299.578,84.243 299.578,83.633L299.578,79.112L301.195,79.112L301.195,77.825L299.578,77.825L299.578,75.284L297.895,75.284L297.895,77.825L296.938,77.825L296.938,79.112L297.895,79.112L297.895,83.715C297.895,84.92 298.621,86.042 300.188,86.042L301.195,86.042Z" style="fill:white;fill-rule:nonzero;"/>
        <path d="M310.569,86.042L310.569,77.676L308.886,77.676L308.886,82.775C308.886,84.062 308.094,84.639 307.153,84.639C306.213,84.639 305.47,84.078 305.47,82.775L305.47,77.676L303.787,77.676L303.787,83.022C303.787,83.963 303.985,84.755 304.629,85.382C305.124,85.86 305.833,86.141 306.691,86.141C307.533,86.141 308.341,85.827 308.919,85.2L308.919,86.042L310.569,86.042Z" style="fill:white;fill-rule:nonzero;"/>
        <path d="M320.324,86.042L320.324,74.294L318.641,74.294L318.641,78.518C318.03,77.792 317.337,77.577 316.446,77.577C315.605,77.577 314.879,77.858 314.417,78.32C313.575,79.161 313.476,80.58 313.476,81.851C313.476,83.121 313.575,84.557 314.417,85.398C314.879,85.86 315.621,86.141 316.463,86.141C317.37,86.141 318.047,85.91 318.674,85.151L318.674,86.042L320.324,86.042ZM318.641,81.851C318.641,83.336 318.426,84.639 316.908,84.639C315.39,84.639 315.159,83.336 315.159,81.851C315.159,80.366 315.39,79.079 316.908,79.079C318.426,79.079 318.641,80.366 318.641,81.851Z" style="fill:white;fill-rule:nonzero;"/>
        <path d="M325.214,86.042L325.214,77.676L323.531,77.676L323.531,86.042L325.214,86.042ZM325.264,76.026L325.264,74.244L323.482,74.244L323.482,76.026L325.264,76.026Z" style="fill:white;fill-rule:nonzero;"/>
        <path d="M335.096,82.346L335.096,81.603C335.096,79.227 333.793,77.577 331.549,77.577C329.404,77.577 328.001,79.145 328.001,81.851C328.001,85.035 329.668,86.141 331.763,86.141C333.232,86.141 334.04,85.695 334.898,84.837L333.826,83.831C333.232,84.425 332.737,84.689 331.796,84.689C330.427,84.689 329.668,83.781 329.668,82.346L335.096,82.346ZM333.43,81.174L329.668,81.174C329.684,80.663 329.717,80.415 329.882,80.036C330.146,79.409 330.757,78.98 331.549,78.98C332.341,78.98 332.935,79.409 333.199,80.036C333.364,80.415 333.413,80.663 333.43,81.174Z" style="fill:white;fill-rule:nonzero;"/>
        <path d="M343.767,78.369C343.189,77.792 342.579,77.577 341.77,77.577C340.83,77.577 339.972,77.99 339.543,78.584L339.543,77.676L337.893,77.676L337.893,86.042L339.576,86.042L339.576,80.96C339.576,79.805 340.335,79.079 341.242,79.079C341.82,79.079 342.117,79.26 342.496,79.64L343.767,78.369Z" style="fill:white;fill-rule:nonzero;"/>
        <path d="M352.4,82.346L352.4,81.603C352.4,79.227 351.096,77.577 348.852,77.577C346.707,77.577 345.305,79.145 345.305,81.851C345.305,85.035 346.971,86.141 349.067,86.141C350.535,86.141 351.344,85.695 352.202,84.837L351.129,83.831C350.535,84.425 350.04,84.689 349.1,84.689C347.73,84.689 346.971,83.781 346.971,82.346L352.4,82.346ZM350.733,81.174L346.971,81.174C346.988,80.663 347.021,80.415 347.186,80.036C347.45,79.409 348.06,78.98 348.852,78.98C349.644,78.98 350.238,79.409 350.502,80.036C350.667,80.415 350.717,80.663 350.733,81.174Z" style="fill:white;fill-rule:nonzero;"/>
        <path d="M361.978,86.042L361.978,80.696C361.978,79.755 361.78,78.963 361.136,78.336C360.641,77.858 359.932,77.577 359.074,77.577C358.232,77.577 357.424,77.891 356.846,78.518L356.846,77.676L355.196,77.676L355.196,86.042L356.879,86.042L356.879,80.943C356.879,79.656 357.671,79.079 358.612,79.079C359.552,79.079 360.295,79.64 360.295,80.943L360.295,86.042L361.978,86.042Z" style="fill:white;fill-rule:nonzero;"/>
        <path d="M371.651,86.042L371.651,74.294L369.968,74.294L369.968,78.518C369.358,77.792 368.665,77.577 367.774,77.577C366.932,77.577 366.206,77.858 365.744,78.32C364.903,79.161 364.804,80.58 364.804,81.851C364.804,83.121 364.903,84.557 365.744,85.398C366.206,85.86 366.949,86.141 367.79,86.141C368.698,86.141 369.374,85.91 370.001,85.151L370.001,86.042L371.651,86.042ZM369.968,81.851C369.968,83.336 369.754,84.639 368.236,84.639C366.718,84.639 366.487,83.336 366.487,81.851C366.487,80.366 366.718,79.079 368.236,79.079C369.754,79.079 369.968,80.366 369.968,81.851Z" style="fill:white;fill-rule:nonzero;"/>
        <path d="M381.574,82.346L381.574,81.603C381.574,79.227 380.271,77.577 378.027,77.577C375.882,77.577 374.479,79.145 374.479,81.851C374.479,85.035 376.146,86.141 378.241,86.141C379.71,86.141 380.518,85.695 381.376,84.837L380.304,83.831C379.71,84.425 379.215,84.689 378.274,84.689C376.905,84.689 376.146,83.781 376.146,82.346L381.574,82.346ZM379.908,81.174L376.146,81.174C376.162,80.663 376.195,80.415 376.36,80.036C376.624,79.409 377.235,78.98 378.027,78.98C378.819,78.98 379.413,79.409 379.677,80.036C379.842,80.415 379.891,80.663 379.908,81.174Z" style="fill:white;fill-rule:nonzero;"/>
        <path d="M391.152,86.042L391.152,80.696C391.152,79.755 390.954,78.963 390.311,78.336C389.816,77.858 389.106,77.577 388.248,77.577C387.407,77.577 386.598,77.891 386.021,78.518L386.021,77.676L384.371,77.676L384.371,86.042L386.054,86.042L386.054,80.943C386.054,79.656 386.846,79.079 387.786,79.079C388.727,79.079 389.469,79.64 389.469,80.943L389.469,86.042L391.152,86.042Z" style="fill:white;fill-rule:nonzero;"/>
        <path d="M293.68,102.041L293.68,96.448C293.68,94.55 292.525,93.577 290.231,93.577C288.845,93.577 288.02,93.857 287.228,94.781L288.334,95.821C288.796,95.227 289.241,95.012 290.165,95.012C291.469,95.012 291.997,95.524 291.997,96.58L291.997,97.174L289.786,97.174C287.872,97.174 286.898,98.18 286.898,99.583C286.898,100.292 287.129,100.936 287.558,101.381C288.07,101.893 288.763,102.14 289.802,102.14C290.842,102.14 291.419,101.893 292.03,101.282L292.03,102.041L293.68,102.041ZM291.997,99.022C291.997,99.616 291.881,100.012 291.634,100.259C291.188,100.688 290.71,100.738 290.066,100.738C289.01,100.738 288.532,100.309 288.532,99.55C288.532,98.791 289.043,98.345 290.033,98.345L291.997,98.345L291.997,99.022Z" style="fill:white;fill-rule:nonzero;"/>
        <path d="M303.611,102.042L303.611,96.696C303.611,95.755 303.413,94.963 302.77,94.336C302.275,93.858 301.565,93.577 300.707,93.577C299.866,93.577 299.057,93.891 298.48,94.518L298.48,93.676L296.83,93.676L296.83,102.042L298.513,102.042L298.513,96.943C298.513,95.656 299.305,95.079 300.245,95.079C301.186,95.079 301.928,95.64 301.928,96.943L301.928,102.042L303.611,102.042Z" style="fill:white;fill-rule:nonzero;"/>
        <path d="M317.933,102.042L317.933,90.294L316.25,90.294L316.25,94.518C315.64,93.792 314.947,93.577 314.056,93.577C313.214,93.577 312.488,93.858 312.026,94.32C311.185,95.161 311.086,96.58 311.086,97.851C311.086,99.121 311.185,100.557 312.026,101.398C312.488,101.86 313.231,102.141 314.072,102.141C314.98,102.141 315.656,101.91 316.283,101.151L316.283,102.042L317.933,102.042ZM316.25,97.851C316.25,99.336 316.036,100.639 314.518,100.639C313,100.639 312.769,99.336 312.769,97.851C312.769,96.366 313,95.079 314.518,95.079C316.036,95.079 316.25,96.366 316.25,97.851Z" style="fill:white;fill-rule:nonzero;"/>
        <path d="M327.856,98.346L327.856,97.603C327.856,95.227 326.553,93.577 324.309,93.577C322.164,93.577 320.761,95.145 320.761,97.851C320.761,101.035 322.428,102.141 324.523,102.141C325.992,102.141 326.8,101.695 327.658,100.837L326.586,99.831C325.992,100.425 325.497,100.689 324.556,100.689C323.187,100.689 322.428,99.781 322.428,98.346L327.856,98.346ZM326.19,97.174L322.428,97.174C322.444,96.663 322.477,96.415 322.642,96.036C322.906,95.409 323.517,94.98 324.309,94.98C325.101,94.98 325.695,95.409 325.959,96.036C326.124,96.415 326.173,96.663 326.19,97.174Z" style="fill:white;fill-rule:nonzero;"/>
        <path d="M336.526,94.369C335.949,93.792 335.338,93.577 334.53,93.577C333.589,93.577 332.731,93.99 332.302,94.584L332.302,93.676L330.652,93.676L330.652,102.042L332.335,102.042L332.335,96.96C332.335,95.805 333.094,95.079 334.002,95.079C334.579,95.079 334.876,95.26 335.256,95.64L336.526,94.369Z" style="fill:white;fill-rule:nonzero;"/>
        <path d="M350.881,102.042L350.881,100.441L345.156,100.441L345.156,96.91L350.04,96.91L350.04,95.326L345.156,95.326L345.156,91.894L350.881,91.894L350.881,90.294L343.374,90.294L343.374,102.042L350.881,102.042Z" style="fill:white;fill-rule:nonzero;"/>
        <path d="M361.537,91.894L361.537,90.294L353.287,90.294L353.287,91.894L356.521,91.894L356.521,102.042L358.303,102.042L358.303,91.894L361.537,91.894Z" style="fill:white;fill-rule:nonzero;"/>
        <path d="M372.585,102.042L372.585,90.294L370.803,90.294L370.803,95.31L366.035,95.31L366.035,90.294L364.253,90.294L364.253,102.042L366.035,102.042L366.035,96.91L370.803,96.91L370.803,102.042L372.585,102.042Z" style="fill:white;fill-rule:nonzero;"/>
    </g>
</svg>
