<?xml version="1.0" encoding="UTF-8" standalone="no"?>
<!DOCTYPE svg PUBLIC "-//W3C//DTD SVG 1.1//EN" "http://www.w3.org/Graphics/SVG/1.1/DTD/svg11.dtd">
<svg width="100%" height="100%" viewBox="0 0 1138 134" version="1.1" xmlns="http://www.w3.org/2000/svg" xmlns:xlink="http://www.w3.org/1999/xlink" xml:space="preserve" xmlns:serif="http://www.serif.com/" style="fill-rule:evenodd;clip-rule:evenodd;stroke-linejoin:round;stroke-miterlimit:2;">
    <g transform="matrix(4.16667,0,0,4.16667,0,0)">
        <path d="M175.549,1.253L180.66,1.253L185.771,25.328L185.855,25.328L191.262,1.253L196.372,1.253L188.77,31.41L182.645,31.41L175.549,1.253Z" style="fill:white;fill-rule:nonzero;"/>
        <path d="M200.54,22.076L200.54,22.835C200.54,26.51 202.188,28.369 205.481,28.369C208.48,28.369 210.043,26.172 210.043,23.976C210.043,20.808 208.438,19.414 205.734,18.612L202.44,17.471C198.048,15.782 196.147,13.501 196.147,9.193C196.147,3.703 199.906,0.662 205.523,0.662C213.253,0.662 214.056,5.477 214.056,8.602L214.056,9.278L209.24,9.278L209.24,8.644C209.24,5.899 208.058,4.294 205.017,4.294C202.947,4.294 200.962,5.434 200.962,8.644C200.962,11.221 202.271,12.53 205.481,13.755L208.733,14.938C213,16.457 214.857,18.739 214.857,22.92C214.857,29.34 210.973,32 204.891,32C197.414,32 195.725,27.017 195.725,22.793L195.725,22.076L200.54,22.076Z" style="fill:white;fill-rule:nonzero;"/>
        <path d="M220.735,1.253L220.735,22.877C220.735,26.721 222.256,28.369 225.17,28.369C228.042,28.369 229.563,26.721 229.563,22.877L229.563,1.253L234.378,1.253L234.378,22.497C234.378,29.467 230.914,32 225.17,32C219.384,32 215.92,29.467 215.92,22.497L215.92,1.253L220.735,1.253Z" style="fill:white;fill-rule:nonzero;"/>
        <path d="M234.942,27.608L247.571,5.308L235.703,5.308L235.703,1.253L252.851,1.253L252.851,5.308L240.223,27.355L252.978,27.355L252.978,31.41L234.942,31.41L234.942,27.608Z" style="fill:white;fill-rule:nonzero;"/>
        <path d="M254.307,1.253L259.121,1.253L259.121,13.332L267.991,13.332L267.991,1.253L272.806,1.253L272.806,31.41L267.991,31.41L267.991,17.387L259.121,17.387L259.121,31.41L254.307,31.41L254.307,1.253Z" style="fill:white;fill-rule:nonzero;"/>
        <path d="M0,1.768L1.26,1.768L4.208,13.746L4.246,13.746L7.194,1.768L8.455,1.768L4.969,15.006L3.485,15.006L0,1.768Z" style="fill:white;fill-rule:nonzero;"/>
        <path d="M14.222,9.203C14.197,7.979 14.011,7.117 13.666,6.616C13.319,6.116 12.806,5.865 12.127,5.865C11.434,5.865 10.915,6.116 10.569,6.616C10.223,7.117 10.043,7.979 10.031,9.203L14.222,9.203ZM15.315,11.743C15.229,12.794 14.911,13.638 14.361,14.274C13.811,14.911 13.072,15.229 12.145,15.229C11.626,15.229 11.162,15.133 10.754,14.942C10.346,14.75 10,14.451 9.716,14.042C9.431,13.635 9.215,13.103 9.067,12.448C8.918,11.793 8.844,11.001 8.844,10.075C8.844,8.344 9.138,7.055 9.725,6.208C10.312,5.362 11.15,4.938 12.238,4.938C13.325,4.938 14.126,5.325 14.639,6.097C15.152,6.87 15.408,8.078 15.408,9.722L15.408,10.13L10.031,10.13L10.031,10.594C10.031,11.298 10.089,11.889 10.207,12.365C10.325,12.84 10.479,13.224 10.671,13.514C10.862,13.805 11.085,14.009 11.338,14.126C11.591,14.244 11.855,14.302 12.127,14.302C13.325,14.302 14.018,13.449 14.203,11.743L15.315,11.743Z" style="fill:white;fill-rule:nonzero;"/>
        <path d="M17.151,5.161L18.264,5.161L18.264,6.7L18.301,6.7C18.511,6.144 18.829,5.711 19.256,5.402C19.682,5.093 20.192,4.938 20.786,4.938C20.909,4.938 21.039,4.957 21.175,4.994L21.175,6.106C20.989,6.069 20.81,6.051 20.637,6.051C20.328,6.051 20.031,6.106 19.747,6.218C19.462,6.329 19.21,6.502 18.987,6.737C18.764,6.972 18.588,7.262 18.459,7.608C18.329,7.955 18.264,8.369 18.264,8.851L18.264,15.006L17.151,15.006L17.151,5.161Z" style="fill:white;fill-rule:nonzero;"/>
        <path d="M23.307,10.075C23.307,10.989 23.366,11.725 23.483,12.281C23.601,12.837 23.758,13.264 23.956,13.56C24.154,13.857 24.383,14.055 24.642,14.154C24.902,14.252 25.174,14.302 25.458,14.302C25.73,14.302 25.996,14.252 26.255,14.154C26.515,14.055 26.747,13.857 26.951,13.56C27.155,13.264 27.315,12.837 27.433,12.281C27.55,11.725 27.609,10.989 27.609,10.075C27.609,9.172 27.55,8.443 27.433,7.886C27.315,7.33 27.155,6.904 26.951,6.607C26.747,6.311 26.515,6.113 26.255,6.014C25.996,5.915 25.73,5.865 25.458,5.865C25.174,5.865 24.902,5.915 24.642,6.014C24.383,6.113 24.154,6.311 23.956,6.607C23.758,6.904 23.601,7.33 23.483,7.886C23.366,8.443 23.307,9.172 23.307,10.075ZM22.195,1.768L23.307,1.768L23.307,6.644L23.344,6.644C23.468,6.125 23.725,5.711 24.114,5.402C24.503,5.093 25.013,4.938 25.644,4.938C26.731,4.938 27.529,5.365 28.036,6.218C28.543,7.071 28.796,8.356 28.796,10.075C28.796,11.805 28.543,13.097 28.036,13.95C27.529,14.803 26.731,15.229 25.644,15.229C25.05,15.229 24.537,15.063 24.105,14.729C23.672,14.395 23.381,13.944 23.233,13.375L23.196,13.375L23.196,15.006L22.195,15.006L22.195,1.768Z" style="fill:white;fill-rule:nonzero;"/>
        <path d="M35.045,9.444L35.008,9.444C34.946,9.617 34.788,9.753 34.535,9.852C34.281,9.951 34.043,10.031 33.821,10.093L32.894,10.334C32.337,10.482 31.917,10.711 31.633,11.02C31.348,11.329 31.207,11.78 31.207,12.374C31.207,12.967 31.345,13.437 31.624,13.783C31.902,14.129 32.282,14.302 32.764,14.302C33.444,14.302 33.994,14.061 34.414,13.579C34.835,13.097 35.045,12.411 35.045,11.521L35.045,9.444ZM30.335,8.09C30.335,7.077 30.579,6.298 31.067,5.754C31.556,5.21 32.325,4.938 33.376,4.938C34.389,4.938 35.106,5.179 35.527,5.661C35.947,6.144 36.157,6.774 36.157,7.553L36.157,13.375C36.157,13.919 36.349,14.191 36.732,14.191L37.047,14.191L37.047,15.006C36.837,15.08 36.664,15.118 36.528,15.118C36.095,15.118 35.75,15.04 35.49,14.886C35.23,14.732 35.1,14.401 35.1,13.894L35.1,13.56L35.064,13.56C34.952,13.882 34.81,14.151 34.637,14.368C34.463,14.583 34.266,14.756 34.043,14.886C33.821,15.016 33.58,15.106 33.32,15.155C33.061,15.205 32.794,15.229 32.523,15.229C31.658,15.229 31.024,14.979 30.622,14.479C30.22,13.977 30.02,13.301 30.02,12.448C30.02,11.78 30.174,11.209 30.483,10.733C30.792,10.257 31.299,9.92 32.004,9.722L34.099,9.129C34.296,9.08 34.458,9.024 34.581,8.962C34.705,8.9 34.8,8.813 34.869,8.702C34.937,8.591 34.983,8.446 35.008,8.267C35.032,8.087 35.045,7.856 35.045,7.571C35.045,6.941 34.89,6.499 34.581,6.246C34.272,5.992 33.858,5.865 33.339,5.865C32.671,5.865 32.189,6.057 31.893,6.44C31.596,6.823 31.447,7.374 31.447,8.09L30.335,8.09Z" style="fill:white;fill-rule:nonzero;"/>
        <path d="M38.438,5.161L39.439,5.161L39.439,6.533L39.476,6.533C39.76,5.977 40.122,5.572 40.561,5.318C41,5.065 41.479,4.938 41.998,4.938C42.752,4.938 43.361,5.145 43.824,5.56C44.288,5.974 44.52,6.644 44.52,7.571L44.52,15.006L43.407,15.006L43.407,7.886C43.407,6.539 42.845,5.865 41.72,5.865C41.052,5.865 40.524,6.091 40.134,6.542C39.745,6.994 39.55,7.608 39.55,8.387L39.55,15.006L38.438,15.006L38.438,5.161Z" style="fill:white;fill-rule:nonzero;"/>
        <path d="M47.449,10.075C47.449,10.989 47.507,11.725 47.625,12.281C47.743,12.837 47.903,13.264 48.107,13.56C48.311,13.857 48.54,14.055 48.793,14.154C49.046,14.252 49.315,14.302 49.6,14.302C49.884,14.302 50.156,14.252 50.416,14.154C50.675,14.055 50.904,13.857 51.102,13.56C51.299,13.264 51.457,12.837 51.575,12.281C51.692,11.725 51.751,10.989 51.751,10.075C51.751,9.172 51.692,8.443 51.575,7.886C51.457,7.33 51.299,6.904 51.102,6.607C50.904,6.311 50.675,6.113 50.416,6.014C50.156,5.915 49.884,5.865 49.6,5.865C49.315,5.865 49.046,5.915 48.793,6.014C48.54,6.113 48.311,6.311 48.107,6.607C47.903,6.904 47.743,7.33 47.625,7.886C47.507,8.443 47.449,9.172 47.449,10.075ZM51.862,13.375L51.825,13.375C51.677,13.944 51.386,14.395 50.954,14.729C50.521,15.063 50.008,15.229 49.415,15.229C48.327,15.229 47.529,14.803 47.022,13.95C46.516,13.097 46.262,11.805 46.262,10.075C46.262,8.356 46.516,7.071 47.022,6.218C47.529,5.365 48.327,4.938 49.415,4.938C50.045,4.938 50.555,5.093 50.944,5.402C51.334,5.711 51.59,6.125 51.714,6.644L51.751,6.644L51.751,1.768L52.863,1.768L52.863,15.006L51.862,15.006L51.862,13.375Z" style="fill:white;fill-rule:nonzero;"/>
        <path d="M60.132,10.075C60.132,10.989 60.191,11.725 60.308,12.281C60.425,12.837 60.586,13.264 60.791,13.56C60.995,13.857 61.223,14.055 61.476,14.154C61.73,14.252 61.999,14.302 62.283,14.302C62.567,14.302 62.839,14.252 63.099,14.154C63.359,14.055 63.587,13.857 63.785,13.56C63.983,13.264 64.14,12.837 64.258,12.281C64.376,11.725 64.434,10.989 64.434,10.075C64.434,9.172 64.376,8.443 64.258,7.886C64.14,7.33 63.983,6.904 63.785,6.607C63.587,6.311 63.359,6.113 63.099,6.014C62.839,5.915 62.567,5.865 62.283,5.865C61.999,5.865 61.73,5.915 61.476,6.014C61.223,6.113 60.995,6.311 60.791,6.607C60.586,6.904 60.425,7.33 60.308,7.886C60.191,8.443 60.132,9.172 60.132,10.075ZM64.545,13.375L64.508,13.375C64.36,13.944 64.069,14.395 63.636,14.729C63.204,15.063 62.691,15.229 62.097,15.229C61.009,15.229 60.212,14.803 59.706,13.95C59.199,13.097 58.946,11.805 58.946,10.075C58.946,8.356 59.199,7.071 59.706,6.218C60.212,5.365 61.009,4.938 62.097,4.938C62.728,4.938 63.238,5.093 63.627,5.402C64.017,5.711 64.273,6.125 64.397,6.644L64.434,6.644L64.434,1.768L65.546,1.768L65.546,15.006L64.545,15.006L64.545,13.375Z" style="fill:white;fill-rule:nonzero;"/>
        <path d="M72.555,9.203C72.53,7.979 72.345,7.117 71.999,6.616C71.653,6.116 71.139,5.865 70.46,5.865C69.767,5.865 69.249,6.116 68.902,6.616C68.556,7.117 68.377,7.979 68.365,9.203L72.555,9.203ZM73.649,11.743C73.563,12.794 73.244,13.638 72.694,14.274C72.144,14.911 71.406,15.229 70.478,15.229C69.96,15.229 69.496,15.133 69.087,14.942C68.68,14.75 68.334,14.451 68.049,14.042C67.765,13.635 67.548,13.103 67.4,12.448C67.252,11.793 67.178,11.001 67.178,10.075C67.178,8.344 67.471,7.055 68.058,6.208C68.646,5.362 69.483,4.938 70.571,4.938C71.659,4.938 72.46,5.325 72.972,6.097C73.485,6.87 73.742,8.078 73.742,9.722L73.742,10.13L68.365,10.13L68.365,10.594C68.365,11.298 68.423,11.889 68.541,12.365C68.658,12.84 68.812,13.224 69.004,13.514C69.196,13.805 69.418,14.009 69.671,14.126C69.925,14.244 70.188,14.302 70.46,14.302C71.659,14.302 72.351,13.449 72.537,11.743L73.649,11.743Z" style="fill:white;fill-rule:nonzero;"/>
        <path d="M75.485,5.161L76.598,5.161L76.598,6.7L76.635,6.7C76.845,6.144 77.164,5.711 77.589,5.402C78.016,5.093 78.526,4.938 79.12,4.938C79.243,4.938 79.373,4.957 79.509,4.994L79.509,6.106C79.324,6.069 79.144,6.051 78.971,6.051C78.662,6.051 78.366,6.106 78.082,6.218C77.796,6.329 77.543,6.502 77.321,6.737C77.098,6.972 76.922,7.262 76.793,7.608C76.663,7.955 76.598,8.369 76.598,8.851L76.598,15.006L75.485,15.006L75.485,5.161Z" style="fill:white;fill-rule:nonzero;"/>
        <path d="M90.856,5.161C90.856,4.345 90.665,3.705 90.282,3.242C89.898,2.778 89.298,2.546 88.483,2.546C88.075,2.546 87.716,2.608 87.408,2.731C87.098,2.855 86.838,3.025 86.628,3.242C86.418,3.458 86.258,3.708 86.147,3.993C86.036,4.277 85.98,4.586 85.98,4.919C85.98,5.575 86.137,6.082 86.453,6.44C86.768,6.799 87.164,7.086 87.639,7.302C88.115,7.519 88.631,7.707 89.188,7.868C89.744,8.029 90.26,8.239 90.736,8.499C91.211,8.758 91.607,9.107 91.922,9.546C92.238,9.985 92.395,10.587 92.395,11.354C92.395,11.997 92.299,12.559 92.108,13.041C91.917,13.523 91.644,13.929 91.293,14.256C90.94,14.583 90.519,14.828 90.031,14.989C89.543,15.149 88.996,15.229 88.39,15.229C87.129,15.229 86.171,14.902 85.516,14.247C84.861,13.591 84.534,12.609 84.534,11.298L84.534,10.909L85.72,10.909L85.72,11.41C85.72,12.263 85.936,12.946 86.369,13.458C86.801,13.972 87.463,14.228 88.353,14.228C89.207,14.228 89.895,14.012 90.42,13.579C90.946,13.146 91.209,12.466 91.209,11.539C91.209,11.045 91.116,10.64 90.93,10.325C90.746,10.01 90.504,9.747 90.208,9.537C89.911,9.327 89.568,9.154 89.178,9.018C88.789,8.882 88.396,8.749 88.001,8.619C87.605,8.489 87.212,8.341 86.824,8.174C86.434,8.007 86.091,7.794 85.794,7.534C85.498,7.274 85.256,6.947 85.071,6.551C84.885,6.156 84.793,5.655 84.793,5.049C84.793,4.53 84.877,4.055 85.043,3.622C85.21,3.189 85.448,2.821 85.757,2.519C86.066,2.216 86.446,1.978 86.898,1.805C87.349,1.631 87.865,1.545 88.446,1.545C89.682,1.545 90.59,1.848 91.171,2.454C91.752,3.059 92.043,3.962 92.043,5.161L90.856,5.161Z" style="fill:white;fill-rule:nonzero;"/>
        <path d="M94.398,6.088L93.044,6.088L93.044,5.161L94.398,5.161L94.398,2.435L95.51,2.435L95.51,5.161L97.253,5.161L97.253,6.088L95.51,6.088L95.51,13.152C95.51,13.548 95.597,13.82 95.77,13.968C95.943,14.117 96.209,14.191 96.568,14.191C96.778,14.191 97.006,14.154 97.253,14.08L97.253,15.006C97.118,15.08 96.858,15.118 96.475,15.118C95.72,15.118 95.186,14.995 94.871,14.747C94.555,14.5 94.398,14.049 94.398,13.393L94.398,6.088Z" style="fill:white;fill-rule:nonzero;"/>
        <path d="M98.459,5.161L99.572,5.161L99.572,12.096C99.572,12.912 99.708,13.483 99.979,13.811C100.252,14.139 100.685,14.302 101.277,14.302C101.908,14.302 102.424,14.077 102.826,13.625C103.228,13.174 103.429,12.559 103.429,11.78L103.429,5.161L104.541,5.161L104.541,15.006L103.54,15.006L103.54,13.635L103.503,13.635C103.219,14.191 102.856,14.596 102.418,14.849C101.979,15.102 101.5,15.229 100.981,15.229C100.227,15.229 99.618,15.022 99.154,14.608C98.691,14.194 98.459,13.523 98.459,12.596L98.459,5.161Z" style="fill:white;fill-rule:nonzero;"/>
        <path d="M107.471,10.075C107.471,10.989 107.529,11.725 107.646,12.281C107.764,12.837 107.925,13.264 108.129,13.56C108.333,13.857 108.562,14.055 108.814,14.154C109.068,14.252 109.337,14.302 109.621,14.302C109.905,14.302 110.178,14.252 110.438,14.154C110.697,14.055 110.926,13.857 111.123,13.56C111.321,13.264 111.479,12.837 111.597,12.281C111.714,11.725 111.772,10.989 111.772,10.075C111.772,9.172 111.714,8.443 111.597,7.886C111.479,7.33 111.321,6.904 111.123,6.607C110.926,6.311 110.697,6.113 110.438,6.014C110.178,5.915 109.905,5.865 109.621,5.865C109.337,5.865 109.068,5.915 108.814,6.014C108.562,6.113 108.333,6.311 108.129,6.607C107.925,6.904 107.764,7.33 107.646,7.886C107.529,8.443 107.471,9.172 107.471,10.075ZM111.884,13.375L111.847,13.375C111.698,13.944 111.407,14.395 110.975,14.729C110.542,15.063 110.029,15.229 109.436,15.229C108.348,15.229 107.551,14.803 107.044,13.95C106.537,13.097 106.284,11.805 106.284,10.075C106.284,8.356 106.537,7.071 107.044,6.218C107.551,5.365 108.348,4.938 109.436,4.938C110.066,4.938 110.576,5.093 110.966,5.402C111.355,5.711 111.611,6.125 111.735,6.644L111.772,6.644L111.772,1.768L112.885,1.768L112.885,15.006L111.884,15.006L111.884,13.375Z" style="fill:white;fill-rule:nonzero;"/>
        <path d="M114.998,5.161L116.11,5.161L116.11,15.006L114.998,15.006L114.998,5.161ZM114.998,1.768L116.11,1.768L116.11,3.659L114.998,3.659L114.998,1.768Z" style="fill:white;fill-rule:nonzero;"/>
        <path d="M123.306,9.203C123.28,7.979 123.096,7.117 122.749,6.616C122.403,6.116 121.89,5.865 121.21,5.865C120.518,5.865 119.999,6.116 119.652,6.616C119.307,7.117 119.127,7.979 119.115,9.203L123.306,9.203ZM124.399,11.743C124.313,12.794 123.994,13.638 123.444,14.274C122.895,14.911 122.156,15.229 121.229,15.229C120.71,15.229 120.246,15.133 119.838,14.942C119.431,14.75 119.084,14.451 118.8,14.042C118.516,13.635 118.299,13.103 118.15,12.448C118.003,11.793 117.929,11.001 117.929,10.075C117.929,8.344 118.222,7.055 118.809,6.208C119.396,5.362 120.233,4.938 121.321,4.938C122.409,4.938 123.21,5.325 123.723,6.097C124.235,6.87 124.492,8.078 124.492,9.722L124.492,10.13L119.115,10.13L119.115,10.594C119.115,11.298 119.174,11.889 119.291,12.365C119.408,12.84 119.563,13.224 119.755,13.514C119.946,13.805 120.169,14.009 120.422,14.126C120.676,14.244 120.938,14.302 121.21,14.302C122.409,14.302 123.102,13.449 123.287,11.743L124.399,11.743Z" style="fill:white;fill-rule:nonzero;"/>
        <path d="M126.235,5.161L127.349,5.161L127.349,6.7L127.386,6.7C127.596,6.144 127.914,5.711 128.34,5.402C128.767,5.093 129.276,4.938 129.869,4.938C129.993,4.938 130.123,4.957 130.259,4.994L130.259,6.106C130.074,6.069 129.895,6.051 129.722,6.051C129.412,6.051 129.116,6.106 128.832,6.218C128.547,6.329 128.294,6.502 128.071,6.737C127.849,6.972 127.673,7.262 127.543,7.608C127.413,7.955 127.349,8.369 127.349,8.851L127.349,15.006L126.235,15.006L126.235,5.161Z" style="fill:white;fill-rule:nonzero;"/>
        <path d="M136.359,9.203C136.334,7.979 136.149,7.117 135.803,6.616C135.457,6.116 134.943,5.865 134.264,5.865C133.571,5.865 133.053,6.116 132.706,6.616C132.36,7.117 132.181,7.979 132.169,9.203L136.359,9.203ZM137.453,11.743C137.367,12.794 137.048,13.638 136.498,14.274C135.948,14.911 135.21,15.229 134.282,15.229C133.764,15.229 133.3,15.133 132.892,14.942C132.484,14.75 132.138,14.451 131.854,14.042C131.569,13.635 131.353,13.103 131.204,12.448C131.057,11.793 130.981,11.001 130.981,10.075C130.981,8.344 131.275,7.055 131.862,6.208C132.45,5.362 133.287,4.938 134.375,4.938C135.463,4.938 136.264,5.325 136.776,6.097C137.289,6.87 137.546,8.078 137.546,9.722L137.546,10.13L132.169,10.13L132.169,10.594C132.169,11.298 132.228,11.889 132.345,12.365C132.462,12.84 132.616,13.224 132.809,13.514C133,13.805 133.223,14.009 133.476,14.126C133.729,14.244 133.992,14.302 134.264,14.302C135.463,14.302 136.155,13.449 136.341,11.743L137.453,11.743Z" style="fill:white;fill-rule:nonzero;"/>
        <path d="M139.289,5.161L140.291,5.161L140.291,6.533L140.328,6.533C140.612,5.977 140.974,5.572 141.412,5.318C141.852,5.065 142.33,4.938 142.85,4.938C143.604,4.938 144.212,5.145 144.676,5.56C145.14,5.974 145.371,6.644 145.371,7.571L145.371,15.006L144.259,15.006L144.259,7.886C144.259,6.539 143.696,5.865 142.571,5.865C141.904,5.865 141.375,6.091 140.986,6.542C140.597,6.994 140.402,7.608 140.402,8.387L140.402,15.006L139.289,15.006L139.289,5.161Z" style="fill:white;fill-rule:nonzero;"/>
        <path d="M148.301,10.075C148.301,10.989 148.359,11.725 148.477,12.281C148.594,12.837 148.755,13.264 148.959,13.56C149.163,13.857 149.392,14.055 149.645,14.154C149.898,14.252 150.167,14.302 150.451,14.302C150.735,14.302 151.008,14.252 151.268,14.154C151.527,14.055 151.756,13.857 151.953,13.56C152.151,13.264 152.309,12.837 152.427,12.281C152.544,11.725 152.603,10.989 152.603,10.075C152.603,9.172 152.544,8.443 152.427,7.886C152.309,7.33 152.151,6.904 151.953,6.607C151.756,6.311 151.527,6.113 151.268,6.014C151.008,5.915 150.735,5.865 150.451,5.865C150.167,5.865 149.898,5.915 149.645,6.014C149.392,6.113 149.163,6.311 148.959,6.607C148.755,6.904 148.594,7.33 148.477,7.886C148.359,8.443 148.301,9.172 148.301,10.075ZM152.714,13.375L152.677,13.375C152.528,13.944 152.237,14.395 151.805,14.729C151.372,15.063 150.859,15.229 150.266,15.229C149.178,15.229 148.381,14.803 147.874,13.95C147.367,13.097 147.114,11.805 147.114,10.075C147.114,8.356 147.367,7.071 147.874,6.218C148.381,5.365 149.178,4.938 150.266,4.938C150.896,4.938 151.406,5.093 151.796,5.402C152.186,5.711 152.441,6.125 152.565,6.644L152.603,6.644L152.603,1.768L153.715,1.768L153.715,15.006L152.714,15.006L152.714,13.375Z" style="fill:white;fill-rule:nonzero;"/>
        <path d="M160.724,9.203C160.698,7.979 160.514,7.117 160.167,6.616C159.821,6.116 159.308,5.865 158.628,5.865C157.936,5.865 157.417,6.116 157.07,6.616C156.725,7.117 156.545,7.979 156.533,9.203L160.724,9.203ZM161.817,11.743C161.731,12.794 161.412,13.638 160.862,14.274C160.313,14.911 159.574,15.229 158.646,15.229C158.128,15.229 157.664,15.133 157.256,14.942C156.849,14.75 156.502,14.451 156.218,14.042C155.934,13.635 155.717,13.103 155.568,12.448C155.421,11.793 155.347,11.001 155.347,10.075C155.347,8.344 155.64,7.055 156.227,6.208C156.814,5.362 157.651,4.938 158.739,4.938C159.827,4.938 160.628,5.325 161.141,6.097C161.653,6.87 161.91,8.078 161.91,9.722L161.91,10.13L156.533,10.13L156.533,10.594C156.533,11.298 156.592,11.889 156.709,12.365C156.826,12.84 156.98,13.224 157.173,13.514C157.364,13.805 157.587,14.009 157.84,14.126C158.094,14.244 158.356,14.302 158.628,14.302C159.827,14.302 160.52,13.449 160.705,11.743L161.817,11.743Z" style="fill:white;fill-rule:nonzero;"/>
        <path d="M163.653,5.161L164.655,5.161L164.655,6.533L164.692,6.533C164.977,5.977 165.338,5.572 165.776,5.318C166.216,5.065 166.694,4.938 167.214,4.938C167.968,4.938 168.576,5.145 169.04,5.56C169.504,5.974 169.735,6.644 169.735,7.571L169.735,15.006L168.623,15.006L168.623,7.886C168.623,6.539 168.061,5.865 166.936,5.865C166.269,5.865 165.739,6.091 165.351,6.542C164.961,6.994 164.767,7.608 164.767,8.387L164.767,15.006L163.653,15.006L163.653,5.161Z" style="fill:white;fill-rule:nonzero;"/>
        <path d="M32.968,26.557C32.968,27.471 33.026,28.207 33.144,28.764C33.261,29.32 33.422,29.747 33.626,30.043C33.83,30.34 34.059,30.538 34.312,30.636C34.565,30.735 34.834,30.785 35.119,30.785C35.403,30.785 35.675,30.735 35.935,30.636C36.194,30.538 36.422,30.34 36.621,30.043C36.818,29.747 36.976,29.32 37.093,28.764C37.21,28.207 37.27,27.471 37.27,26.557C37.27,25.655 37.21,24.925 37.093,24.369C36.976,23.813 36.818,23.386 36.621,23.089C36.422,22.793 36.194,22.595 35.935,22.497C35.675,22.397 35.403,22.348 35.119,22.348C34.834,22.348 34.565,22.397 34.312,22.497C34.059,22.595 33.83,22.793 33.626,23.089C33.422,23.386 33.261,23.813 33.144,24.369C33.026,24.925 32.968,25.655 32.968,26.557ZM37.381,29.858L37.344,29.858C37.195,30.426 36.905,30.877 36.472,31.211C36.039,31.545 35.526,31.711 34.933,31.711C33.845,31.711 33.048,31.286 32.541,30.432C32.034,29.58 31.781,28.288 31.781,26.557C31.781,24.838 32.034,23.553 32.541,22.7C33.048,21.847 33.845,21.42 34.933,21.42C35.564,21.42 36.073,21.575 36.463,21.884C36.852,22.194 37.108,22.608 37.232,23.126L37.27,23.126L37.27,18.25L38.382,18.25L38.382,31.489L37.381,31.489L37.381,29.858Z" style="fill:white;fill-rule:nonzero;"/>
        <path d="M45.391,25.686C45.366,24.461 45.18,23.6 44.835,23.098C44.488,22.598 43.975,22.348 43.295,22.348C42.603,22.348 42.084,22.598 41.738,23.098C41.392,23.6 41.212,24.461 41.2,25.686L45.391,25.686ZM46.484,28.225C46.398,29.276 46.08,30.12 45.53,30.756C44.98,31.393 44.241,31.711 43.314,31.711C42.794,31.711 42.331,31.616 41.923,31.424C41.515,31.233 41.169,30.933 40.885,30.525C40.6,30.118 40.384,29.586 40.236,28.93C40.087,28.276 40.013,27.484 40.013,26.557C40.013,24.827 40.307,23.538 40.894,22.691C41.481,21.844 42.319,21.42 43.407,21.42C44.494,21.42 45.295,21.807 45.808,22.58C46.321,23.352 46.577,24.561 46.577,26.205L46.577,26.613L41.2,26.613L41.2,27.077C41.2,27.781 41.258,28.372 41.376,28.847C41.494,29.323 41.648,29.705 41.84,29.997C42.031,30.288 42.254,30.491 42.507,30.608C42.76,30.726 43.023,30.785 43.295,30.785C44.494,30.785 45.187,29.932 45.372,28.225L46.484,28.225Z" style="fill:white;fill-rule:nonzero;"/>
        <path d="M48.321,21.643L49.433,21.643L49.433,23.182L49.47,23.182C49.68,22.625 49.999,22.194 50.425,21.884C50.852,21.575 51.362,21.42 51.955,21.42C52.078,21.42 52.208,21.439 52.344,21.476L52.344,22.588C52.159,22.551 51.98,22.534 51.807,22.534C51.498,22.534 51.201,22.588 50.917,22.7C50.632,22.811 50.379,22.985 50.156,23.219C49.934,23.454 49.758,23.745 49.628,24.09C49.498,24.437 49.433,24.851 49.433,25.332L49.433,31.489L48.321,31.489L48.321,21.643Z" style="fill:white;fill-rule:nonzero;"/>
        <path d="M57.703,18.25L58.89,18.25L58.89,27.762C58.89,29.727 59.755,30.71 61.486,30.71C63.216,30.71 64.082,29.727 64.082,27.762L64.082,18.25L65.268,18.25L65.268,27.781C65.268,29.178 64.944,30.182 64.295,30.793C63.646,31.406 62.71,31.711 61.486,31.711C60.262,31.711 59.326,31.406 58.676,30.793C58.028,30.182 57.703,29.178 57.703,27.781L57.703,18.25Z" style="fill:white;fill-rule:nonzero;"/>
        <path d="M67.197,21.643L68.199,21.643L68.199,23.015L68.236,23.015C68.52,22.459 68.881,22.054 69.32,21.801C69.759,21.547 70.238,21.42 70.757,21.42C71.511,21.42 72.12,21.627 72.584,22.041C73.047,22.455 73.279,23.126 73.279,24.053L73.279,31.489L72.167,31.489L72.167,24.369C72.167,23.022 71.604,22.348 70.479,22.348C69.812,22.348 69.283,22.573 68.894,23.024C68.504,23.476 68.31,24.09 68.31,24.87L68.31,31.489L67.197,31.489L67.197,21.643Z" style="fill:white;fill-rule:nonzero;"/>
        <path d="M75.503,21.643L76.616,21.643L76.616,31.489L75.503,31.489L75.503,21.643ZM75.503,18.25L76.616,18.25L76.616,20.141L75.503,20.141L75.503,18.25Z" style="fill:white;fill-rule:nonzero;"/>
        <path d="M77.895,21.643L79.082,21.643L81.27,30.229L81.307,30.229L83.309,21.643L84.497,21.643L81.9,31.489L80.639,31.489L77.895,21.643Z" style="fill:white;fill-rule:nonzero;"/>
        <path d="M90.671,25.686C90.646,24.461 90.461,23.6 90.115,23.098C89.769,22.598 89.255,22.348 88.576,22.348C87.883,22.348 87.365,22.598 87.018,23.098C86.672,23.6 86.493,24.461 86.481,25.686L90.671,25.686ZM91.765,28.225C91.679,29.276 91.36,30.12 90.81,30.756C90.26,31.393 89.522,31.711 88.594,31.711C88.076,31.711 87.612,31.616 87.204,31.424C86.796,31.233 86.45,30.933 86.166,30.525C85.881,30.118 85.665,29.586 85.516,28.93C85.369,28.276 85.294,27.484 85.294,26.557C85.294,24.827 85.587,23.538 86.174,22.691C86.762,21.844 87.599,21.42 88.687,21.42C89.775,21.42 90.576,21.807 91.088,22.58C91.601,23.352 91.858,24.561 91.858,26.205L91.858,26.613L86.481,26.613L86.481,27.077C86.481,27.781 86.54,28.372 86.657,28.847C86.774,29.323 86.928,29.705 87.121,29.997C87.312,30.288 87.535,30.491 87.788,30.608C88.042,30.726 88.304,30.785 88.576,30.785C89.775,30.785 90.467,29.932 90.653,28.225L91.765,28.225Z" style="fill:white;fill-rule:nonzero;"/>
        <path d="M93.6,21.643L94.713,21.643L94.713,23.182L94.751,23.182C94.96,22.625 95.279,22.194 95.705,21.884C96.131,21.575 96.641,21.42 97.235,21.42C97.358,21.42 97.488,21.439 97.625,21.476L97.625,22.588C97.439,22.551 97.259,22.534 97.086,22.534C96.777,22.534 96.481,22.588 96.197,22.7C95.912,22.811 95.659,22.985 95.436,23.219C95.213,23.454 95.038,23.745 94.908,24.09C94.778,24.437 94.713,24.851 94.713,25.332L94.713,31.489L93.6,31.489L93.6,21.643Z" style="fill:white;fill-rule:nonzero;"/>
        <path d="M100.313,26.594C99.609,26.323 99.118,25.989 98.839,25.592C98.561,25.198 98.422,24.752 98.422,24.258C98.422,23.75 98.496,23.319 98.644,22.959C98.793,22.601 98.997,22.307 99.256,22.079C99.516,21.85 99.825,21.684 100.184,21.579C100.542,21.473 100.932,21.42 101.353,21.42C102.279,21.42 102.962,21.653 103.401,22.116C103.84,22.58 104.06,23.262 104.06,24.164L104.06,24.443L102.946,24.443L102.946,24.164C102.946,23.522 102.808,23.059 102.529,22.774C102.251,22.491 101.853,22.348 101.334,22.348C100.666,22.348 100.199,22.502 99.933,22.811C99.668,23.121 99.535,23.522 99.535,24.016C99.535,24.363 99.618,24.672 99.785,24.944C99.952,25.215 100.313,25.457 100.87,25.666L102.483,26.279C103.15,26.526 103.624,26.866 103.901,27.299C104.18,27.731 104.319,28.225 104.319,28.782C104.319,29.203 104.257,29.592 104.134,29.95C104.01,30.309 103.824,30.618 103.577,30.877C103.33,31.137 103.015,31.34 102.632,31.489C102.248,31.637 101.797,31.711 101.278,31.711C100.265,31.711 99.506,31.48 99.006,31.016C98.505,30.553 98.255,29.764 98.255,28.653L98.255,28.336L99.368,28.336L99.368,28.596C99.368,30.055 99.998,30.785 101.26,30.785C101.853,30.785 102.325,30.63 102.678,30.321C103.03,30.012 103.206,29.58 103.206,29.023C103.206,28.59 103.107,28.229 102.91,27.938C102.712,27.648 102.365,27.404 101.871,27.205L100.313,26.594Z" style="fill:white;fill-rule:nonzero;"/>
        <path d="M106.043,21.643L107.155,21.643L107.155,31.489L106.043,31.489L106.043,21.643ZM106.043,18.25L107.155,18.25L107.155,20.141L106.043,20.141L106.043,18.25Z" style="fill:white;fill-rule:nonzero;"/>
        <path d="M109.788,22.571L108.435,22.571L108.435,21.643L109.788,21.643L109.788,18.917L110.9,18.917L110.9,21.643L112.644,21.643L112.644,22.571L110.9,22.571L110.9,29.635C110.9,30.031 110.987,30.303 111.16,30.451C111.333,30.599 111.599,30.673 111.958,30.673C112.168,30.673 112.396,30.636 112.644,30.562L112.644,31.489C112.508,31.563 112.248,31.6 111.865,31.6C111.11,31.6 110.576,31.477 110.261,31.229C109.945,30.983 109.788,30.532 109.788,29.875L109.788,22.571Z" style="fill:white;fill-rule:nonzero;"/>
        <path d="M117.465,18.157L118.577,18.157L118.577,20.048L117.465,20.048L117.465,18.157ZM114.684,18.157L115.796,18.157L115.796,20.048L114.684,20.048L114.684,18.157ZM118.354,25.926L118.317,25.926C118.256,26.1 118.098,26.236 117.845,26.334C117.592,26.434 117.354,26.514 117.131,26.576L116.204,26.817C115.647,26.965 115.228,27.194 114.943,27.502C114.658,27.811 114.517,28.262 114.517,28.856C114.517,29.45 114.655,29.919 114.934,30.266C115.212,30.612 115.592,30.785 116.074,30.785C116.754,30.785 117.304,30.543 117.725,30.061C118.145,29.58 118.354,28.893 118.354,28.003L118.354,25.926ZM113.645,24.573C113.645,23.559 113.889,22.781 114.377,22.237C114.865,21.693 115.635,21.42 116.686,21.42C117.699,21.42 118.416,21.662 118.837,22.143C119.257,22.625 119.468,23.256 119.468,24.036L119.468,29.858C119.468,30.402 119.659,30.673 120.042,30.673L120.357,30.673L120.357,31.489C120.147,31.563 119.974,31.6 119.838,31.6C119.405,31.6 119.06,31.523 118.8,31.369C118.54,31.214 118.41,30.883 118.41,30.376L118.41,30.043L118.373,30.043C118.262,30.365 118.12,30.633 117.947,30.85C117.773,31.066 117.576,31.239 117.354,31.369C117.131,31.498 116.89,31.588 116.63,31.637C116.371,31.687 116.104,31.711 115.833,31.711C114.968,31.711 114.334,31.461 113.933,30.961C113.53,30.459 113.33,29.784 113.33,28.93C113.33,28.262 113.484,27.692 113.793,27.215C114.103,26.739 114.609,26.403 115.313,26.205L117.409,25.612C117.606,25.562 117.768,25.506 117.892,25.444C118.015,25.383 118.11,25.295 118.179,25.184C118.246,25.074 118.293,24.928 118.317,24.748C118.343,24.57 118.354,24.338 118.354,24.053C118.354,23.423 118.2,22.981 117.892,22.728C117.582,22.475 117.168,22.348 116.648,22.348C115.981,22.348 115.499,22.539 115.202,22.922C114.906,23.305 114.758,23.856 114.758,24.573L113.645,24.573Z" style="fill:white;fill-rule:nonzero;"/>
        <path d="M122.23,22.571L120.877,22.571L120.877,21.643L122.23,21.643L122.23,18.917L123.343,18.917L123.343,21.643L125.086,21.643L125.086,22.571L123.343,22.571L123.343,29.635C123.343,30.031 123.43,30.303 123.603,30.451C123.775,30.599 124.041,30.673 124.4,30.673C124.61,30.673 124.839,30.636 125.086,30.562L125.086,31.489C124.95,31.563 124.69,31.6 124.308,31.6C123.553,31.6 123.019,31.477 122.703,31.229C122.388,30.983 122.23,30.532 122.23,29.875L122.23,22.571Z" style="fill:white;fill-rule:nonzero;"/>
        <path d="M130.074,30.376L136.526,19.25L130.444,19.25L130.444,18.25L137.732,18.25L137.732,19.362L131.391,30.488L137.825,30.488L137.825,31.489L130.074,31.489L130.074,30.376Z" style="fill:white;fill-rule:nonzero;"/>
        <path d="M143.165,18.157L144.277,18.157L144.277,20.048L143.165,20.048L143.165,18.157ZM140.384,18.157L141.496,18.157L141.496,20.048L140.384,20.048L140.384,18.157ZM139.308,21.643L140.421,21.643L140.421,28.579C140.421,29.394 140.557,29.965 140.828,30.293C141.101,30.622 141.533,30.785 142.126,30.785C142.757,30.785 143.272,30.559 143.675,30.108C144.076,29.657 144.277,29.041 144.277,28.262L144.277,21.643L145.39,21.643L145.39,31.489L144.389,31.489L144.389,30.118L144.352,30.118C144.067,30.673 143.705,31.079 143.267,31.331C142.828,31.584 142.349,31.711 141.83,31.711C141.075,31.711 140.467,31.504 140.003,31.09C139.54,30.676 139.308,30.006 139.308,29.079L139.308,21.643Z" style="fill:white;fill-rule:nonzero;"/>
        <path d="M147.54,21.643L148.653,21.643L148.653,23.182L148.69,23.182C148.9,22.625 149.219,22.194 149.645,21.884C150.071,21.575 150.581,21.42 151.175,21.42C151.298,21.42 151.428,21.439 151.564,21.476L151.564,22.588C151.379,22.551 151.199,22.534 151.026,22.534C150.717,22.534 150.421,22.588 150.137,22.7C149.852,22.811 149.599,22.985 149.376,23.219C149.153,23.454 148.978,23.745 148.848,24.09C148.718,24.437 148.653,24.851 148.653,25.332L148.653,31.489L147.54,31.489L147.54,21.643Z" style="fill:white;fill-rule:nonzero;"/>
        <path d="M152.77,21.643L153.882,21.643L153.882,31.489L152.77,31.489L152.77,21.643ZM152.77,18.25L153.882,18.25L153.882,20.141L152.77,20.141L152.77,18.25Z" style="fill:white;fill-rule:nonzero;"/>
        <path d="M162.021,28.225C161.936,29.276 161.623,30.12 161.085,30.756C160.548,31.393 159.815,31.711 158.888,31.711C158.369,31.711 157.905,31.616 157.497,31.424C157.09,31.233 156.743,30.933 156.459,30.525C156.175,30.118 155.958,29.586 155.81,28.93C155.662,28.276 155.588,27.484 155.588,26.557C155.588,24.827 155.881,23.538 156.469,22.691C157.056,21.844 157.893,21.42 158.98,21.42C159.908,21.42 160.631,21.693 161.15,22.237C161.67,22.781 161.96,23.559 162.021,24.573L160.909,24.573C160.848,23.793 160.659,23.229 160.344,22.875C160.028,22.524 159.574,22.348 158.98,22.348C158.685,22.348 158.399,22.403 158.128,22.514C157.855,22.625 157.621,22.839 157.423,23.155C157.226,23.469 157.067,23.903 156.95,24.452C156.833,25.002 156.774,25.71 156.774,26.576C156.774,27.502 156.836,28.245 156.96,28.801C157.083,29.357 157.24,29.78 157.433,30.071C157.624,30.362 157.847,30.553 158.1,30.645C158.354,30.739 158.61,30.785 158.869,30.785C160.031,30.785 160.711,29.932 160.909,28.225L162.021,28.225Z" style="fill:white;fill-rule:nonzero;"/>
        <path d="M163.653,18.25L164.767,18.25L164.767,23.015L164.804,23.015C164.939,22.497 165.227,22.1 165.665,21.829C166.104,21.557 166.62,21.42 167.214,21.42C167.968,21.42 168.576,21.627 169.04,22.041C169.504,22.455 169.735,23.126 169.735,24.053L169.735,31.489L168.623,31.489L168.623,24.369C168.623,23.022 168.061,22.348 166.936,22.348C166.269,22.348 165.739,22.573 165.351,23.024C164.961,23.476 164.767,24.09 164.767,24.87L164.767,31.489L163.653,31.489L163.653,18.25Z" style="fill:white;fill-rule:nonzero;"/>
    </g>
</svg>
