<?xml version="1.0" encoding="UTF-8"?><svg id="Ebene_1" xmlns="http://www.w3.org/2000/svg" viewBox="0 0 1112.86 1166.86"><defs><style>.cls-1{fill:#fff;}</style></defs><path class="cls-1" d="M346.64,189.48l-51.07,220.51-52.29-220.91h-69.31l56.75,231.86c9.32,37.7,40.53,55.93,64.85,55.93s55.94-18.24,64.45-55.93l53.51-231.86-66.88,.41Z"/><path class="cls-1" d="M346.64,189.48l-51.07,220.51-52.29-220.91h-69.31l56.75,231.86c9.32,37.7,40.53,55.93,64.85,55.93s55.94-18.24,64.45-55.93l53.51-231.86-66.88,.41Z"/><path class="cls-1" d="M882.63,244.7l-105.12,104.5c-5.84,5.8-15.18,2.71-15.18-6.2v-44.12c0-15.87-11.68-27.48-27.64-27.48s-26.87,10.84-26.87,27.48v160.63h161.97c15.97,0,27.26-11.61,27.26-27.09s-12.07-27.09-28.03-27.09h-44c-8.95,0-12.07-9.29-6.23-15.09l105.12-104.5-41.27-41.03Z"/><path class="cls-1" d="M882.63,244.7l-105.12,104.5c-5.84,5.8-15.18,2.71-15.18-6.2v-44.12c0-15.87-11.68-27.48-27.64-27.48s-26.87,10.84-26.87,27.48v160.63h161.97c15.97,0,27.26-11.61,27.26-27.09s-12.07-27.09-28.03-27.09h-44c-8.95,0-12.07-9.29-6.23-15.09l105.12-104.5-41.27-41.03Z"/><path class="cls-1" d="M433.51,793.11h225.23v-59.98h-88.54c-15.92,0-24.46-15.2-16.7-29.59l104.46-190.34h-218.63v59.98h81.94c15.92,0,24.47,15.19,16.7,29.59l-104.46,190.34Z"/><path class="cls-1" d="M433.51,793.11h225.23v-59.98h-88.54c-15.92,0-24.46-15.2-16.7-29.59l104.46-190.34h-218.63v59.98h81.94c15.92,0,24.47,15.19,16.7,29.59l-104.46,190.34Z"/><path class="cls-1" d="M701.25,793.11h64.03v-85.63c0-16.41,12-28.41,28.41-28.41h31.22c16.41,0,28.41,12.01,28.41,28.41v85.63h64.03v-280.11h-64.03v77.63c0,16.41-12,28.41-28.41,28.41h-31.22c-16.41,0-28.41-12-28.41-28.41v-77.63h-64.03v280.11Z"/><path class="cls-1" d="M701.25,793.11h64.03v-85.63c0-16.41,12-28.41,28.41-28.41h31.22c16.41,0,28.41,12.01,28.41,28.41v85.63h64.03v-280.11h-64.03v77.63c0,16.41-12,28.41-28.41,28.41h-31.22c-16.41,0-28.41-12-28.41-28.41v-77.63h-64.03v280.11Z"/><path class="cls-1" d="M295.17,803.85c71.5,0,112.35-39.33,112.35-109.79v-181.07h-65.37v188.44c0,29.09-20.02,29.09-46.99,29.09s-46.99,0-46.99-29.09v-188.44h-65.37v181.07c0,70.46,40.86,109.79,112.35,109.79"/><path class="cls-1" d="M295.17,803.85c71.5,0,112.35-39.33,112.35-109.79v-181.07h-65.37v188.44c0,29.09-20.02,29.09-46.99,29.09s-46.99,0-46.99-29.09v-188.44h-65.37v181.07c0,70.46,40.86,109.79,112.35,109.79Z"/><path class="cls-1" d="M439.4,459.51h210.55v-87.39c0-45.63-33.22-78.89-78.81-78.89h-40.56c-15.84,0-26.27-8.9-26.27-22.43s10.43-22.04,26.27-22.04h112.03v-59.94h-115.9c-47.9,0-86.15,32.87-86.15,82.37s38.25,80.05,86.15,80.05h27.43c17.77,0,28.98,10.44,28.98,23.97s-11.2,24.36-28.98,24.36h-114.74v59.94Z"/><path class="cls-1" d="M439.4,459.51h210.55v-87.39c0-45.63-33.22-78.89-78.81-78.89h-40.56c-15.84,0-26.27-8.9-26.27-22.43s10.43-22.04,26.27-22.04h112.03v-59.94h-115.9c-47.9,0-86.15,32.87-86.15,82.37s38.25,80.05,86.15,80.05h27.43c17.77,0,28.98,10.44,28.98,23.97s-11.2,24.36-28.98,24.36h-114.74v59.94Z"/><path class="cls-1" d="M789.44,930.8c-6.47,0-10.92,3.9-12.95,9.36v-24.02h-8.89v53.74h8.89v-19.11c0-7.8,3.98-12.48,9.6-12.48,4.83,0,7.18,3.04,7.18,9.2v22.38h8.97v-24.57c0-8.66-4.53-14.51-12.79-14.51m-45.32,40.02c9.36,0,14.66-4.99,16.77-12.09l-7.72-2.5c-1.41,5.15-4.37,7.64-8.74,7.64-5.85,0-9.44-4.68-9.44-13.03,0-9.13,3.9-13.42,9.36-13.42,4.37,0,6.94,2.5,8.19,7.02l7.88-2.26c-1.87-7.02-7.17-11.7-15.83-11.7-10.69,0-18.64,7.41-18.64,20.12s7.02,20.2,18.17,20.2m-25.74-39.16h-8.89v38.22h8.89v-38.22Zm-.08-15.83h-8.74v9.2h8.74v-9.2Zm-30.03,54.05v-16.23c0-9.82,5.07-14.04,12.87-14.04,.94,0,1.64,0,2.34,.16v-9.13c-.55-.08-1.01-.08-1.56-.08-6.94,0-11.54,4.53-13.81,11.54v-10.45h-8.66v38.22h8.81Zm-40.09,.86c6.47,0,10.92-3.98,12.94-9.44v8.58h8.74v-38.22h-8.89v18.87c0,8.43-4.06,12.72-9.59,12.72-4.37,0-6.55-2.97-6.55-9.05v-22.54h-8.81v24.73c0,8.74,4.13,14.35,12.17,14.35m16.61-54.91h-8.58v9.2h8.58v-9.2Zm-15.68,0h-8.66v9.2h8.66v-9.2Zm-19.11,54.05v-7.96h-29.33l29.25-39.15v-6.63h-38.68v7.88h27.22l-28.78,38.69v7.18h40.32Zm-79.63-31.51v20.59c0,7.88,4.13,11.7,11.86,11.7,2.81,0,5.3-.7,6.71-1.4v-6.55c-1.56,.47-2.81,.7-4.37,.7-3.82,0-5.62-1.48-5.62-5.62v-19.42h9.59v-6.71h-9.67v-11.39h-8.5v11.39h-8.42v6.71h8.42Zm-31.98,26.05c-4.13,0-6.63-2.18-6.63-5.77,0-5.3,4.53-7.25,11.77-7.41,1.48,0,2.81,.08,4.06,.15v2.73c0,6.48-3.67,10.3-9.2,10.3m21.21-.31c-2.34,0-3.43-1.01-3.43-4.37v-14.35c0-9.67-5.85-14.9-16.46-14.9-9.2,0-15.75,4.68-16.15,11.54l8.35,1.41v-.7c.31-3.98,3.27-6.16,7.8-6.16,5.54,0,7.88,2.65,7.88,7.49v2.11c-1.87-.15-3.82-.31-6.16-.31-10.21,.16-18.41,3.67-18.41,13.42,0,7.49,5.23,11.7,12.48,11.7,6.47,0,10.92-3.43,12.87-8.27,.31,4.99,3.2,7.88,8.5,7.88,1.95,0,3.98-.47,5.23-1.25v-5.69c-.86,.39-1.71,.47-2.5,.47m-16.22-39.08h8.58v-9.2h-8.58v9.2Zm-15.68,0h8.66v-9.2h-8.66v9.2Zm-28.47,13.34v20.59c0,7.88,4.13,11.7,11.86,11.7,2.81,0,5.3-.7,6.71-1.4v-6.55c-1.56,.47-2.81,.7-4.37,.7-3.82,0-5.62-1.48-5.62-5.62v-19.42h9.59v-6.71h-9.67v-11.39h-8.5v11.39h-8.42v6.71h8.42Zm-13.8-6.71h-8.89v38.22h8.89v-38.22Zm-.08-15.83h-8.74v9.2h8.74v-9.2Zm-48.99,43.83c1.33,6.63,7.41,11.31,16.85,11.31s15.91-4.6,15.91-12.17c0-5.38-3.12-9.36-10.53-11.31l-6.63-1.8c-4.21-1.17-6-2.26-6-4.91,0-2.5,2.26-4.29,6.55-4.29,4.92,0,7.33,3.04,8.04,6.16l7.56-2.03c-1.64-6.32-7.49-10.14-15.21-10.14-8.74,0-14.9,4.37-14.9,11.31,0,5.46,3.51,9.36,10.37,11.07l6.24,1.71c4.68,1.25,6.16,2.5,6.16,5.31s-2.5,4.99-7.41,4.99-8.42-3.2-9.2-7.41l-7.8,2.18Zm-17.86,10.22v-16.23c0-9.82,5.07-14.04,12.87-14.04,.93,0,1.64,0,2.34,.16v-9.13c-.55-.08-1.01-.08-1.56-.08-6.94,0-11.54,4.53-13.8,11.54v-10.45h-8.66v38.22h8.81Zm-34.32-32.84c5.15,0,8.58,3.12,8.89,9.36h-18.25c.62-5.93,4.06-9.36,9.36-9.36m17.78,13.88c0-12.48-6.39-20.43-17.71-20.43-10.45,0-18.41,7.41-18.41,20.12s6.63,20.12,18.64,20.12c9.28,0,14.98-5.07,17.32-11.07l-7.33-3.04c-1.72,4.53-4.84,7.33-9.67,7.33-6.71,0-9.98-4.68-10.22-11.47h27.38v-1.56Zm-57.72,10.22l-9.91-29.48h-9.75l14.66,38.22h9.28l14.82-38.22h-8.89l-10.22,29.48Zm-25.11-29.48h-8.89v38.22h8.89v-38.22Zm-.08-15.83h-8.74v9.2h8.74v-9.2Zm-30.89,14.97c-6.63,0-11.16,4.13-13.1,9.83v-8.97h-8.66v38.22h8.89v-19.11c0-7.8,3.98-12.48,9.6-12.48,4.83,0,7.17,3.04,7.17,9.2v22.38h8.97v-24.57c0-8.66-4.53-14.51-12.87-14.51m-52.41,40.25c12.56,0,21.14-6.39,21.14-21.14v-33.77h-9.36v33.39c0,9.82-4.53,13.33-11.62,13.33s-11.7-3.51-11.7-13.33v-33.39h-9.44v33.62c0,14.66,8.35,21.29,20.98,21.29"/><path class="cls-1" d="M789.44,930.8c-6.47,0-10.92,3.9-12.95,9.36v-24.02h-8.89v53.74h8.89v-19.11c0-7.8,3.98-12.48,9.6-12.48,4.83,0,7.18,3.04,7.18,9.2v22.38h8.97v-24.57c0-8.66-4.53-14.51-12.79-14.51Zm-45.32,40.02c9.36,0,14.66-4.99,16.77-12.09l-7.72-2.5c-1.41,5.15-4.37,7.64-8.74,7.64-5.85,0-9.44-4.68-9.44-13.03,0-9.13,3.9-13.42,9.36-13.42,4.37,0,6.94,2.5,8.19,7.02l7.88-2.26c-1.87-7.02-7.17-11.7-15.83-11.7-10.69,0-18.64,7.41-18.64,20.12s7.02,20.2,18.17,20.2Zm-25.74-39.16h-8.89v38.22h8.89v-38.22Zm-.08-15.83h-8.74v9.2h8.74v-9.2Zm-30.03,54.05v-16.23c0-9.82,5.07-14.04,12.87-14.04,.94,0,1.64,0,2.34,.16v-9.13c-.55-.08-1.01-.08-1.56-.08-6.94,0-11.54,4.53-13.81,11.54v-10.45h-8.66v38.22h8.81Zm-40.09,.86c6.47,0,10.92-3.98,12.94-9.44v8.58h8.74v-38.22h-8.89v18.87c0,8.43-4.06,12.72-9.59,12.72-4.37,0-6.55-2.97-6.55-9.05v-22.54h-8.81v24.73c0,8.74,4.13,14.35,12.17,14.35Zm16.61-54.91h-8.58v9.2h8.58v-9.2Zm-15.68,0h-8.66v9.2h8.66v-9.2Zm-19.11,54.05v-7.96h-29.33l29.25-39.15v-6.63h-38.68v7.88h27.22l-28.78,38.69v7.18h40.32Zm-79.63-31.51v20.59c0,7.88,4.13,11.7,11.86,11.7,2.81,0,5.3-.7,6.71-1.4v-6.55c-1.56,.47-2.81,.7-4.37,.7-3.82,0-5.62-1.48-5.62-5.62v-19.42h9.59v-6.71h-9.67v-11.39h-8.5v11.39h-8.42v6.71h8.42Zm-31.98,26.05c-4.13,0-6.63-2.18-6.63-5.77,0-5.3,4.53-7.25,11.77-7.41,1.48,0,2.81,.08,4.06,.15v2.73c0,6.48-3.67,10.3-9.2,10.3Zm21.21-.31c-2.34,0-3.43-1.01-3.43-4.37v-14.35c0-9.67-5.85-14.9-16.46-14.9-9.2,0-15.75,4.68-16.15,11.54l8.35,1.41v-.7c.31-3.98,3.27-6.16,7.8-6.16,5.54,0,7.88,2.65,7.88,7.49v2.11c-1.87-.15-3.82-.31-6.16-.31-10.21,.16-18.41,3.67-18.41,13.42,0,7.49,5.23,11.7,12.48,11.7,6.47,0,10.92-3.43,12.87-8.27,.31,4.99,3.2,7.88,8.5,7.88,1.95,0,3.98-.47,5.23-1.25v-5.69c-.86,.39-1.71,.47-2.5,.47Zm-16.22-39.08h8.58v-9.2h-8.58v9.2Zm-15.68,0h8.66v-9.2h-8.66v9.2Zm-28.47,13.34v20.59c0,7.88,4.13,11.7,11.86,11.7,2.81,0,5.3-.7,6.71-1.4v-6.55c-1.56,.47-2.81,.7-4.37,.7-3.82,0-5.62-1.48-5.62-5.62v-19.42h9.59v-6.71h-9.67v-11.39h-8.5v11.39h-8.42v6.71h8.42Zm-13.8-6.71h-8.89v38.22h8.89v-38.22Zm-.08-15.83h-8.74v9.2h8.74v-9.2Zm-48.99,43.83c1.33,6.63,7.41,11.31,16.85,11.31s15.91-4.6,15.91-12.17c0-5.38-3.12-9.36-10.53-11.31l-6.63-1.8c-4.21-1.17-6-2.26-6-4.91,0-2.5,2.26-4.29,6.55-4.29,4.92,0,7.33,3.04,8.04,6.16l7.56-2.03c-1.64-6.32-7.49-10.14-15.21-10.14-8.74,0-14.9,4.37-14.9,11.31,0,5.46,3.51,9.36,10.37,11.07l6.24,1.71c4.68,1.25,6.16,2.5,6.16,5.31s-2.5,4.99-7.41,4.99-8.42-3.2-9.2-7.41l-7.8,2.18Zm-17.86,10.22v-16.23c0-9.82,5.07-14.04,12.87-14.04,.93,0,1.64,0,2.34,.16v-9.13c-.55-.08-1.01-.08-1.56-.08-6.94,0-11.54,4.53-13.8,11.54v-10.45h-8.66v38.22h8.81Zm-34.32-32.84c5.15,0,8.58,3.12,8.89,9.36h-18.25c.62-5.93,4.06-9.36,9.36-9.36Zm17.78,13.88c0-12.48-6.39-20.43-17.71-20.43-10.45,0-18.41,7.41-18.41,20.12s6.63,20.12,18.64,20.12c9.28,0,14.98-5.07,17.32-11.07l-7.33-3.04c-1.72,4.53-4.84,7.33-9.67,7.33-6.71,0-9.98-4.68-10.22-11.47h27.38v-1.56Zm-57.72,10.22l-9.91-29.48h-9.75l14.66,38.22h9.28l14.82-38.22h-8.89l-10.22,29.48Zm-25.11-29.48h-8.89v38.22h8.89v-38.22Zm-.08-15.83h-8.74v9.2h8.74v-9.2Zm-30.89,14.97c-6.63,0-11.16,4.13-13.1,9.83v-8.97h-8.66v38.22h8.89v-19.11c0-7.8,3.98-12.48,9.6-12.48,4.83,0,7.17,3.04,7.17,9.2v22.38h8.97v-24.57c0-8.66-4.53-14.51-12.87-14.51Zm-52.41,40.25c12.56,0,21.14-6.39,21.14-21.14v-33.77h-9.36v33.39c0,9.82-4.53,13.33-11.62,13.33s-11.7-3.51-11.7-13.33v-33.39h-9.44v33.62c0,14.66,8.35,21.29,20.98,21.29Z"/><path class="cls-1" d="M901.13,862.59c5.15,0,8.58,3.12,8.89,9.36h-18.25c.62-5.93,4.06-9.36,9.36-9.36m17.78,13.88c0-12.48-6.39-20.43-17.71-20.43-10.45,0-18.41,7.41-18.41,20.12s6.63,20.12,18.64,20.12c9.28,0,14.98-5.07,17.31-11.08l-7.33-3.04c-1.71,4.53-4.83,7.34-9.67,7.34-6.71,0-9.98-4.68-10.21-11.47h27.37v-1.56Zm-62.24,13.26c-6.09,0-9.67-4.68-9.67-13.49s3.67-13.34,9.75-13.34,9.59,4.99,9.59,13.42-3.67,13.42-9.67,13.42m9.51-25.27c-1.87-4.52-5.85-8.19-12.25-8.19-9.44,0-15.99,7.64-15.99,20.04s6.55,20.05,15.6,20.05c6.32,0,10.68-3.43,12.79-8.27v7.33h8.81v-53.74h-8.97v22.78Zm-48.36-8.11c-6.63,0-11.16,4.13-13.1,9.83v-8.97h-8.66v38.22h8.89v-19.11c0-7.8,3.98-12.48,9.6-12.48,4.83,0,7.17,3.04,7.17,9.2v22.38h8.97v-24.57c0-8.66-4.53-14.51-12.87-14.51m-47.27,6.24c5.15,0,8.58,3.12,8.89,9.36h-18.25c.62-5.93,4.06-9.36,9.36-9.36m17.78,13.88c0-12.48-6.39-20.43-17.71-20.43-10.45,0-18.41,7.41-18.41,20.12s6.63,20.12,18.64,20.12c9.28,0,14.97-5.07,17.31-11.08l-7.33-3.04c-1.72,4.53-4.84,7.34-9.67,7.34-6.71,0-9.98-4.68-10.22-11.47h27.38v-1.56Zm-54.21,18.96v-16.22c0-9.83,5.07-14.04,12.87-14.04,.93,0,1.64,0,2.34,.15v-9.13c-.55-.08-1.01-.08-1.56-.08-6.94,0-11.54,4.53-13.81,11.54v-10.45h-8.66v38.22h8.81Zm-34.32-32.84c5.15,0,8.58,3.12,8.89,9.36h-18.25c.62-5.93,4.06-9.36,9.36-9.36m17.78,13.88c0-12.48-6.39-20.43-17.71-20.43-10.45,0-18.41,7.41-18.41,20.12s6.63,20.12,18.64,20.12c9.28,0,14.98-5.07,17.32-11.08l-7.33-3.04c-1.72,4.53-4.84,7.34-9.67,7.34-6.71,0-9.98-4.68-10.22-11.47h27.38v-1.56Zm-43.68-19.27h-8.89v38.22h8.89v-38.22Zm-.08-15.83h-8.74v9.2h8.74v-9.2Zm-36.97,48.36c-6.09,0-9.67-4.68-9.67-13.49s3.67-13.34,9.75-13.34,9.59,4.99,9.59,13.42-3.67,13.42-9.67,13.42m9.51-25.27c-1.87-4.52-5.85-8.19-12.25-8.19-9.44,0-15.99,7.64-15.99,20.04s6.55,20.05,15.6,20.05c6.32,0,10.68-3.43,12.79-8.27v7.33h8.81v-53.74h-8.97v22.78Zm-57.56,31.83c6.48,0,10.92-3.98,12.95-9.44v8.58h8.74v-38.22h-8.89v18.88c0,8.42-4.06,12.71-9.6,12.71-4.37,0-6.55-2.97-6.55-9.05v-22.54h-8.81v24.73c0,8.74,4.13,14.35,12.17,14.35m-37.36-32.37v20.59c0,7.88,4.13,11.7,11.86,11.7,2.81,0,5.3-.7,6.71-1.4v-6.55c-1.56,.47-2.81,.7-4.37,.7-3.82,0-5.62-1.48-5.62-5.61v-19.42h9.59v-6.71h-9.67v-11.39h-8.5v11.39h-8.42v6.71h8.42Zm-50.85,16.85c1.4,9.05,7.33,15.83,20.12,15.83,11.86,0,19.11-6.39,19.11-15.6,0-8.66-5.77-13.49-14.19-16.38l-6.71-2.26c-4.53-1.56-7.88-3.59-7.88-7.95s3.82-6.71,8.97-6.71c5.85,0,9.6,3.35,10.45,8.89l.08,1.17,8.27-2.11-.08-1.01c-1.48-8.58-7.72-14.12-18.49-14.12-10.06,0-18.01,5.07-18.01,14.74,0,9.12,6.55,13.26,13.57,15.75l6,2.03c5.85,2.18,8.58,4.21,8.58,8.74,0,4.29-3.43,7.25-9.51,7.25-6.71,0-10.84-3.28-12.32-10.69l-.24-1.25-8.11,2.73,.39,.94Zm-42.51,8.97c-6.08,0-9.67-4.68-9.67-13.49s3.67-13.34,9.75-13.34,9.6,4.99,9.6,13.42-3.67,13.42-9.67,13.42m9.51-25.27c-1.87-4.52-5.85-8.19-12.24-8.19-9.44,0-15.99,7.64-15.99,20.04s6.55,20.05,15.6,20.05c6.32,0,10.69-3.43,12.79-8.27v7.33h8.81v-53.74h-8.97v22.78Zm-48.36-8.11c-6.63,0-11.15,4.13-13.1,9.83v-8.97h-8.66v38.22h8.9v-19.11c0-7.8,3.98-12.48,9.59-12.48,4.83,0,7.18,3.04,7.18,9.2v22.38h8.97v-24.57c0-8.66-4.53-14.51-12.87-14.51m-50.54,33.61c-4.13,0-6.63-2.18-6.63-5.77,0-5.3,4.53-7.25,11.78-7.41,1.48,0,2.81,.08,4.06,.15v2.73c0,6.47-3.67,10.29-9.2,10.29m21.22-.31c-2.34,0-3.43-1.01-3.43-4.37v-14.35c0-9.67-5.85-14.9-16.45-14.9-9.2,0-15.76,4.68-16.15,11.54l8.35,1.41v-.7c.31-3.98,3.27-6.16,7.8-6.16,5.54,0,7.88,2.65,7.88,7.49v2.11c-1.87-.15-3.82-.31-6.16-.31-10.22,.15-18.41,3.67-18.41,13.42,0,7.49,5.23,11.7,12.48,11.7,6.47,0,10.92-3.43,12.87-8.27,.31,4.99,3.2,7.88,8.5,7.88,1.95,0,3.98-.47,5.23-1.25v-5.69c-.86,.39-1.71,.47-2.5,.47m-61.15,.08c-6.08,0-9.83-5.38-9.83-13.42s3.82-13.42,9.75-13.42,9.6,4.76,9.6,13.34-3.59,13.49-9.52,13.49m2.97-33.46c-6.47,0-10.69,3.58-12.63,8.26v-22.85h-8.89v53.74h8.73v-7.33c2.03,4.68,6.4,8.27,12.79,8.27,8.97,0,15.6-7.41,15.6-20.28s-6.47-19.81-15.6-19.81m-42.74,39.15v-16.22c0-9.83,5.07-14.04,12.87-14.04,.93,0,1.64,0,2.34,.15v-9.13c-.55-.08-1.01-.08-1.56-.08-6.94,0-11.54,4.53-13.8,11.54v-10.45h-8.66v38.22h8.81Zm-34.32-32.84c5.15,0,8.58,3.12,8.89,9.36h-18.25c.62-5.93,4.06-9.36,9.36-9.36m17.78,13.88c0-12.48-6.39-20.43-17.71-20.43-10.45,0-18.41,7.41-18.41,20.12s6.63,20.12,18.64,20.12c9.28,0,14.98-5.07,17.32-11.08l-7.33-3.04c-1.72,4.53-4.84,7.34-9.67,7.34-6.71,0-9.98-4.68-10.22-11.47h27.38v-1.56Zm-58.65,9.13l-13.26-43.91h-10.21l17.47,53.74h11.47l17.71-53.74h-9.6l-13.57,43.91Z"/><path class="cls-1" d="M901.13,862.59c5.15,0,8.58,3.12,8.89,9.36h-18.25c.62-5.93,4.06-9.36,9.36-9.36Zm17.78,13.88c0-12.48-6.39-20.43-17.71-20.43-10.45,0-18.41,7.41-18.41,20.12s6.63,20.12,18.64,20.12c9.28,0,14.98-5.07,17.31-11.08l-7.33-3.04c-1.71,4.53-4.83,7.34-9.67,7.34-6.71,0-9.98-4.68-10.21-11.47h27.37v-1.56Zm-62.24,13.26c-6.09,0-9.67-4.68-9.67-13.49s3.67-13.34,9.75-13.34,9.59,4.99,9.59,13.42-3.67,13.42-9.67,13.42Zm9.51-25.27c-1.87-4.52-5.85-8.19-12.25-8.19-9.44,0-15.99,7.64-15.99,20.04s6.55,20.05,15.6,20.05c6.32,0,10.68-3.43,12.79-8.27v7.33h8.81v-53.74h-8.97v22.78Zm-48.36-8.11c-6.63,0-11.16,4.13-13.1,9.83v-8.97h-8.66v38.22h8.89v-19.11c0-7.8,3.98-12.48,9.6-12.48,4.83,0,7.17,3.04,7.17,9.2v22.38h8.97v-24.57c0-8.66-4.53-14.51-12.87-14.51Zm-47.27,6.24c5.15,0,8.58,3.12,8.89,9.36h-18.25c.62-5.93,4.06-9.36,9.36-9.36Zm17.78,13.88c0-12.48-6.39-20.43-17.71-20.43-10.45,0-18.41,7.41-18.41,20.12s6.63,20.12,18.64,20.12c9.28,0,14.97-5.07,17.31-11.08l-7.33-3.04c-1.72,4.53-4.84,7.34-9.67,7.34-6.71,0-9.98-4.68-10.22-11.47h27.38v-1.56Zm-54.21,18.96v-16.22c0-9.83,5.07-14.04,12.87-14.04,.93,0,1.64,0,2.34,.15v-9.13c-.55-.08-1.01-.08-1.56-.08-6.94,0-11.54,4.53-13.81,11.54v-10.45h-8.66v38.22h8.81Zm-34.32-32.84c5.15,0,8.58,3.12,8.89,9.36h-18.25c.62-5.93,4.06-9.36,9.36-9.36Zm17.78,13.88c0-12.48-6.39-20.43-17.71-20.43-10.45,0-18.41,7.41-18.41,20.12s6.63,20.12,18.64,20.12c9.28,0,14.98-5.07,17.32-11.08l-7.33-3.04c-1.72,4.53-4.84,7.34-9.67,7.34-6.71,0-9.98-4.68-10.22-11.47h27.38v-1.56Zm-43.68-19.27h-8.89v38.22h8.89v-38.22Zm-.08-15.83h-8.74v9.2h8.74v-9.2Zm-36.97,48.36c-6.09,0-9.67-4.68-9.67-13.49s3.67-13.34,9.75-13.34,9.59,4.99,9.59,13.42-3.67,13.42-9.67,13.42Zm9.51-25.27c-1.87-4.52-5.85-8.19-12.25-8.19-9.44,0-15.99,7.64-15.99,20.04s6.55,20.05,15.6,20.05c6.32,0,10.68-3.43,12.79-8.27v7.33h8.81v-53.74h-8.97v22.78Zm-57.56,31.83c6.48,0,10.92-3.98,12.95-9.44v8.58h8.74v-38.22h-8.89v18.88c0,8.42-4.06,12.71-9.6,12.71-4.37,0-6.55-2.97-6.55-9.05v-22.54h-8.81v24.73c0,8.74,4.13,14.35,12.17,14.35Zm-37.36-32.37v20.59c0,7.88,4.13,11.7,11.86,11.7,2.81,0,5.3-.7,6.71-1.4v-6.55c-1.56,.47-2.81,.7-4.37,.7-3.82,0-5.62-1.48-5.62-5.61v-19.42h9.59v-6.71h-9.67v-11.39h-8.5v11.39h-8.42v6.71h8.42Zm-50.85,16.85c1.4,9.05,7.33,15.83,20.12,15.83,11.86,0,19.11-6.39,19.11-15.6,0-8.66-5.77-13.49-14.19-16.38l-6.71-2.26c-4.53-1.56-7.88-3.59-7.88-7.95s3.82-6.71,8.97-6.71c5.85,0,9.6,3.35,10.45,8.89l.08,1.17,8.27-2.11-.08-1.01c-1.48-8.58-7.72-14.12-18.49-14.12-10.06,0-18.01,5.07-18.01,14.74,0,9.12,6.55,13.26,13.57,15.75l6,2.03c5.85,2.18,8.58,4.21,8.58,8.74,0,4.29-3.43,7.25-9.51,7.25-6.71,0-10.84-3.28-12.32-10.69l-.24-1.25-8.11,2.73,.39,.94Zm-42.51,8.97c-6.08,0-9.67-4.68-9.67-13.49s3.67-13.34,9.75-13.34,9.6,4.99,9.6,13.42-3.67,13.42-9.67,13.42Zm9.51-25.27c-1.87-4.52-5.85-8.19-12.24-8.19-9.44,0-15.99,7.64-15.99,20.04s6.55,20.05,15.6,20.05c6.32,0,10.69-3.43,12.79-8.27v7.33h8.81v-53.74h-8.97v22.78Zm-48.36-8.11c-6.63,0-11.15,4.13-13.1,9.83v-8.97h-8.66v38.22h8.9v-19.11c0-7.8,3.98-12.48,9.59-12.48,4.83,0,7.18,3.04,7.18,9.2v22.38h8.97v-24.57c0-8.66-4.53-14.51-12.87-14.51Zm-50.54,33.61c-4.13,0-6.63-2.18-6.63-5.77,0-5.3,4.53-7.25,11.78-7.41,1.48,0,2.81,.08,4.06,.15v2.73c0,6.47-3.67,10.29-9.2,10.29Zm21.22-.31c-2.34,0-3.43-1.01-3.43-4.37v-14.35c0-9.67-5.85-14.9-16.45-14.9-9.2,0-15.76,4.68-16.15,11.54l8.35,1.41v-.7c.31-3.98,3.27-6.16,7.8-6.16,5.54,0,7.88,2.65,7.88,7.49v2.11c-1.87-.15-3.82-.31-6.16-.31-10.22,.15-18.41,3.67-18.41,13.42,0,7.49,5.23,11.7,12.48,11.7,6.47,0,10.92-3.43,12.87-8.27,.31,4.99,3.2,7.88,8.5,7.88,1.95,0,3.98-.47,5.23-1.25v-5.69c-.86,.39-1.71,.47-2.5,.47Zm-61.15,.08c-6.08,0-9.83-5.38-9.83-13.42s3.82-13.42,9.75-13.42,9.6,4.76,9.6,13.34-3.59,13.49-9.52,13.49Zm2.97-33.46c-6.47,0-10.69,3.58-12.63,8.26v-22.85h-8.89v53.74h8.73v-7.33c2.03,4.68,6.4,8.27,12.79,8.27,8.97,0,15.6-7.41,15.6-20.28s-6.47-19.81-15.6-19.81Zm-42.74,39.15v-16.22c0-9.83,5.07-14.04,12.87-14.04,.93,0,1.64,0,2.34,.15v-9.13c-.55-.08-1.01-.08-1.56-.08-6.94,0-11.54,4.53-13.8,11.54v-10.45h-8.66v38.22h8.81Zm-34.32-32.84c5.15,0,8.58,3.12,8.89,9.36h-18.25c.62-5.93,4.06-9.36,9.36-9.36Zm17.78,13.88c0-12.48-6.39-20.43-17.71-20.43-10.45,0-18.41,7.41-18.41,20.12s6.63,20.12,18.64,20.12c9.28,0,14.98-5.07,17.32-11.08l-7.33-3.04c-1.72,4.53-4.84,7.34-9.67,7.34-6.71,0-9.98-4.68-10.22-11.47h27.38v-1.56Zm-58.65,9.13l-13.26-43.91h-10.21l17.47,53.74h11.47l17.71-53.74h-9.6l-13.57,43.91Z"/></svg>